<svg xmlns="http://www.w3.org/2000/svg" xmlns:xlink="http://www.w3.org/1999/xlink" viewBox="0 0 122.29 155.44"><defs><style>.cls-1{fill:none;}.cls-2{fill:#66c800;}.cls-3{isolation:isolate;}.cls-4{opacity:0.1;}.cls-13,.cls-4,.cls-6{mix-blend-mode:multiply;}.cls-5{clip-path:url(#clip-path);}.cls-13,.cls-6{opacity:0.4;}.cls-7{clip-path:url(#clip-path-2);}.cls-8{clip-path:url(#clip-path-3);}.cls-9{fill:#a5e60a;}.cls-10{fill:#006837;}.cls-11{fill:#ffd800;}.cls-12{fill:#4d4855;}.cls-13{fill:#aa9ebb;}.cls-14{clip-path:url(#clip-path-4);}.cls-15{fill:#38c3d2;}.cls-16{fill:#0095c8;}.cls-17{fill:#f63;}.cls-18{fill:#f30;}.cls-19{fill:#ff0;}</style><clipPath id="clip-path" transform="translate(0.42 1.04)"><path d="M61.24,154.39c-32.66,0-41.61-10.68-41.61-10.68,5.85-21.84,7.56-68.46,6.22-86.16s-9.27-43.08-9.27-43.08A139.68,139.68,0,0,1,37.72,6.14C46,3.83,61.24,3,61.24,3h2.21S78.74,3.83,87,6.14a140.19,140.19,0,0,1,21.14,8.33s-7.93,25.39-9.27,43.08.36,64.32,6.22,86.16c0,0-8.95,10.68-41.62,10.68Z"/></clipPath><clipPath id="clip-path-2" transform="translate(0.42 1.04)"><path class="cls-1" d="M92.53,33c2.5,3.1-3.09,15.93-7.08,15.93S75.88,36.09,78.37,33C80.6,30.23,90.31,30.23,92.53,33Z"/></clipPath><clipPath id="clip-path-3" transform="translate(0.42 1.04)"><path class="cls-2" d="M58.24,151.39c-32.66,0-41.61-10.68-41.61-10.68,5.85-21.84,7.56-68.46,6.22-86.16s-9.27-43.08-9.27-43.08A139.68,139.68,0,0,1,34.72,3.14C43,.83,58.24,0,58.24,0h2.21S75.74.83,84,3.14a140.19,140.19,0,0,1,21.14,8.33s-7.93,25.39-9.27,43.08.36,64.32,6.22,86.16c0,0-8.95,10.68-41.62,10.68Z"/></clipPath><clipPath id="clip-path-4" transform="translate(0.42 1.04)"><path class="cls-1" d="M89.53,30c2.5,3.1-3.09,15.93-7.08,15.93S72.88,33.09,75.37,30C77.6,27.23,87.31,27.23,89.53,30Z"/></clipPath></defs><g class="cls-3"><g id="Ebene_2" data-name="Ebene 2"><g id="WebsiteInhalt"><g class="cls-4"><path d="M61.24,154.39c-32.66,0-41.61-10.68-41.61-10.68,5.85-21.84,7.56-68.46,6.22-86.16s-9.27-43.08-9.27-43.08A139.68,139.68,0,0,1,37.72,6.14C46,3.83,61.24,3,61.24,3h2.21S78.74,3.83,87,6.14a140.19,140.19,0,0,1,21.14,8.33s-7.93,25.39-9.27,43.08.36,64.32,6.22,86.16c0,0-8.95,10.68-41.62,10.68Z" transform="translate(0.42 1.04)"/><g class="cls-5"><path d="M117.87,109.34,3,2c0,3.5,0,7.15,0,10.92L117.49,119.93C117.6,116.59,117.72,113.05,117.87,109.34Z" transform="translate(0.42 1.04)"/><path d="M2.58,33.07,117,140c.06-3.4.14-7.47.26-12.07L2.85,21Q2.76,26.91,2.58,33.07Z" transform="translate(0.42 1.04)"/></g><path d="M16.67,14.47s-4.45,4.38-8,16.29S3,53.43,3,53.43s12.72,7.48,23.08,6.33C26.08,59.76,26.08,26.72,16.67,14.47Z" transform="translate(0.42 1.04)"/><path d="M108.12,14.47s4.45,4.38,8,16.29,5.69,22.67,5.69,22.67-12.72,7.48-23.08,6.33C98.7,59.76,98.7,26.72,108.12,14.47Z" transform="translate(0.42 1.04)"/><path d="M3,53.6a4.2,4.2,0,0,1,.25-1.37c5.26,3.16,17.29,7.2,22.74,7.46,0,.38.28,2,.09,2.11C23.87,63.21,3.15,56.18,3,53.6Z" transform="translate(0.42 1.04)"/><path d="M121.87,53.82a4.52,4.52,0,0,0-.3-1.4c-5.25,3.16-17.42,7.08-22.87,7.34,0,.38-.19,1.9,0,2C100.92,63.19,121.73,56.4,121.87,53.82Z" transform="translate(0.42 1.04)"/><path class="cls-6" d="M98.61,61.62c.07-1.48.14-2.85.24-4.07.17-2.28.68-5.11.83-7.3-.13-1.18,3.3-16.74,3.38-17.07,2.19-9.41,4-14.32,5.06-18.71-11,4.76-15.44,25.37-15.25,33.19S81.19,61,81.19,61s4.9,1.51,6,2.62-2.81,24-3.38,26.66,4.7,14.26,4.51,17.46S72.15,99,72.15,99s14.69,21.17,16.39,24.37,3.2,7.11-.76,15.4c-3.77,7.92-19.89,15.11-21.35,15.63a101.58,101.58,0,0,0,17.79-1.73c11.47-2.31,17.7-5.77,20.85-8.92-2.6-9.69-4.38-24.26-5.44-39A290,290,0,0,1,98.61,61.62Z" transform="translate(0.42 1.04)"/><path class="cls-6" d="M28.3,149.1c5.21,2.18,13.14,4.35,24.81,5.05-2.1-.19-19.25-6.77-23.32-29.76-4.33-24.48-.37-23.73-.37-23.73s3.95,18.46,15.82,22c0,0-16.39-24.86-16.2-64,0,0,5.2,1.37-1.65-16.53-2.6-6.82-8.19-23.47-10.72-27.66l1.08,3.93c.79,2.75,1.9,6.73,3.05,11.33v.05c2.12,8.49,4.38,19.06,5,27.77,0,.26.2,2.82.2,3.2,0,0,.13,3.42.13,3.46.14,8.61.28,17.84-.72,32.12v0c0,17.2-2.47,34.77-5.9,47.35C19.56,143.71,22.13,146.43,28.3,149.1Z" transform="translate(0.42 1.04)"/><path d="M75.35,4.61a2.6,2.6,0,0,0-.07-.56c0-.24-4.24-.47-4.7-.52-1.67-.16-3.34-.29-5-.37a72.73,72.73,0,0,0-9.68.21l-4.17.39a3.09,3.09,0,0,0-.14.85c0,3.25,5.32,5.88,11.88,5.88S75.35,7.86,75.35,4.61Z" transform="translate(0.42 1.04)"/><path d="M75.89,4.13l-.8-.07a.86.86,0,0,1,0,.23c0,2.91-5.25,5.24-11.71,5.21S51.73,7.09,51.74,4.18c0-.12,0-.23,0-.35l0,0,0-.1-.64.09a4,4,0,0,0-.32,2.73A3.39,3.39,0,0,0,51.72,8a9.93,9.93,0,0,0,4.08,2.19,24.71,24.71,0,0,0,6.28,1c.44,0,.88,0,1.32,0A24.82,24.82,0,0,0,71.69,10a8.91,8.91,0,0,0,3.53-2A3.67,3.67,0,0,0,75.89,4.13Z" transform="translate(0.42 1.04)"/><g class="cls-7"><rect x="77.48" y="42.71" width="10.79" height="7.19"/><polygon points="88.13 47.24 87.19 47.24 87.19 45.37 88.13 45.37 88.13 45.44 87.26 45.44 87.26 47.17 88.13 47.17 88.13 47.24"/><polygon points="88.13 47.78 86.48 47.78 86.48 44.84 88.13 44.84 88.13 44.91 86.55 44.91 86.55 47.71 88.13 47.71 88.13 47.78"/><polygon points="78.56 47.24 77.62 47.24 77.62 47.17 78.49 47.17 78.49 45.44 77.62 45.44 77.62 45.37 78.56 45.37 78.56 47.24"/><polygon points="79.27 47.78 77.62 47.78 77.62 47.71 79.2 47.71 79.2 44.91 77.62 44.91 77.62 44.84 79.27 44.84 79.27 47.78"/><path d="M82.46,46.5a1.23,1.23,0,1,1,1.23-1.23A1.24,1.24,0,0,1,82.46,46.5Zm0-2.39a1.16,1.16,0,1,0,1.16,1.16A1.16,1.16,0,0,0,82.46,44.11Z" transform="translate(0.42 1.04)"/><rect x="82.84" y="42.71" width="0.07" height="7.19"/><circle cx="82.88" cy="46.31" r="0.09"/><path d="M87.75,48.76H77.15v-7h10.6Zm-10.53-.07H87.68V41.84H77.22Z" transform="translate(0.42 1.04)"/><rect x="88.27" y="39.12" width="7.19" height="10.79"/><path d="M94.8,48.63H88.08V38.31H94.8Zm-6.65-.07h6.58V38.38H88.15Z" transform="translate(0.42 1.04)"/><rect x="88.27" y="44.48" width="7.19" height="0.07"/><rect x="88.54" y="42.32" width="6.65" height="0.07"/><rect x="88.54" y="46.63" width="6.65" height="0.07"/><rect x="77.48" y="31.92" width="7.19" height="10.79"/><rect x="77.48" y="37.28" width="7.19" height="0.07"/><rect x="78.47" y="39.8" width="5.21" height="0.07"/><rect x="78.47" y="34.76" width="5.21" height="0.07"/><rect x="81.04" y="34.8" width="0.07" height="5.04"/><rect x="78.43" y="32.19" width="0.07" height="10.25"/><rect x="83.65" y="32.19" width="0.07" height="10.25"/><rect x="81.04" y="32.19" width="0.07" height="0.18"/><path d="M84,41.43H77.29V31.11H84Zm-6.65-.07h6.58V31.18H77.36Z" transform="translate(0.42 1.04)"/><rect x="81.04" y="42.26" width="0.07" height="0.18"/><rect x="84.67" y="31.92" width="10.79" height="7.19"/><path d="M89.64,35.34a.85.85,0,1,1,.85-.85A.85.85,0,0,1,89.64,35.34Zm0-1.62a.78.78,0,1,0,.78.77A.78.78,0,0,0,89.64,33.72Z" transform="translate(0.42 1.04)"/><rect x="90.03" y="31.94" width="0.07" height="7.19"/><rect x="95.02" y="34.98" width="0.07" height="1.08"/><path d="M94.45,34.62a.15.15,0,0,1-.15-.14.15.15,0,0,1,.15-.15.14.14,0,0,1,.14.15A.14.14,0,0,1,94.45,34.62Zm0-.22a.07.07,0,0,0-.08.08.07.07,0,0,0,.08.07.07.07,0,0,0,.07-.07A.07.07,0,0,0,94.45,34.4Z" transform="translate(0.42 1.04)"/><polygon points="95.46 36.38 92.73 36.38 92.73 34.69 95.46 34.69 95.46 34.76 92.8 34.76 92.8 36.31 95.46 36.31 95.46 36.38"/><path d="M92.33,35.34a.85.85,0,0,1,0-1.69v.07a.78.78,0,0,0,0,1.55Z" transform="translate(0.42 1.04)"/><rect x="94.83" y="38.74" width="0.63" height="0.07"/><rect x="94.83" y="32.26" width="0.63" height="0.07"/><path d="M94.43,37.76a3.27,3.27,0,0,1,0-6.54v.07a3.2,3.2,0,0,0,0,6.4Z" transform="translate(0.42 1.04)"/><path d="M92.43,33.72h-.1v-.07h.11Z" transform="translate(0.42 1.04)"/><path d="M92.8,33.88a.59.59,0,0,0-.17-.1l0-.07a1.18,1.18,0,0,1,.19.11Z" transform="translate(0.42 1.04)"/><path d="M93.05,34.2a.54.54,0,0,0-.11-.18L93,34a1.18,1.18,0,0,1,.11.19Z" transform="translate(0.42 1.04)"/><path d="M93.17,34.6H93.1v-.2h.07v.22Z" transform="translate(0.42 1.04)"/><path d="M93,35l-.06,0a.54.54,0,0,0,.1-.16l.07,0A1.18,1.18,0,0,1,93,35Z" transform="translate(0.42 1.04)"/><path d="M92.65,35.27l0-.06a.77.77,0,0,0,.18-.1l0,0A.59.59,0,0,1,92.65,35.27Z" transform="translate(0.42 1.04)"/><path d="M92.33,35.34v-.07h.1v.07Z" transform="translate(0.42 1.04)"/><rect x="85.05" y="35.01" width="0.07" height="1.08"/><path d="M84.84,34.66a.15.15,0,1,1,.15-.15A.15.15,0,0,1,84.84,34.66Zm0-.23a.08.08,0,1,0,.08.08A.09.09,0,0,0,84.84,34.43Z" transform="translate(0.42 1.04)"/><polygon points="87.4 36.38 84.67 36.38 84.67 36.31 87.33 36.31 87.33 34.76 84.67 34.76 84.67 34.69 87.4 34.69 87.4 36.38"/><path d="M87,35.34h-.11v-.07H87Z" transform="translate(0.42 1.04)"/><path d="M86.63,35.27a.93.93,0,0,1-.19-.11l0,0a1,1,0,0,0,.17.1Z" transform="translate(0.42 1.04)"/><path d="M86.29,35a.78.78,0,0,1-.11-.2l.06,0a1,1,0,0,0,.1.17Z" transform="translate(0.42 1.04)"/><path d="M86.12,34.61s0-.08,0-.12,0-.07,0-.11h.07s0,.07,0,.1,0,.07,0,.11Z" transform="translate(0.42 1.04)"/><path d="M86.25,34.19l-.07,0a1.08,1.08,0,0,1,.11-.18l0,0A.56.56,0,0,0,86.25,34.19Z" transform="translate(0.42 1.04)"/><path d="M86.49,33.88l0-.06.2-.11,0,.07A.59.59,0,0,0,86.49,33.88Z" transform="translate(0.42 1.04)"/><path d="M86.86,33.72v-.06H87v.07Z" transform="translate(0.42 1.04)"/><path d="M87,35.34v-.07a.78.78,0,0,0,0-1.55v-.07a.85.85,0,0,1,0,1.69Z" transform="translate(0.42 1.04)"/><rect x="84.67" y="32.26" width="0.63" height="0.07"/><rect x="84.67" y="38.74" width="0.63" height="0.07"/><path d="M84.86,37.76v-.07a3.2,3.2,0,1,0,0-6.4v-.07a3.27,3.27,0,0,1,0,6.54Z" transform="translate(0.42 1.04)"/><path d="M94.94,38H84.35V31H94.94Zm-10.52-.07H94.87V31H84.42Z" transform="translate(0.42 1.04)"/></g></g><path class="cls-2" d="M58.24,151.39c-32.66,0-41.61-10.68-41.61-10.68,5.85-21.84,7.56-68.46,6.22-86.16s-9.27-43.08-9.27-43.08A139.68,139.68,0,0,1,34.72,3.14C43,.83,58.24,0,58.24,0h2.21S75.74.83,84,3.14a140.19,140.19,0,0,1,21.14,8.33s-7.93,25.39-9.27,43.08.36,64.32,6.22,86.16c0,0-8.95,10.68-41.62,10.68Z" transform="translate(0.42 1.04)"/><g class="cls-8"><path class="cls-9" d="M114.87,106.34,0-1C0,2.46,0,6.11,0,9.88L114.49,116.93C114.6,113.59,114.72,110.05,114.87,106.34Z" transform="translate(0.42 1.04)"/><path class="cls-10" d="M-.42,30.07,114,137c.06-3.4.14-7.47.26-12.07L-.15,18Q-.24,23.91-.42,30.07Z" transform="translate(0.42 1.04)"/></g><path class="cls-11" d="M13.67,11.47s-4.45,4.38-8,16.29S0,50.43,0,50.43s12.72,7.48,23.08,6.33C23.08,56.76,23.08,23.72,13.67,11.47Z" transform="translate(0.42 1.04)"/><path class="cls-11" d="M105.12,11.47s4.45,4.38,8,16.29,5.69,22.67,5.69,22.67-12.72,7.48-23.08,6.33C95.7,56.76,95.7,23.72,105.12,11.47Z" transform="translate(0.42 1.04)"/><path class="cls-12" d="M0,50.6a4.2,4.2,0,0,1,.25-1.37c5.26,3.16,17.29,7.2,22.74,7.46,0,.38.28,2,.09,2.11C20.87,60.21.15,53.18,0,50.6Z" transform="translate(0.42 1.04)"/><path class="cls-12" d="M118.87,50.82a4.52,4.52,0,0,0-.3-1.4c-5.25,3.16-17.42,7.08-22.87,7.34,0,.38-.19,1.9,0,2C97.92,60.19,118.73,53.4,118.87,50.82Z" transform="translate(0.42 1.04)"/><path class="cls-13" d="M95.61,58.62c.07-1.48.14-2.85.24-4.07.17-2.28.68-5.11.83-7.3-.13-1.18,3.3-16.74,3.38-17.07,2.19-9.41,4-14.32,5.06-18.71-11,4.76-15.44,25.37-15.25,33.19S78.19,58,78.19,58s4.9,1.51,6,2.62-2.81,24-3.38,26.66,4.7,14.26,4.51,17.46S69.15,96,69.15,96s14.69,21.17,16.39,24.37,3.2,7.11-.76,15.4c-3.77,7.92-19.89,15.11-21.35,15.63a101.58,101.58,0,0,0,17.79-1.73c11.47-2.31,17.7-5.77,20.85-8.92-2.6-9.69-4.38-24.26-5.44-39A290,290,0,0,1,95.61,58.62Z" transform="translate(0.42 1.04)"/><path class="cls-13" d="M25.3,146.1c5.21,2.18,13.14,4.35,24.81,5.05-2.1-.19-19.25-6.77-23.32-29.76-4.33-24.48-.37-23.73-.37-23.73s3.95,18.46,15.82,22c0,0-16.39-24.86-16.2-64,0,0,5.2,1.37-1.65-16.53-2.6-6.82-8.19-23.47-10.72-27.66l1.08,3.93c.79,2.75,1.9,6.73,3.05,11.33v.05c2.12,8.49,4.38,19.06,5,27.77,0,.26.2,2.82.2,3.2,0,0,.13,3.42.13,3.46.14,8.61.28,17.84-.72,32.12v0c0,17.2-2.47,34.77-5.9,47.35C16.56,140.71,19.13,143.43,25.3,146.1Z" transform="translate(0.42 1.04)"/><path class="cls-11" d="M72.35,1.61a2.6,2.6,0,0,0-.07-.56c0-.24-4.24-.47-4.7-.52-1.67-.16-3.34-.29-5-.37a72.73,72.73,0,0,0-9.68.21q-2.09.18-4.17.39a3.09,3.09,0,0,0-.14.85c0,3.25,5.32,5.88,11.88,5.88S72.35,4.86,72.35,1.61Z" transform="translate(0.42 1.04)"/><path class="cls-12" d="M72.89,1.13l-.8-.07a.86.86,0,0,1,0,.23c0,2.91-5.25,5.24-11.71,5.21S48.73,4.09,48.74,1.18c0-.12,0-.23,0-.35l0,0,0-.1-.64.09a4,4,0,0,0-.32,2.73A3.39,3.39,0,0,0,48.72,5,9.93,9.93,0,0,0,52.8,7.15a24.71,24.71,0,0,0,6.28,1c.44,0,.88,0,1.32,0A24.82,24.82,0,0,0,68.69,7a8.91,8.91,0,0,0,3.53-2A3.67,3.67,0,0,0,72.89,1.13Z" transform="translate(0.42 1.04)"/><g class="cls-14"><rect class="cls-9" x="74.48" y="39.71" width="10.79" height="7.19"/><polygon class="cls-2" points="85.13 44.24 84.19 44.24 84.19 42.37 85.13 42.37 85.13 42.44 84.26 42.44 84.26 44.17 85.13 44.17 85.13 44.24"/><polygon class="cls-2" points="85.13 44.78 83.48 44.78 83.48 41.84 85.13 41.84 85.13 41.91 83.55 41.91 83.55 44.71 85.13 44.71 85.13 44.78"/><polygon class="cls-2" points="75.56 44.24 74.62 44.24 74.62 44.17 75.49 44.17 75.49 42.44 74.62 42.44 74.62 42.37 75.56 42.37 75.56 44.24"/><polygon class="cls-2" points="76.27 44.78 74.62 44.78 74.62 44.71 76.2 44.71 76.2 41.91 74.62 41.91 74.62 41.84 76.27 41.84 76.27 44.78"/><path class="cls-2" d="M79.46,43.5a1.23,1.23,0,1,1,1.23-1.23A1.24,1.24,0,0,1,79.46,43.5Zm0-2.39a1.16,1.16,0,1,0,1.16,1.16A1.16,1.16,0,0,0,79.46,41.11Z" transform="translate(0.42 1.04)"/><rect class="cls-2" x="79.84" y="39.71" width="0.07" height="7.19"/><circle class="cls-2" cx="79.88" cy="43.31" r="0.09"/><path class="cls-2" d="M84.75,45.76H74.15v-7h10.6Zm-10.53-.07H84.68V38.84H74.22Z" transform="translate(0.42 1.04)"/><rect class="cls-15" x="85.27" y="36.12" width="7.19" height="10.79"/><path class="cls-16" d="M91.8,45.63H85.08V35.31H91.8Zm-6.65-.07h6.58V35.38H85.15Z" transform="translate(0.42 1.04)"/><rect class="cls-16" x="85.27" y="41.48" width="7.19" height="0.07"/><rect class="cls-16" x="85.54" y="39.32" width="6.65" height="0.07"/><rect class="cls-16" x="85.54" y="43.63" width="6.65" height="0.07"/><rect class="cls-17" x="74.48" y="28.92" width="7.19" height="10.79"/><rect class="cls-18" x="74.48" y="34.28" width="7.19" height="0.07"/><rect class="cls-18" x="75.47" y="36.8" width="5.21" height="0.07"/><rect class="cls-18" x="75.47" y="31.76" width="5.21" height="0.07"/><rect class="cls-18" x="78.04" y="31.8" width="0.07" height="5.04"/><rect class="cls-18" x="75.43" y="29.19" width="0.07" height="10.25"/><rect class="cls-18" x="80.65" y="29.19" width="0.07" height="10.25"/><rect class="cls-18" x="78.04" y="29.19" width="0.07" height="0.18"/><path class="cls-18" d="M81,38.43H74.29V28.11H81Zm-6.65-.07h6.58V28.18H74.36Z" transform="translate(0.42 1.04)"/><rect class="cls-18" x="78.04" y="39.26" width="0.07" height="0.18"/><rect class="cls-19" x="81.67" y="28.92" width="10.79" height="7.19"/><path class="cls-11" d="M86.64,32.34a.85.85,0,1,1,.85-.85A.85.85,0,0,1,86.64,32.34Zm0-1.62a.78.78,0,1,0,.78.77A.78.78,0,0,0,86.64,30.72Z" transform="translate(0.42 1.04)"/><rect class="cls-11" x="87.03" y="28.94" width="0.07" height="7.19"/><rect class="cls-11" x="92.02" y="31.98" width="0.07" height="1.08"/><path class="cls-11" d="M91.45,31.62a.15.15,0,0,1-.15-.14.15.15,0,0,1,.15-.15.14.14,0,0,1,.14.15A.14.14,0,0,1,91.45,31.62Zm0-.22a.07.07,0,0,0-.08.08.07.07,0,0,0,.08.07.07.07,0,0,0,.07-.07A.07.07,0,0,0,91.45,31.4Z" transform="translate(0.42 1.04)"/><polygon class="cls-11" points="92.46 33.38 89.73 33.38 89.73 31.69 92.46 31.69 92.46 31.76 89.8 31.76 89.8 33.31 92.46 33.31 92.46 33.38"/><path class="cls-11" d="M89.33,32.34a.85.85,0,0,1,0-1.69v.07a.78.78,0,0,0,0,1.55Z" transform="translate(0.42 1.04)"/><rect class="cls-11" x="91.83" y="35.74" width="0.63" height="0.07"/><rect class="cls-11" x="91.83" y="29.26" width="0.63" height="0.07"/><path class="cls-11" d="M91.43,34.76a3.27,3.27,0,0,1,0-6.54v.07a3.2,3.2,0,0,0,0,6.4Z" transform="translate(0.42 1.04)"/><path class="cls-11" d="M89.43,30.72h-.1v-.07h.11Z" transform="translate(0.42 1.04)"/><path class="cls-11" d="M89.8,30.88a.59.59,0,0,0-.17-.1l0-.07a1.18,1.18,0,0,1,.19.11Z" transform="translate(0.42 1.04)"/><path class="cls-11" d="M90.05,31.2a.54.54,0,0,0-.11-.18L90,31a1.18,1.18,0,0,1,.11.19Z" transform="translate(0.42 1.04)"/><path class="cls-11" d="M90.17,31.6H90.1v-.2h.07v.22Z" transform="translate(0.42 1.04)"/><path class="cls-11" d="M90,32l-.06,0a.54.54,0,0,0,.1-.16l.07,0A1.18,1.18,0,0,1,90,32Z" transform="translate(0.42 1.04)"/><path class="cls-11" d="M89.65,32.27l0-.06a.77.77,0,0,0,.18-.1l0,0A.59.59,0,0,1,89.65,32.27Z" transform="translate(0.42 1.04)"/><path class="cls-11" d="M89.33,32.34v-.07h.1v.07Z" transform="translate(0.42 1.04)"/><rect class="cls-11" x="82.05" y="32.01" width="0.07" height="1.08"/><path class="cls-11" d="M81.84,31.66a.15.15,0,1,1,.15-.15A.15.15,0,0,1,81.84,31.66Zm0-.23a.08.08,0,1,0,.08.08A.09.09,0,0,0,81.84,31.43Z" transform="translate(0.42 1.04)"/><polygon class="cls-11" points="84.4 33.38 81.67 33.38 81.67 33.31 84.33 33.31 84.33 31.76 81.67 31.76 81.67 31.69 84.4 31.69 84.4 33.38"/><path class="cls-11" d="M84,32.34h-.11v-.07H84Z" transform="translate(0.42 1.04)"/><path class="cls-11" d="M83.63,32.27a.93.93,0,0,1-.19-.11l0,0a1,1,0,0,0,.17.1Z" transform="translate(0.42 1.04)"/><path class="cls-11" d="M83.29,32a.78.78,0,0,1-.11-.2l.06,0a1,1,0,0,0,.1.17Z" transform="translate(0.42 1.04)"/><path class="cls-11" d="M83.12,31.61s0-.08,0-.12,0-.07,0-.11h.07s0,.07,0,.1,0,.07,0,.11Z" transform="translate(0.42 1.04)"/><path class="cls-11" d="M83.25,31.19l-.07,0a1.08,1.08,0,0,1,.11-.18l0,0A.56.56,0,0,0,83.25,31.19Z" transform="translate(0.42 1.04)"/><path class="cls-11" d="M83.49,30.88l0-.06.2-.11,0,.07A.59.59,0,0,0,83.49,30.88Z" transform="translate(0.42 1.04)"/><path class="cls-11" d="M83.86,30.72v-.06H84v.07Z" transform="translate(0.42 1.04)"/><path class="cls-11" d="M84,32.34v-.07a.78.78,0,0,0,0-1.55v-.07a.85.85,0,0,1,0,1.69Z" transform="translate(0.42 1.04)"/><rect class="cls-11" x="81.67" y="29.26" width="0.63" height="0.07"/><rect class="cls-11" x="81.67" y="35.74" width="0.63" height="0.07"/><path class="cls-11" d="M81.86,34.76v-.07a3.2,3.2,0,1,0,0-6.4v-.07a3.27,3.27,0,0,1,0,6.54Z" transform="translate(0.42 1.04)"/><path class="cls-11" d="M91.94,35H81.35V28H91.94Zm-10.52-.07H91.87V28H81.42Z" transform="translate(0.42 1.04)"/></g></g></g></g></svg>