<svg xmlns="http://www.w3.org/2000/svg" viewBox="0 0 40.84 50.62"><defs><style>.cls-1{fill:#fff;}</style></defs><g id="Ebene_2" data-name="Ebene 2"><g id="Ebene_25" data-name="Ebene 25"><path class="cls-1" d="M20.77.5a48.56,48.56,0,0,1,7.75,1,44.86,44.86,0,0,1,6.6,2.57c-.53,1.78-2.6,8.94-3,14.1-.42,5.6.05,21,2,28.7-.78.69-4.26,3.22-13.36,3.22h-.74c-9.11,0-12.59-2.54-13.36-3.22,2-7.72,2.45-23.1,2-28.7C8.32,13,6.25,5.88,5.72,4.1a44.4,44.4,0,0,1,6.6-2.57,48.07,48.07,0,0,1,7.73-1h.72m0-.5h-.74a49.06,49.06,0,0,0-7.87,1.05A46.76,46.76,0,0,0,5.11,3.84s2.66,8.48,3.11,14.4S8.09,39.75,6.13,47.05c0,0,3,3.57,13.92,3.57h.74c10.92,0,13.91-3.57,13.91-3.57-2-7.3-2.53-22.89-2.08-28.81s3.1-14.4,3.1-14.4a46.26,46.26,0,0,0-7.07-2.79,48.85,48.85,0,0,0-7.86-1Z"/><path class="cls-1" d="M40.77,17.51S40,13.85,38.85,9.89s-2.73-5.6-2.79-5.66l-.4-.4-.35.45c-3.21,4.18-3.25,15-3.25,15.45v.44l.44,0a7.37,7.37,0,0,0,.82.05c3.38,0,7-2.13,7.21-2.23l.31-.18ZM32.56,19.4c-.06,0,0-.55,0-.67a23,23,0,0,0,7.65-2.46,1.72,1.72,0,0,1,.1.47C40.26,17.6,33.3,19.87,32.56,19.4Z"/><path class="cls-1" d="M5.53,4.28l-.35-.45A15.12,15.12,0,0,0,2,9.89c-1.17,4-1.9,7.59-1.91,7.62L0,17.86.31,18a16.65,16.65,0,0,0,7.21,2.23,7,7,0,0,0,.81-.05l.45,0v-.44C8.78,19.27,8.74,8.46,5.53,4.28ZM8.28,19.41c-.74.47-7.67-1.88-7.72-2.74a1.31,1.31,0,0,1,.08-.46A22.59,22.59,0,0,0,8.25,18.7C8.25,18.83,8.34,19.37,8.28,19.41Z"/><path class="cls-1" d="M30.15,1.52c-.49-.17-1-.33-1.5-.47L28.48,1V49.88c.61-.14,1.17-.28,1.67-.44Z"/><path class="cls-1" d="M26.14,50.29c.47-.06.92-.13,1.34-.21V.77L26.14.54Z"/><path class="cls-1" d="M25,.38l-.27,0a.22.22,0,0,1,0,.08c0,1-1.76,1.75-3.92,1.74s-3.9-.8-3.9-1.78a.43.43,0,0,1,0-.11h0v0l-.22,0a1.33,1.33,0,0,0-.1.92,1.12,1.12,0,0,0,.29.46,3.37,3.37,0,0,0,1.37.73,7.89,7.89,0,0,0,2.1.35h.44a8.13,8.13,0,0,0,2.77-.41,3,3,0,0,0,1.18-.67A1.22,1.22,0,0,0,25,.38Z"/></g></g></svg>