<svg xmlns="http://www.w3.org/2000/svg" xmlns:xlink="http://www.w3.org/1999/xlink" viewBox="0 0 40.84 53.02"><defs><style>.cls-1{fill:none;}.cls-2{fill:#fff;}.cls-3{clip-path:url(#clip-path);}</style><clipPath id="clip-path" transform="translate(0 0)"><path class="cls-1" d="M20.79,0h-.74a49.06,49.06,0,0,0-7.87,1.05A46.76,46.76,0,0,0,5.11,3.84s2.66,8.48,3.11,14.4S8.09,39.75,6.13,47.05c0,0,3,3.57,13.92,3.57h.74c10.92,0,13.91-3.57,13.91-3.57-2-7.3-2.53-22.89-2.08-28.81s3.1-14.4,3.1-14.4a46.26,46.26,0,0,0-7.07-2.79,48.85,48.85,0,0,0-7.86-1Z"/></clipPath></defs><g id="Ebene_2" data-name="Ebene 2"><g id="Ebene_25" data-name="Ebene 25"><path class="cls-2" d="M20.77.5a48.56,48.56,0,0,1,7.75,1,44.86,44.86,0,0,1,6.6,2.57c-.53,1.78-2.6,8.94-3,14.1-.42,5.6.05,21,2,28.7-.78.69-4.26,3.22-13.36,3.22h-.74c-9.11,0-12.59-2.54-13.36-3.22,2-7.72,2.45-23.1,2-28.7C8.32,13,6.25,5.88,5.72,4.1a44.4,44.4,0,0,1,6.6-2.57,48.07,48.07,0,0,1,7.73-1h.72m0-.5h-.74a49.06,49.06,0,0,0-7.87,1.05A46.76,46.76,0,0,0,5.11,3.84s2.66,8.48,3.11,14.4S8.09,39.75,6.13,47.05c0,0,3,3.57,13.92,3.57h.74c10.92,0,13.91-3.57,13.91-3.57-2-7.3-2.53-22.89-2.08-28.81s3.1-14.4,3.1-14.4a46.26,46.26,0,0,0-7.07-2.79,48.85,48.85,0,0,0-7.86-1Z" transform="translate(0 0)"/><path class="cls-2" d="M40.77,17.51S40,13.85,38.85,9.89s-2.73-5.6-2.79-5.66l-.4-.4-.35.45c-3.21,4.18-3.25,15-3.25,15.45v.44l.44,0a7.37,7.37,0,0,0,.82.05c3.38,0,7-2.13,7.21-2.23l.31-.18ZM32.56,19.4c-.06,0,0-.55,0-.67a23,23,0,0,0,7.65-2.46,1.72,1.72,0,0,1,.1.47C40.26,17.6,33.3,19.87,32.56,19.4Z" transform="translate(0 0)"/><path class="cls-2" d="M5.53,4.28l-.35-.45A15.12,15.12,0,0,0,2,9.89c-1.17,4-1.9,7.59-1.91,7.62L0,17.86.31,18a16.65,16.65,0,0,0,7.21,2.23,7,7,0,0,0,.81-.05l.45,0v-.44C8.78,19.27,8.74,8.46,5.53,4.28ZM8.28,19.41c-.74.47-7.67-1.88-7.72-2.74a1.31,1.31,0,0,1,.08-.46A22.59,22.59,0,0,0,8.25,18.7C8.25,18.83,8.34,19.37,8.28,19.41Z" transform="translate(0 0)"/><path class="cls-2" d="M25,.38l-.27,0a.22.22,0,0,1,0,.08c0,1-1.76,1.75-3.92,1.74s-3.9-.8-3.9-1.78a.43.43,0,0,1,0-.11h0v0l-.22,0a1.33,1.33,0,0,0-.1.92,1.12,1.12,0,0,0,.29.46,3.37,3.37,0,0,0,1.37.73,7.89,7.89,0,0,0,2.1.35h.44a8.13,8.13,0,0,0,2.77-.41,3,3,0,0,0,1.18-.67A1.22,1.22,0,0,0,25,.38Z" transform="translate(0 0)"/><g class="cls-3"><path class="cls-2" d="M11.78,5.94h-6a.38.38,0,1,1,0-.75h6a.38.38,0,0,1,0,.75Z" transform="translate(0 0)"/><path class="cls-2" d="M8.78,8.94a.38.38,0,0,1-.38-.38v-6a.38.38,0,0,1,.38-.37.37.37,0,0,1,.37.37v6A.37.37,0,0,1,8.78,8.94Z" transform="translate(0 0)"/><path class="cls-2" d="M30,30.55H24a.38.38,0,1,1,0-.75h6a.38.38,0,0,1,0,.75Z" transform="translate(0 0)"/><path class="cls-2" d="M27,33.55a.38.38,0,0,1-.38-.38v-6A.38.38,0,0,1,27,26.8a.37.37,0,0,1,.37.37v6A.37.37,0,0,1,27,33.55Z" transform="translate(0 0)"/><path class="cls-2" d="M30.35,50h-6a.38.38,0,0,1,0-.75h6a.38.38,0,1,1,0,.75Z" transform="translate(0 0)"/><path class="cls-2" d="M27.35,53a.38.38,0,0,1-.37-.37v-6a.38.38,0,1,1,.75,0v6A.38.38,0,0,1,27.35,53Z" transform="translate(0 0)"/><path class="cls-2" d="M23.07,49.65h-6a.38.38,0,0,1-.37-.38.37.37,0,0,1,.37-.37h6a.37.37,0,0,1,.38.37A.38.38,0,0,1,23.07,49.65Z" transform="translate(0 0)"/><path class="cls-2" d="M20.07,52.65a.38.38,0,0,1-.37-.38v-6a.38.38,0,0,1,.75,0v6A.38.38,0,0,1,20.07,52.65Z" transform="translate(0 0)"/><path class="cls-2" d="M14.14,19.57h-6a.38.38,0,1,1,0-.75h6a.38.38,0,0,1,0,.75Z" transform="translate(0 0)"/><path class="cls-2" d="M11.14,22.57a.38.38,0,0,1-.38-.37v-6a.38.38,0,0,1,.38-.38.37.37,0,0,1,.37.38v6A.37.37,0,0,1,11.14,22.57Z" transform="translate(0 0)"/><path class="cls-2" d="M26.6,13.26h-6a.38.38,0,0,1,0-.75h6a.38.38,0,1,1,0,.75Z" transform="translate(0 0)"/><path class="cls-2" d="M23.6,16.26a.38.38,0,0,1-.37-.38v-6a.38.38,0,0,1,.75,0v6A.38.38,0,0,1,23.6,16.26Z" transform="translate(0 0)"/><path class="cls-2" d="M19,37.3H13a.38.38,0,0,1,0-.75h6a.38.38,0,1,1,0,.75Z" transform="translate(0 0)"/><path class="cls-2" d="M16,40.3a.38.38,0,0,1-.37-.38v-6a.38.38,0,0,1,.75,0v6A.38.38,0,0,1,16,40.3Z" transform="translate(0 0)"/><path class="cls-2" d="M13.34,41.89h-6a.38.38,0,1,1,0-.75h6a.38.38,0,0,1,0,.75Z" transform="translate(0 0)"/><path class="cls-2" d="M10.34,44.89a.38.38,0,0,1-.38-.37v-6a.38.38,0,0,1,.38-.38.37.37,0,0,1,.37.38v6A.37.37,0,0,1,10.34,44.89Z" transform="translate(0 0)"/><path class="cls-2" d="M32.33,19.2h-6a.38.38,0,0,1,0-.75h6a.38.38,0,1,1,0,.75Z" transform="translate(0 0)"/><path class="cls-2" d="M29.33,22.2a.37.37,0,0,1-.37-.38v-6a.37.37,0,0,1,.37-.37.38.38,0,0,1,.38.37v6A.38.38,0,0,1,29.33,22.2Z" transform="translate(0 0)"/><path class="cls-2" d="M15.27,2.43H11.38a.24.24,0,0,1-.24-.24A.24.24,0,0,1,11.38,2h3.89a.24.24,0,0,1,.25.24A.25.25,0,0,1,15.27,2.43Z" transform="translate(0 0)"/><path class="cls-2" d="M13.33,4.38a.24.24,0,0,1-.24-.24V.24A.24.24,0,0,1,13.33,0a.24.24,0,0,1,.24.24v3.9A.24.24,0,0,1,13.33,4.38Z" transform="translate(0 0)"/><path class="cls-2" d="M22.73,6.18H18.84a.24.24,0,0,1-.24-.24.24.24,0,0,1,.24-.24h3.89a.24.24,0,0,1,.25.24A.25.25,0,0,1,22.73,6.18Z" transform="translate(0 0)"/><path class="cls-2" d="M20.79,8.13a.25.25,0,0,1-.25-.24V4A.25.25,0,0,1,21,4v3.9A.24.24,0,0,1,20.79,8.13Z" transform="translate(0 0)"/><path class="cls-2" d="M20.66,28.48H16.77a.24.24,0,0,1-.24-.24.24.24,0,0,1,.24-.24h3.89a.25.25,0,0,1,.25.24A.24.24,0,0,1,20.66,28.48Z" transform="translate(0 0)"/><path class="cls-2" d="M18.72,30.43a.25.25,0,0,1-.25-.24v-3.9a.25.25,0,0,1,.49,0v3.9A.24.24,0,0,1,18.72,30.43Z" transform="translate(0 0)"/><path class="cls-2" d="M18.51,44H14.62a.25.25,0,0,1,0-.49h3.89a.25.25,0,1,1,0,.49Z" transform="translate(0 0)"/><path class="cls-2" d="M16.57,45.9a.25.25,0,0,1-.25-.25V41.76a.25.25,0,0,1,.49,0v3.89A.25.25,0,0,1,16.57,45.9Z" transform="translate(0 0)"/><path class="cls-2" d="M34.72,4h-3.9a.24.24,0,0,1,0-.48h3.9a.24.24,0,1,1,0,.48Z" transform="translate(0 0)"/><path class="cls-2" d="M32.77,5.94a.24.24,0,0,1-.24-.24V1.8a.24.24,0,1,1,.48,0V5.7A.24.24,0,0,1,32.77,5.94Z" transform="translate(0 0)"/><path class="cls-2" d="M33.71,25.62H29.82a.25.25,0,1,1,0-.49h3.89a.25.25,0,0,1,0,.49Z" transform="translate(0 0)"/><path class="cls-2" d="M31.76,27.57a.25.25,0,0,1-.24-.25V23.43a.25.25,0,0,1,.49,0v3.89A.25.25,0,0,1,31.76,27.57Z" transform="translate(0 0)"/><path class="cls-2" d="M23,33.79h-3.9a.24.24,0,0,1,0-.48H23a.24.24,0,0,1,0,.48Z" transform="translate(0 0)"/><path class="cls-2" d="M21,35.74a.24.24,0,0,1-.24-.24V31.6a.24.24,0,1,1,.48,0v3.9A.24.24,0,0,1,21,35.74Z" transform="translate(0 0)"/><path class="cls-2" d="M33.22,35.73H29.33a.25.25,0,0,1,0-.49h3.89a.25.25,0,1,1,0,.49Z" transform="translate(0 0)"/><path class="cls-2" d="M31.28,37.67a.25.25,0,0,1-.25-.24V33.54a.25.25,0,1,1,.49,0v3.89A.24.24,0,0,1,31.28,37.67Z" transform="translate(0 0)"/><path class="cls-2" d="M14.59,48.7H10.7a.24.24,0,1,1,0-.48h3.89a.24.24,0,0,1,0,.48Z" transform="translate(0 0)"/><path class="cls-2" d="M12.64,50.65a.24.24,0,0,1-.24-.24v-3.9a.24.24,0,0,1,.24-.24.24.24,0,0,1,.24.24v3.9A.24.24,0,0,1,12.64,50.65Z" transform="translate(0 0)"/><path class="cls-2" d="M33,44.32H29.09a.24.24,0,0,1-.25-.24.25.25,0,0,1,.25-.24H33a.24.24,0,0,1,.24.24A.24.24,0,0,1,33,44.32Z" transform="translate(0 0)"/><path class="cls-2" d="M31,46.27a.24.24,0,0,1-.24-.24v-3.9a.25.25,0,0,1,.49,0V46A.25.25,0,0,1,31,46.27Z" transform="translate(0 0)"/><path class="cls-2" d="M33.47,13.5h-3.9a.24.24,0,0,1-.24-.24.24.24,0,0,1,.24-.24h3.9a.24.24,0,0,1,.24.24A.24.24,0,0,1,33.47,13.5Z" transform="translate(0 0)"/><path class="cls-2" d="M31.52,15.45a.25.25,0,0,1-.24-.25V11.31a.24.24,0,0,1,.48,0V15.2A.25.25,0,0,1,31.52,15.45Z" transform="translate(0 0)"/><path class="cls-2" d="M10.72,13.74H6.83a.24.24,0,0,1-.24-.24.24.24,0,0,1,.24-.24h3.89a.25.25,0,0,1,.25.24A.24.24,0,0,1,10.72,13.74Z" transform="translate(0 0)"/><path class="cls-2" d="M8.78,15.69a.24.24,0,0,1-.24-.24V11.56a.24.24,0,0,1,.24-.25.25.25,0,0,1,.24.25v3.89A.24.24,0,0,1,8.78,15.69Z" transform="translate(0 0)"/><path class="cls-2" d="M19.87,17.88H16a.25.25,0,1,1,0-.49h3.89a.25.25,0,0,1,0,.49Z" transform="translate(0 0)"/><path class="cls-2" d="M17.92,19.83a.25.25,0,0,1-.24-.25V15.69a.25.25,0,0,1,.49,0v3.89A.25.25,0,0,1,17.92,19.83Z" transform="translate(0 0)"/><path class="cls-2" d="M16.78,23.43h-3.9a.25.25,0,0,1,0-.49h3.9a.25.25,0,0,1,0,.49Z" transform="translate(0 0)"/><path class="cls-2" d="M14.83,25.38a.25.25,0,0,1-.24-.25V21.24a.24.24,0,0,1,.24-.24.24.24,0,0,1,.24.24v3.89A.24.24,0,0,1,14.83,25.38Z" transform="translate(0 0)"/><path class="cls-2" d="M19.88,11.18h-9a.56.56,0,1,1,0-1.12h9a.56.56,0,1,1,0,1.12Z" transform="translate(0 0)"/><path class="cls-2" d="M15.39,15.67a.56.56,0,0,1-.56-.56v-9a.56.56,0,1,1,1.12,0v9A.56.56,0,0,1,15.39,15.67Z" transform="translate(0 0)"/><path class="cls-2" d="M27.47,23.75h-9a.56.56,0,1,1,0-1.12h9a.56.56,0,1,1,0,1.12Z" transform="translate(0 0)"/><path class="cls-2" d="M23,28.24a.56.56,0,0,1-.56-.56v-9a.56.56,0,0,1,1.12,0v9A.56.56,0,0,1,23,28.24Z" transform="translate(0 0)"/><path class="cls-2" d="M28.47,40.86h-9a.56.56,0,0,1,0-1.12h9a.56.56,0,0,1,0,1.12Z" transform="translate(0 0)"/><path class="cls-2" d="M24,45.35a.56.56,0,0,1-.56-.56v-9a.56.56,0,0,1,1.12,0v9A.56.56,0,0,1,24,45.35Z" transform="translate(0 0)"/><path class="cls-2" d="M33.15,7.8h-9a.56.56,0,1,1,0-1.12h9a.56.56,0,1,1,0,1.12Z" transform="translate(0 0)"/><path class="cls-2" d="M28.66,12.29a.56.56,0,0,1-.56-.56v-9a.56.56,0,1,1,1.12,0v9A.56.56,0,0,1,28.66,12.29Z" transform="translate(0 0)"/><path class="cls-2" d="M16,31H7a.56.56,0,0,1,0-1.12h9A.56.56,0,0,1,16,31Z" transform="translate(0 0)"/><path class="cls-2" d="M11.51,35.48a.56.56,0,0,1-.56-.56v-9a.56.56,0,0,1,.56-.56.57.57,0,0,1,.57.56v9A.57.57,0,0,1,11.51,35.48Z" transform="translate(0 0)"/></g></g></g></svg>