<svg xmlns="http://www.w3.org/2000/svg" viewBox="0 0 81.1 10.06"><defs><style>.cls-1{fill:#fff;}</style></defs><g id="Ebene_2" data-name="Ebene 2"><g id="Ebene_28" data-name="Ebene 28"><path class="cls-1" d="M4.77,10H.57C.19,10,0,9.89,0,9.58V.46Q0,0,.57,0H4.81l.41,0a2.47,2.47,0,0,1,.43.11A1.69,1.69,0,0,1,6,.27c.06,0,.22.13.47.3a1.59,1.59,0,0,1,.71,1.28V3.51a1.55,1.55,0,0,1,0,.31,1.82,1.82,0,0,1-.11.3l-.15.28a2.34,2.34,0,0,1-.22.23L6.23,5l.43.4a2.2,2.2,0,0,1,.2.23A1.17,1.17,0,0,1,7,5.91a1.18,1.18,0,0,1,.1.3,1.45,1.45,0,0,1,0,.3V8.2a1.62,1.62,0,0,1-.71,1.29c-.13.1-.26.17-.37.24a3,3,0,0,1-.41.18,3.77,3.77,0,0,1-.43.1,2.43,2.43,0,0,1-.38,0ZM2.35,4.09H4.77V1.85H2.35Zm0,4.09H4.77V5.94H2.35Z"/><path class="cls-1" d="M15,9.66c-.1-.41-.25-1-.46-1.86H12c-.1.42-.25,1-.46,1.86-.07.25-.26.37-.58.37H9.65l-.11,0L9.42,10l-.1-.09L9.26,9.8,9.2,9.7a.61.61,0,0,1,0-.22c.52-2,1.3-5.06,2.33-9.1.05-.25.24-.37.56-.37h2.36c.32,0,.51.12.58.37q.76,3,2.31,9.1s0,.07,0,.1h0s0,.07,0,.11l-.06.1s0,0-.07.06a.26.26,0,0,1-.09.09L17,10l-.11,0H15.56C15.23,10,15,9.91,15,9.66ZM14,6l-.75-3c-.18.66-.43,1.66-.77,3Z"/><path class="cls-1" d="M23.27,10H20.9a2.28,2.28,0,0,1-.45,0L20,9.91l-.32-.14a3.23,3.23,0,0,1-.46-.29,1.61,1.61,0,0,1-.71-1.3V7.83q0-.45.57-.45h1.21q.57,0,.57.45v.35h2.38V5.94H20.9l-.45,0A1.74,1.74,0,0,1,20,5.8a1.35,1.35,0,0,1-.32-.12l-.46-.3a1.59,1.59,0,0,1-.71-1.29V1.85A1.62,1.62,0,0,1,19.25.57a2.19,2.19,0,0,1,.37-.25A2.54,2.54,0,0,1,20,.14,2.38,2.38,0,0,1,20.45,0l.41,0h2.41l.45,0a2.17,2.17,0,0,1,.42.11,1.56,1.56,0,0,1,.32.13,4.8,4.8,0,0,1,.46.3,1.59,1.59,0,0,1,.71,1.28v.3c0,.31-.19.47-.58.47H23.86c-.39,0-.59-.16-.59-.47v-.3H20.89V4.09h2.38a3.29,3.29,0,0,1,.45,0l.42.11a2.21,2.21,0,0,1,.32.14,4,4,0,0,1,.46.29,1.59,1.59,0,0,1,.71,1.28V8.2a1.57,1.57,0,0,1-.71,1.29,2.68,2.68,0,0,1-.37.25,2.75,2.75,0,0,1-.83.27,2.43,2.43,0,0,1-.38,0Z"/><path class="cls-1" d="M34,.66,31.25,5,34,9.37a.34.34,0,0,1,0,.11.5.5,0,0,1,0,.12.2.2,0,0,1,0,.11.41.41,0,0,1-.07.11l-.09.1-.13.07-.13,0H32l-.15,0a.58.58,0,0,1-.12-.1.4.4,0,0,1-.1-.12L29.24,6V9.58c0,.31-.19.46-.58.46H27.47c-.39,0-.58-.15-.58-.46V.46c0-.3.19-.45.58-.45h1.2q.57,0,.57.45V4.09L31.62.27a.64.64,0,0,1,.1-.13l.12-.08A.65.65,0,0,1,32,0h1.63l.12,0a.57.57,0,0,1,.13.08.31.31,0,0,1,.1.1A.35.35,0,0,1,34,.32a.27.27,0,0,1,0,.12v0a.24.24,0,0,1,0,.09A.22.22,0,0,1,34,.66Z"/><path class="cls-1" d="M41,10.06H37.61a1.87,1.87,0,0,1-.34,0,2,2,0,0,1-.41-.1,1.35,1.35,0,0,1-.32-.12l-.43-.27a1.55,1.55,0,0,1-.66-1.25V.49c0-.31.2-.47.59-.47H41c.39,0,.59.16.59.47v.92c0,.31-.2.47-.59.47H37.8V4.11h2.64c.39,0,.59.15.59.46v.95c0,.3-.2.45-.59.45H37.8V8.21H41c.39,0,.58.15.58.46V9.6C41.6,9.91,41.41,10.06,41,10.06Z"/><path class="cls-1" d="M49,1.85H47.26V9.58c0,.31-.19.46-.58.46H45.49c-.4,0-.59-.15-.59-.46V1.85H43.15c-.39,0-.59-.15-.59-.45V.46c0-.3.2-.45.59-.45H49c.4,0,.59.15.59.45V1.4C49.6,1.7,49.41,1.85,49,1.85Z"/><path class="cls-1" d="M55.12,10H50.93c-.39,0-.58-.15-.58-.46V.46c0-.3.19-.45.58-.45h4.24l.41,0A2.62,2.62,0,0,1,56,.14a1.42,1.42,0,0,1,.31.13,4.45,4.45,0,0,1,.47.3,1.59,1.59,0,0,1,.71,1.28V3.51a1.55,1.55,0,0,1,0,.31,1.21,1.21,0,0,1-.11.3,1.51,1.51,0,0,1-.15.28,1.56,1.56,0,0,1-.22.23L56.59,5l.42.4.21.23q.08.12.15.27a1.71,1.71,0,0,1,.09.3,1.45,1.45,0,0,1,0,.3V8.2a1.62,1.62,0,0,1-.71,1.29,3.28,3.28,0,0,1-.37.24,2.54,2.54,0,0,1-.41.18,4.19,4.19,0,0,1-.42.1l-.39,0ZM52.71,4.09h2.41V1.85H52.71Zm0,4.09h2.41V5.94H52.71Z"/><path class="cls-1" d="M64.48,9.66c-.1-.41-.26-1-.47-1.86H61.54c-.1.42-.26,1-.47,1.86-.06.25-.25.37-.57.37H59.16l-.11,0L58.93,10l-.1-.09s0,0-.07-.06l0-.1a.31.31,0,0,1,0-.22c.52-2,1.29-5.06,2.32-9.1.06-.25.24-.37.56-.37H64c.32,0,.51.12.57.37q.77,3,2.31,9.1a.44.44,0,0,1,0,.1h0a.43.43,0,0,1,0,.11l0,.1s0,0-.07.06a.28.28,0,0,1-.1.09l-.11.05-.11,0H65.06C64.74,10,64.54,9.91,64.48,9.66ZM63.53,6q-.24-1-.75-3c-.17.66-.43,1.66-.76,3Z"/><path class="cls-1" d="M73.31,10H70.22a1.87,1.87,0,0,1-.34,0,2.36,2.36,0,0,1-.43-.09l-.3-.12c-.06,0-.21-.12-.45-.28A1.53,1.53,0,0,1,68,8.28V.46c0-.3.2-.45.59-.45h1.19c.39,0,.59.15.59.45V8.18h2.9c.38,0,.57.16.57.47v.93C73.88,9.89,73.69,10,73.31,10Z"/><path class="cls-1" d="M80.53,10H77.44a1.87,1.87,0,0,1-.34,0,2.36,2.36,0,0,1-.43-.09l-.3-.12c-.06,0-.21-.12-.45-.28a1.53,1.53,0,0,1-.66-1.24V.46c0-.3.2-.45.59-.45H77c.39,0,.59.15.59.45V8.18h2.9c.38,0,.57.16.57.47v.93C81.1,9.89,80.91,10,80.53,10Z"/></g></g></svg>