<svg xmlns="http://www.w3.org/2000/svg" viewBox="0 0 633.77 163.83"><defs><style>.cls-1{isolation:isolate;}.cls-2{opacity:0.1;mix-blend-mode:multiply;}.cls-3,.cls-4{stroke:#000;}.cls-10,.cls-11,.cls-3,.cls-4{stroke-miterlimit:10;}.cls-11,.cls-4{fill:none;}.cls-5{fill:#ffd800;}.cls-6{opacity:0.4;mix-blend-mode:overlay;}.cls-10,.cls-7{fill:#fff;}.cls-8{fill:#af9561;}.cls-9{fill:#969696;}.cls-10,.cls-11{stroke:#969696;}.cls-12{fill:#b3b3b3;}</style></defs><g class="cls-1"><g id="Ebene_2" data-name="Ebene 2"><g id="Ebene_23" data-name="Ebene 23"><g class="cls-2"><polygon points="633.77 127.84 179.4 153.09 6.45 66.5 460.83 41.25 633.77 127.84"/><polygon points="377.26 142.09 377.99 142.05 508.46 65.09 508.1 64.91 377.26 142.09"/><polygon points="366.38 142.7 367.11 142.66 503.13 62.43 502.77 62.24 366.38 142.7"/><polygon points="388.14 141.49 388.88 141.45 513.79 67.76 513.43 67.58 388.14 141.49"/><polygon points="355.5 143.3 356.23 143.26 497.8 59.76 497.44 59.58 355.5 143.3"/><polygon points="399.02 140.88 399.76 140.84 519.12 70.43 518.76 70.25 399.02 140.88"/><polygon points="432.4 139.03 535.11 78.44 534.75 78.26 431.66 139.07 432.4 139.03"/><polygon points="420.78 139.68 421.52 139.63 529.78 75.77 529.42 75.59 420.78 139.68"/><polygon points="409.9 140.28 410.64 140.24 524.45 73.1 524.09 72.92 409.9 140.28"/><polygon points="89.43 61.89 47.1 86.86 47.47 87.04 90.17 61.85 89.43 61.89"/><polygon points="187.36 56.45 95.08 110.88 95.44 111.06 188.1 56.41 187.36 56.45"/><polygon points="9.79 68.17 10.15 68.35 14 66.08 13.26 66.12 9.79 68.17"/><polygon points="41.77 84.19 42.13 84.37 79.29 62.45 78.55 62.49 41.77 84.19"/><polygon points="20.45 73.51 20.81 73.69 35.76 64.87 35.03 64.91 20.45 73.51"/><polygon points="101.05 61.24 100.31 61.28 52.44 89.53 52.8 89.71 101.05 61.24"/><polygon points="15.12 70.84 15.48 71.02 24.88 65.48 24.14 65.52 15.12 70.84"/><polygon points="36.44 81.52 36.8 81.7 68.41 63.06 67.67 63.1 36.44 81.52"/><polygon points="31.11 78.85 31.47 79.03 57.52 63.66 56.79 63.7 31.11 78.85"/><polygon points="25.78 76.18 26.14 76.36 46.64 64.27 45.91 64.31 25.78 76.18"/><polygon points="89.75 108.21 90.11 108.39 177.22 57.01 176.48 57.05 89.75 108.21"/><polygon points="573.12 131.21 573.85 131.17 604.42 113.14 604.05 112.96 573.12 131.21"/><polygon points="562.23 131.81 562.97 131.77 599.09 110.47 598.72 110.29 562.23 131.81"/><polygon points="584.73 130.56 609.75 115.81 609.39 115.63 584 130.6 584.73 130.56"/><polygon points="551.35 132.42 552.09 132.38 593.75 107.8 593.39 107.62 551.35 132.42"/><polygon points="627.52 128.18 628.26 128.14 631.07 126.48 630.71 126.3 627.52 128.18"/><polygon points="616.64 128.79 617.38 128.75 625.74 123.81 625.38 123.63 616.64 128.79"/><polygon points="540.47 133.02 541.21 132.98 588.42 105.13 588.06 104.95 540.47 133.02"/><polygon points="606.5 129.35 620.41 121.15 620.05 120.97 605.76 129.39 606.5 129.35"/><polygon points="594.88 130 595.61 129.96 615.08 118.48 614.72 118.3 594.88 130"/><polygon points="486.07 136.05 486.8 136.01 561.77 91.79 561.41 91.61 486.07 136.05"/><polygon points="442.54 138.47 443.28 138.43 540.45 81.11 540.08 80.93 442.54 138.47"/><polygon points="464.31 137.26 465.04 137.22 551.11 86.45 550.75 86.27 464.31 137.26"/><polygon points="475.92 136.61 556.44 89.12 556.08 88.94 475.19 136.65 475.92 136.61"/><polygon points="453.42 137.86 454.16 137.82 545.78 83.78 545.41 83.6 453.42 137.86"/><polygon points="496.95 135.44 497.68 135.4 567.1 94.45 566.74 94.27 496.95 135.44"/><polygon points="518.71 134.23 519.45 134.19 577.76 99.79 577.4 99.61 518.71 134.23"/><polygon points="508.57 134.8 572.43 97.12 572.07 96.94 507.83 134.84 508.57 134.8"/><polygon points="530.33 133.59 583.09 102.46 582.73 102.28 529.59 133.63 530.33 133.59"/><polygon points="137.73 132.23 138.09 132.41 275.14 51.57 274.41 51.61 137.73 132.23"/><polygon points="405.72 44.31 404.98 44.35 224.92 150.56 225.66 150.52 405.72 44.31"/><polygon points="394.83 44.91 394.1 44.95 214.04 151.17 214.78 151.13 394.83 44.91"/><polygon points="416.6 43.7 415.86 43.74 235.81 149.96 236.54 149.92 416.6 43.7"/><polygon points="427.48 43.1 426.74 43.14 246.69 149.35 247.42 149.31 427.48 43.1"/><polygon points="362.19 46.73 361.46 46.77 181.4 152.98 182.14 152.94 362.19 46.73"/><polygon points="438.36 42.49 437.62 42.54 257.57 148.75 258.3 148.71 438.36 42.49"/><polygon points="351.31 47.33 350.57 47.37 175.05 150.91 175.41 151.09 351.31 47.33"/><polygon points="373.07 46.12 372.34 46.16 192.28 152.38 193.02 152.34 373.07 46.12"/><polygon points="383.95 45.52 383.22 45.56 203.16 151.77 203.9 151.73 383.95 45.52"/><polygon points="481.81 51.75 481.44 51.57 322.85 145.12 323.59 145.08 481.81 51.75"/><polygon points="476.47 49.08 476.11 48.9 311.97 145.72 312.71 145.68 476.47 49.08"/><polygon points="340.43 47.94 339.69 47.98 169.72 148.25 170.08 148.43 340.43 47.94"/><polygon points="487.14 54.42 486.77 54.24 333.73 144.51 334.47 144.47 487.14 54.42"/><polygon points="492.47 57.09 492.11 56.91 344.61 143.91 345.35 143.87 492.47 57.09"/><polygon points="465.81 43.74 465.45 43.56 290.21 146.93 290.95 146.89 465.81 43.74"/><polygon points="460.12 41.28 459.38 41.33 279.33 147.54 280.06 147.5 460.12 41.28"/><polygon points="449.24 41.89 448.5 41.93 268.45 148.14 269.19 148.1 449.24 41.89"/><polygon points="471.14 46.41 470.78 46.23 301.09 146.33 301.83 146.29 471.14 46.41"/><polygon points="116.41 121.55 116.77 121.73 231.62 53.99 230.88 54.03 116.41 121.55"/><polygon points="198.98 55.8 198.24 55.84 100.41 113.55 100.78 113.73 198.98 55.8"/><polygon points="57.77 92.19 58.13 92.38 111.93 60.64 111.19 60.68 57.77 92.19"/><polygon points="220.74 54.59 220 54.63 111.08 118.89 111.44 119.07 220.74 54.59"/><polygon points="63.1 94.86 63.46 95.04 122.81 60.03 122.07 60.08 63.1 94.86"/><polygon points="209.12 55.24 105.75 116.22 106.11 116.4 209.86 55.2 209.12 55.24"/><polygon points="329.55 48.54 328.81 48.58 164.38 145.58 164.75 145.76 329.55 48.54"/><polygon points="73.76 100.2 74.12 100.38 144.57 58.82 143.84 58.87 73.76 100.2"/><polygon points="68.43 97.53 68.79 97.71 133.69 59.43 132.96 59.47 68.43 97.53"/><polygon points="79.09 102.87 79.45 103.05 155.45 58.22 154.72 58.26 79.09 102.87"/><polygon points="148.39 137.57 148.75 137.75 296.91 50.36 296.17 50.4 148.39 137.57"/><polygon points="317.93 49.19 159.05 142.91 159.41 143.09 318.67 49.15 317.93 49.19"/><polygon points="153.72 140.24 154.08 140.42 307.79 49.75 307.05 49.79 153.72 140.24"/><polygon points="143.06 134.9 143.42 135.08 286.03 50.96 285.29 51 143.06 134.9"/><polygon points="84.42 105.54 84.78 105.72 166.34 57.61 165.6 57.66 84.42 105.54"/><polygon points="121.74 124.22 122.1 124.4 242.5 53.38 241.76 53.42 121.74 124.22"/><polygon points="252.65 52.82 127.07 126.89 127.43 127.07 253.38 52.78 252.65 52.82"/><polygon points="264.26 52.17 263.53 52.21 132.4 129.56 132.76 129.74 264.26 52.17"/><path d="M586.74,120.2,189.57,142.27,53.49,74.14,450.65,52.06Zm-396.5,21.38,393.45-21.87L450,52.76,56.53,74.63Z"/><polygon points="388.49 130.89 386.63 130.99 252.47 63.82 254.33 63.72 388.49 130.89"/><path d="M219.71,133.71,178.12,136l-1.19-.59,41.6-2.31c43.34-2.41,54-16.69,23.72-31.84S152.12,75.76,108.79,78.17l-41.6,2.31L66,79.89l41.59-2.31C152,75.11,213.2,85.7,244.11,101.17S264.08,131.25,219.71,133.71Z"/><path d="M338.77,106.51c-16.15.9-37.66-2.56-47.95-7.71s-5.52-10.07,10.63-11,37.66,2.56,47.95,7.71S354.92,105.61,338.77,106.51ZM302.64,88.42c-15.13.84-19.59,5.45-10,10.27s29.78,8.07,44.9,7.23,19.6-5.45,10-10.28S317.76,87.58,302.64,88.42Z"/><path d="M225.34,112.77c-2.87,0-5.89-.07-9-.27l-.69-1.17c2.71.17,5.36.26,7.88.24Zm-16-.9c-3.13-.36-6.24-.82-9.24-1.37l1.31-.92c2.62.48,5.35.88,8.1,1.2Zm-15.72-2.74c-2.76-.67-5.3-1.41-7.55-2.2l3.08-.48a67.76,67.76,0,0,0,6.59,1.92Zm-12.07-4-.49-.25a17.65,17.65,0,0,1-3.65-2.31l4.18.09a15.78,15.78,0,0,0,3.19,2l.44.21Zm-1.3-4.13-4.38-.33a2.33,2.33,0,0,1,.16-2.34l4.36.62A2.06,2.06,0,0,0,180.25,101Zm1.66-3.4-4.15-.81a17,17,0,0,1,4.31-1.64l3.61,1A15,15,0,0,0,181.91,97.56Zm7.78-2.2-3.06-1.12c1-.15,2.14-.27,3.29-.37L192.58,95C191.57,95.13,190.6,95.23,189.69,95.36Z"/><path d="M230,112.55l-.92.06L191.79,93.92l.93,0c16.15-.9,37.66,2.56,47.95,7.71S246.18,111.66,230,112.55ZM194.84,94.42l34.93,17.48c14.38-1,18.47-5.49,9-10.21S209.85,93.76,194.84,94.42Z"/><polygon points="193.74 94.47 94.79 94.39 93.95 93.79 192.89 93.87 193.74 94.47"/><polygon points="151.29 122.5 149.8 121.93 228.7 111.97 230.19 112.54 151.29 122.5"/><path d="M573.43,114.05l-41.6,2.31c-44.36,2.47-105.6-8.12-136.51-23.59s-20-30.07,24.4-32.54l41.59-2.31,1.19.59-41.6,2.31c-43.33,2.41-54,16.7-23.72,31.85s90.13,25.51,133.46,23.1l41.6-2.31Z"/><path d="M452,100.17,449.14,99a38.48,38.48,0,0,0,5.45-1l3.66,1A43.11,43.11,0,0,1,452,100.17Zm9.56-2.32L457.53,97a4.91,4.91,0,0,0,2.17-1.77l4.37.61A5.61,5.61,0,0,1,461.6,97.85Zm2.72-3.77-4.4-.39a4.44,4.44,0,0,0-1.64-2.19l4.17.07A5.2,5.2,0,0,1,464.32,94.08Zm-4.88-4.44-3.77.18-.43-.22a37.29,37.29,0,0,0-4.7-1.93l3-.49A43,43,0,0,1,459,89.4Zm-13.77-3.43c-2.33-.61-4.85-1.15-7.5-1.63l1.25-.93c3,.54,5.91,1.17,8.57,1.86Zm-13.56-2.55c-2.73-.35-5.49-.61-8.2-.78l-.76-1.17c3.09.19,6.24.48,9.36.88Zm-14.16-1c-1.17,0-2.33,0-3.46,0l-2.05-1.19c1.27,0,2.6-.05,3.93,0Z"/><path d="M448.43,100.41l-.93.06c-16.15.89-37.66-2.57-47.94-7.72s-5.52-10.07,10.63-11l.93,0Zm-38-18c-14.38,1-18.47,5.5-9,10.22s29,7.93,44,7.27Z"/><polygon points="411.52 82.36 410.04 81.8 488.94 71.84 490.43 72.41 411.52 82.36"/><polygon points="546.27 100.55 447.33 100.47 446.49 99.87 545.43 99.94 546.27 100.55"/><polygon points="179.41 120.21 177.56 120.32 175.04 119.06 176.9 118.95 179.41 120.21"/><polygon points="191.26 118.77 189.4 118.88 186.89 117.62 188.75 117.52 191.26 118.77"/><polygon points="203.11 117.21 201.25 117.31 198.74 116.05 200.59 115.95 203.11 117.21"/><polygon points="127.23 94.08 125.37 94.19 122.85 92.93 124.71 92.83 127.23 94.08"/><polygon points="141.88 94.05 140.02 94.15 137.5 92.89 139.37 92.79 141.88 94.05"/><polygon points="156.96 94.1 155.1 94.2 152.59 92.95 154.45 92.84 156.96 94.1"/><polygon points="6.45 76.71 182.98 163.83 633.77 138.77 633.77 127.84 179.4 153.09 6.45 66.5 6.45 76.71"/><path d="M525.1,50.71V84.6h1.61V35.71l-.8-.8H511.24v.8l-.57.57Zm0-14.19V48.43L513.19,36.52Z"/><polygon class="cls-3" points="489.9 13.7 489.9 38.19 528.48 58.05 528.48 32.48 489.9 13.7"/><polyline class="cls-4" points="500.45 44 500.53 33.67 516.16 40.81 516.07 51.46"/><path d="M494.66,49.61a.58.58,0,0,0,0,.19.83.83,0,0,0,.24.54,42.07,42.07,0,0,1,1.22,8.53h.53c0-.16,0-1.54-.25-3.4a5.85,5.85,0,0,0,1.72.64c.25,2,.31,3.38.32,3.42l.53,0c0-.15-.06-1.44-.28-3.29a15.39,15.39,0,0,0,2.41.23v3.67h.54V56.45a18.66,18.66,0,0,0,2.4-.19c-.21,1.81-.27,3.09-.28,3.24l.54,0s.06-1.4.3-3.37a6.57,6.57,0,0,0,1.72-.55c-.2,1.79-.24,3.11-.24,3.26h.54s0-1.6.3-3.69a.87.87,0,0,0,.28-.62.82.82,0,0,0-.14-.44,33.85,33.85,0,0,1,.7-3.53,1,1,0,0,0,.55-.79.73.73,0,0,0-.18-.47,9.31,9.31,0,0,1,2.3-4l-.35-.41A9.57,9.57,0,0,0,507.66,49a6,6,0,0,0-1.48-.57,16.82,16.82,0,0,1,2.29-4.86L508,43.2a18.08,18.08,0,0,0-2.39,5.06,21.6,21.6,0,0,0-4-.37v-5h-.54v5a20.1,20.1,0,0,0-4,.42,17.76,17.76,0,0,0-2.41-5.11l-.43.32a17.36,17.36,0,0,1,2.31,4.92,4.56,4.56,0,0,0-1.46.64,9.76,9.76,0,0,0-2.44-4.21l-.35.41A9.71,9.71,0,0,1,494.66,49.61Zm.9,1.2a7.92,7.92,0,0,0,1.73.53q.19.91.36,1.8a4.2,4.2,0,0,0-1.5.69C496,52.86,495.81,51.82,495.56,50.81Zm6.05.89a22.91,22.91,0,0,0,3.18-.22c-.1.5-.2,1-.29,1.48a15.65,15.65,0,0,0-2.89-.28Zm-.54,1a16.17,16.17,0,0,0-2.89.32c-.09-.51-.19-1-.31-1.56a22.66,22.66,0,0,0,3.2.26ZM496.67,49c.18.6.34,1.2.48,1.81a5.09,5.09,0,0,1-1.78-.67c0-.15-.09-.3-.14-.46A3.14,3.14,0,0,1,496.67,49Zm4.4-.52v2.73a21.48,21.48,0,0,1-3.33-.29c-.15-.68-.33-1.37-.53-2A20.1,20.1,0,0,1,501.07,48.43Zm4.41.35c-.21.71-.4,1.42-.56,2.13a20.79,20.79,0,0,1-3.31.25V48.43A21.08,21.08,0,0,1,505.48,48.78Zm2,.68c-.08.27-.16.54-.23.81a7.64,7.64,0,0,1-1.75.54c.15-.64.32-1.28.51-1.91A4.88,4.88,0,0,1,507.49,49.46Zm-.4,1.46c-.23.93-.41,1.86-.55,2.75a5,5,0,0,0-1.5-.59c.1-.56.21-1.12.34-1.7A8.92,8.92,0,0,0,507.09,50.92Zm-2.45,4.72c.08-.65.19-1.35.31-2.08a3.87,3.87,0,0,1,1.51.65c0,.27-.07.53-.1.79A5,5,0,0,1,504.64,55.64Zm-3,.31V53.17a14.7,14.7,0,0,1,2.81.27c-.15.82-.26,1.6-.35,2.31A14.65,14.65,0,0,1,501.61,56Zm-3-.24c-.09-.69-.2-1.44-.33-2.23a14,14,0,0,1,2.8-.3V56A15.19,15.19,0,0,1,498.6,55.71Zm-2.32-1,0-.26c.09-.28.61-.6,1.48-.85.12.69.22,1.35.3,2A3,3,0,0,1,496.28,54.73Z"/><path d="M501.34,43.33c5.53,0,8.54,1.16,9.08,1.75-.54.58-3.55,1.74-9.08,1.74s-8.55-1.16-9.09-1.74c.54-.59,3.55-1.75,9.09-1.75m0-1.07c-5.64,0-10.21,1.26-10.21,2.82s4.57,2.82,10.21,2.82,10.2-1.27,10.2-2.82-4.57-2.82-10.2-2.82Z"/><polyline class="cls-4" points="118.33 71.96 118.41 61.62 134.04 68.77 133.95 79.42"/><path d="M144,73.23l-.36-.4A9.74,9.74,0,0,0,141.2,77a4.25,4.25,0,0,0-1.46-.64,17.16,17.16,0,0,1,2.31-4.93l-.43-.31a17.7,17.7,0,0,0-2.41,5.1,21,21,0,0,0-4-.41v-5h-.54v5a22.39,22.39,0,0,0-4,.37,17.63,17.63,0,0,0-2.4-5l-.43.31a17,17,0,0,1,2.29,4.87,5.08,5.08,0,0,0-1.48.57,9.61,9.61,0,0,0-2.39-4.08l-.36.4a9.31,9.31,0,0,1,2.3,4,.78.78,0,0,0-.17.47,1,1,0,0,0,.54.79,35,35,0,0,1,.71,3.53.82.82,0,0,0-.14.45.91.91,0,0,0,.28.62c.25,2.08.3,3.64.3,3.69l.54,0c0-.15,0-1.46-.24-3.26a7,7,0,0,0,1.71.56c.24,2,.31,3.33.31,3.36l.54,0c0-.15-.07-1.42-.28-3.24a16.79,16.79,0,0,0,2.4.19v3.66h.54V84.4a16.7,16.7,0,0,0,2.41-.23c-.22,1.84-.28,3.13-.29,3.28l.54,0s.07-1.42.31-3.41a5.8,5.8,0,0,0,1.73-.65c-.21,1.87-.25,3.25-.26,3.4h.54a41.77,41.77,0,0,1,1.21-8.53.76.76,0,0,0,.25-.54.63.63,0,0,0,0-.19A9.58,9.58,0,0,1,144,73.23Zm-3.89,8.55a4.06,4.06,0,0,0-1.49-.69q.16-.89.36-1.8a8.1,8.1,0,0,0,1.73-.53C140.44,79.78,140.25,80.81,140.1,81.78Zm-5.45-1.15a16.47,16.47,0,0,0-2.89.28c-.09-.48-.19-1-.3-1.48a24.66,24.66,0,0,0,3.19.23Zm.54-1a21.37,21.37,0,0,0,3.2-.26c-.12.53-.22,1.06-.32,1.57a15.1,15.1,0,0,0-2.88-.32ZM141,77.59c-.05.15-.09.3-.13.46a4.92,4.92,0,0,1-1.79.66q.22-.9.48-1.8A3,3,0,0,1,141,77.59Zm-2-.81c-.2.68-.38,1.37-.54,2a21.34,21.34,0,0,1-3.32.29V76.39A19.41,19.41,0,0,1,139.05,76.78Zm-4.4-.4v2.74a23.32,23.32,0,0,1-3.31-.25c-.17-.71-.35-1.43-.56-2.14A21,21,0,0,1,134.65,76.38Zm-4.41.47c.19.63.36,1.27.51,1.91a7,7,0,0,1-1.75-.54c-.07-.27-.15-.54-.23-.81A4.77,4.77,0,0,1,130.24,76.85Zm.64,2.48c.12.58.24,1.15.34,1.7a5.52,5.52,0,0,0-1.51.6c-.14-.89-.31-1.83-.54-2.76A8.92,8.92,0,0,0,130.88,79.33Zm-1,3.62c0-.26-.07-.52-.11-.79a4.1,4.1,0,0,1,1.51-.65c.13.74.23,1.44.32,2.09A5,5,0,0,1,129.9,83Zm2.28.76c-.09-.72-.2-1.5-.34-2.32a14.78,14.78,0,0,1,2.81-.26v2.78A16,16,0,0,1,132.18,83.71Zm3,.19V81.13a14,14,0,0,1,2.8.31c-.13.79-.24,1.54-.33,2.22A14.15,14.15,0,0,1,135.19,83.9Zm3-.36c.08-.61.18-1.28.3-2,.86.25,1.38.57,1.48.85l0,.26A3,3,0,0,1,138.23,83.54Z"/><path d="M134.92,71.28c5.54,0,8.55,1.17,9.08,1.75-.53.58-3.54,1.75-9.08,1.75s-8.55-1.17-9.08-1.75c.53-.58,3.54-1.75,9.08-1.75m0-1.07c-5.64,0-10.21,1.26-10.21,2.82s4.57,2.82,10.21,2.82,10.21-1.26,10.21-2.82-4.57-2.82-10.21-2.82Z"/><polygon class="cls-3" points="107.78 41.65 107.78 66.14 146.35 86.01 146.35 60.44 107.78 41.65"/><path d="M125.58,64.24l-.57-.57v-.81H110.35l-.8.81v48.88h1.61V78.66Zm-2.51.23L111.16,76.38V64.47Z"/></g><polygon class="cls-5" points="627.32 114.94 172.95 140.19 0 53.6 454.38 28.35 627.32 114.94"/><g class="cls-6"><polygon points="370.81 129.2 371.54 129.16 502.01 52.2 501.65 52.02 370.81 129.2"/><polygon points="359.93 129.8 360.66 129.76 496.68 49.53 496.32 49.35 359.93 129.8"/><polygon points="381.69 128.59 382.43 128.55 507.34 54.87 506.98 54.69 381.69 128.59"/><polygon points="349.05 130.41 349.78 130.37 491.35 46.86 490.99 46.68 349.05 130.41"/><polygon points="392.57 127.99 393.31 127.94 512.67 57.53 512.31 57.35 392.57 127.99"/><polygon points="425.95 126.13 528.66 65.54 528.3 65.36 425.21 126.17 425.95 126.13"/><polygon points="414.33 126.78 415.07 126.74 523.33 62.87 522.97 62.69 414.33 126.78"/><polygon points="403.45 127.38 404.19 127.34 518 60.2 517.64 60.02 403.45 127.38"/><polygon points="82.98 48.99 40.65 73.96 41.02 74.14 83.72 48.95 82.98 48.99"/><polygon points="180.91 43.55 88.63 97.98 88.99 98.16 181.65 43.51 180.91 43.55"/><polygon points="3.34 55.27 3.7 55.45 7.55 53.18 6.82 53.22 3.34 55.27"/><polygon points="35.32 71.29 35.69 71.47 72.84 49.55 72.1 49.59 35.32 71.29"/><polygon points="14 60.61 14.36 60.79 29.31 51.97 28.58 52.01 14 60.61"/><polygon points="94.6 48.34 93.86 48.39 45.98 76.63 46.35 76.81 94.6 48.34"/><polygon points="8.67 57.94 9.03 58.12 18.43 52.58 17.7 52.62 8.67 57.94"/><polygon points="29.99 68.62 30.35 68.8 61.96 50.16 61.22 50.2 29.99 68.62"/><polygon points="24.66 65.95 25.02 66.13 51.08 50.76 50.34 50.8 24.66 65.95"/><polygon points="19.33 63.28 19.69 63.46 40.19 51.37 39.46 51.41 19.33 63.28"/><polygon points="83.3 95.31 83.66 95.49 170.77 44.11 170.03 44.15 83.3 95.31"/><polygon points="566.67 118.31 567.4 118.27 597.97 100.24 597.61 100.06 566.67 118.31"/><polygon points="555.78 118.92 556.52 118.87 592.64 97.57 592.27 97.39 555.78 118.92"/><polygon points="578.28 117.66 603.3 102.91 602.94 102.73 577.55 117.7 578.28 117.66"/><polygon points="544.9 119.52 545.64 119.48 587.3 94.9 586.94 94.72 544.9 119.52"/><polygon points="621.07 115.29 621.81 115.25 624.62 113.58 624.26 113.4 621.07 115.29"/><polygon points="610.19 115.89 610.93 115.85 619.29 110.92 618.93 110.73 610.19 115.89"/><polygon points="534.02 120.12 534.76 120.08 581.97 92.23 581.61 92.05 534.02 120.12"/><polygon points="600.05 116.45 613.96 108.25 613.6 108.07 599.31 116.5 600.05 116.45"/><polygon points="588.43 117.1 589.16 117.06 608.63 105.58 608.27 105.4 588.43 117.1"/><polygon points="479.62 123.15 480.35 123.11 555.32 78.89 554.96 78.71 479.62 123.15"/><polygon points="436.09 125.57 436.83 125.53 534 68.21 533.63 68.03 436.09 125.57"/><polygon points="457.86 124.36 458.59 124.32 544.66 73.55 544.3 73.37 457.86 124.36"/><polygon points="469.47 123.71 549.99 76.22 549.63 76.04 468.74 123.75 469.47 123.71"/><polygon points="446.98 124.96 447.71 124.92 539.33 70.88 538.97 70.7 446.98 124.96"/><polygon points="490.5 122.54 491.24 122.5 560.65 81.56 560.29 81.38 490.5 122.54"/><polygon points="512.26 121.33 513 121.29 571.31 86.89 570.95 86.71 512.26 121.33"/><polygon points="502.12 121.9 565.98 84.22 565.62 84.05 501.38 121.94 502.12 121.9"/><polygon points="523.88 120.69 576.64 89.56 576.28 89.38 523.14 120.73 523.88 120.69"/><polygon points="131.28 119.33 131.64 119.51 268.69 38.67 267.96 38.71 131.28 119.33"/><polygon points="399.27 31.41 398.53 31.45 218.47 137.66 219.21 137.62 399.27 31.41"/><polygon points="388.39 32.02 387.65 32.06 207.59 138.27 208.33 138.23 388.39 32.02"/><polygon points="410.15 30.81 409.41 30.85 229.35 137.06 230.09 137.02 410.15 30.81"/><polygon points="421.03 30.2 420.29 30.24 240.24 136.45 240.97 136.41 421.03 30.2"/><polygon points="355.74 33.83 355.01 33.87 174.95 140.08 175.69 140.04 355.74 33.83"/><polygon points="431.91 29.6 431.18 29.64 251.12 135.85 251.85 135.81 431.91 29.6"/><polygon points="344.86 34.43 344.13 34.48 168.6 138.02 168.96 138.2 344.86 34.43"/><polygon points="366.63 33.23 365.89 33.27 185.83 139.48 186.57 139.44 366.63 33.23"/><polygon points="377.51 32.62 376.77 32.66 196.71 138.87 197.45 138.83 377.51 32.62"/><polygon points="475.36 38.85 475 38.67 316.4 132.22 317.14 132.18 475.36 38.85"/><polygon points="470.02 36.18 469.66 36 305.52 132.82 306.26 132.78 470.02 36.18"/><polygon points="333.98 35.04 333.25 35.08 163.27 135.35 163.63 135.53 333.98 35.04"/><polygon points="480.69 41.52 480.33 41.34 327.29 131.62 328.02 131.57 480.69 41.52"/><polygon points="486.02 44.19 485.66 44.01 338.17 131.01 338.9 130.97 486.02 44.19"/><polygon points="459.36 30.84 459 30.66 283.76 134.03 284.5 133.99 459.36 30.84"/><polygon points="453.67 28.39 452.94 28.43 272.88 134.64 273.62 134.6 453.67 28.39"/><polygon points="442.79 28.99 442.06 29.03 262 135.24 262.74 135.2 442.79 28.99"/><polygon points="464.69 33.51 464.33 33.33 294.64 133.43 295.38 133.39 464.69 33.51"/><polygon points="109.96 108.66 110.32 108.84 225.17 41.09 224.43 41.13 109.96 108.66"/><polygon points="192.53 42.9 191.79 42.94 93.96 100.65 94.33 100.83 192.53 42.9"/><polygon points="51.32 79.3 51.68 79.48 105.48 47.74 104.74 47.78 51.32 79.3"/><polygon points="214.29 41.69 213.55 41.73 104.63 105.99 104.99 106.17 214.29 41.69"/><polygon points="56.65 81.97 57.01 82.15 116.36 47.13 115.62 47.18 56.65 81.97"/><polygon points="202.67 42.34 99.3 103.32 99.66 103.5 203.41 42.3 202.67 42.34"/><polygon points="323.1 35.64 322.36 35.69 157.94 132.68 158.3 132.86 323.1 35.64"/><polygon points="67.31 87.3 67.67 87.48 138.12 45.92 137.39 45.97 67.31 87.3"/><polygon points="61.98 84.63 62.34 84.81 127.24 46.53 126.51 46.57 61.98 84.63"/><polygon points="72.64 89.97 73 90.15 149 45.32 148.27 45.36 72.64 89.97"/><polygon points="141.94 124.67 142.3 124.85 290.46 37.46 289.72 37.5 141.94 124.67"/><polygon points="311.48 36.29 152.6 130.01 152.97 130.19 312.22 36.25 311.48 36.29"/><polygon points="147.27 127.34 147.63 127.52 301.34 36.85 300.6 36.89 147.27 127.34"/><polygon points="136.61 122 136.97 122.18 279.58 38.06 278.84 38.1 136.61 122"/><polygon points="77.97 92.64 78.33 92.82 159.89 44.72 159.15 44.76 77.97 92.64"/><polygon points="115.29 111.32 115.65 111.51 236.05 40.48 235.31 40.52 115.29 111.32"/><polygon points="246.2 39.92 120.62 113.99 120.98 114.17 246.93 39.88 246.2 39.92"/><polygon points="257.81 39.27 257.08 39.31 125.95 116.66 126.31 116.84 257.81 39.27"/></g><path class="cls-7" d="M580.29,107.3,183.12,129.38,47,61.24,444.2,39.17ZM183.8,128.68l393.44-21.87L443.53,39.86,50.08,61.73Z"/><polygon class="cls-7" points="382.04 117.99 380.18 118.09 246.02 50.92 247.88 50.82 382.04 117.99"/><path class="cls-7" d="M213.27,120.81l-41.6,2.31-1.19-.59,41.6-2.31c43.34-2.41,54-16.69,23.72-31.84S145.67,62.87,102.34,65.27l-41.6,2.32L59.56,67l41.59-2.31c44.37-2.46,105.6,8.12,136.51,23.6S257.63,118.35,213.27,120.81Z"/><path class="cls-7" d="M332.32,93.61c-16.15.9-37.66-2.56-47.95-7.71s-5.52-10.07,10.64-11,37.65,2.56,47.94,7.71S348.47,92.71,332.32,93.61ZM296.19,75.52c-15.12.84-19.59,5.45-10,10.28S316,93.86,331.13,93s19.6-5.45,10-10.27S311.31,74.68,296.19,75.52Z"/><path class="cls-7" d="M218.89,99.87c-2.87,0-5.89-.07-9-.27l-.69-1.17c2.71.18,5.36.26,7.88.24Zm-16-.9c-3.13-.36-6.24-.82-9.24-1.37l1.31-.92c2.62.48,5.35.88,8.1,1.2Zm-15.72-2.74c-2.76-.67-5.3-1.41-7.55-2.2l3.08-.47c2,.68,4.18,1.33,6.59,1.92Zm-12.06-4-.5-.25A17.65,17.65,0,0,1,171,89.63l4.18.09a15.78,15.78,0,0,0,3.19,2l.44.21Zm-1.31-4.12-4.38-.33a2.35,2.35,0,0,1,.16-2.35l4.36.62A2.08,2.08,0,0,0,173.8,88.07Zm1.66-3.41-4.15-.81a17,17,0,0,1,4.31-1.64l3.62,1A15,15,0,0,0,175.46,84.66Zm7.78-2.2-3.06-1.12c1-.14,2.14-.27,3.29-.37l2.66,1.17C185.12,82.23,184.15,82.33,183.24,82.46Z"/><path class="cls-7" d="M223.59,99.66l-.93,0L185.34,81l.93,0c16.15-.89,37.66,2.57,47.95,7.72S239.74,98.76,223.59,99.66ZM188.4,81.52,223.32,99c14.38-1,18.47-5.5,9-10.22S203.4,80.86,188.4,81.52Z"/><polygon class="cls-7" points="187.28 81.57 88.34 81.5 87.5 80.89 186.44 80.97 187.28 81.57"/><polygon class="cls-7" points="144.84 109.6 143.35 109.03 222.25 99.08 223.74 99.64 144.84 109.6"/><path class="cls-7" d="M567,101.15l-41.6,2.31c-44.36,2.47-105.6-8.11-136.51-23.59s-20-30.07,24.4-32.54L454.87,45l1.18.59-41.6,2.32c-43.33,2.4-54,16.69-23.72,31.84s90.13,25.51,133.46,23.1l41.6-2.31Z"/><path class="cls-7" d="M445.59,87.27l-2.89-1.14a38.32,38.32,0,0,0,5.44-1l3.66,1A43.21,43.21,0,0,1,445.59,87.27ZM455.15,85l-4.07-.86a4.91,4.91,0,0,0,2.17-1.77l4.37.61A5.61,5.61,0,0,1,455.15,85Zm2.72-3.77-4.4-.39a4.44,4.44,0,0,0-1.64-2.19l4.17.07A5.2,5.2,0,0,1,457.87,81.18ZM453,76.74l-3.77.18-.42-.22a38.1,38.1,0,0,0-4.71-1.93l3-.49a43.91,43.91,0,0,1,5.39,2.22Zm-13.77-3.43c-2.33-.6-4.85-1.15-7.5-1.63l1.25-.93c3,.54,5.91,1.17,8.57,1.86Zm-13.56-2.55c-2.73-.35-5.49-.61-8.2-.78l-.76-1.17c3.09.19,6.24.48,9.36.88Zm-14.15-1c-1.18,0-2.34,0-3.47,0L406,68.61c1.27,0,2.6,0,3.93,0Z"/><path class="cls-7" d="M442,87.52l-.93,0c-16.15.9-37.66-2.56-47.94-7.72s-5.52-10.07,10.63-11l.93-.06Zm-38-18c-14.38,1-18.47,5.49-9,10.21s28.95,7.93,44,7.27Z"/><polygon class="cls-7" points="405.08 69.47 403.59 68.9 482.49 58.94 483.98 59.51 405.08 69.47"/><polygon class="cls-7" points="539.82 87.65 440.88 87.57 440.04 86.97 538.98 87.04 539.82 87.65"/><polygon class="cls-7" points="172.97 107.31 171.11 107.42 168.59 106.16 170.45 106.06 172.97 107.31"/><polygon class="cls-7" points="184.81 105.88 182.95 105.98 180.44 104.72 182.3 104.62 184.81 105.88"/><polygon class="cls-7" points="196.66 104.31 194.8 104.41 192.29 103.15 194.15 103.05 196.66 104.31"/><polygon class="cls-7" points="120.78 81.19 118.92 81.29 116.41 80.03 118.26 79.93 120.78 81.19"/><polygon class="cls-7" points="135.43 81.15 133.57 81.25 131.06 80 132.92 79.89 135.43 81.15"/><polygon class="cls-7" points="150.51 81.2 148.65 81.31 146.14 80.05 148 79.94 150.51 81.2"/><polygon class="cls-8" points="0 63.81 176.53 150.93 627.32 125.87 627.32 114.94 172.95 140.19 0 53.6 0 63.81"/><path class="cls-9" d="M518.65,37.81V71.7h1.61V22.81l-.8-.8H504.79v.8l-.57.57Zm0-14.19V35.53L506.74,23.62Z"/><polygon class="cls-10" points="483.45 0.8 483.45 25.29 522.03 45.15 522.03 19.58 483.45 0.8"/><polyline class="cls-11" points="494 31.1 494.08 20.77 509.71 27.91 509.62 38.57"/><path class="cls-12" d="M488.21,36.71a.58.58,0,0,0,0,.19.83.83,0,0,0,.24.54A41.28,41.28,0,0,1,489.64,46h.53c0-.15,0-1.54-.25-3.4a5.58,5.58,0,0,0,1.72.64c.25,2,.31,3.38.32,3.42l.53,0c0-.15-.06-1.44-.28-3.28a16.73,16.73,0,0,0,2.41.22v3.67h.54V43.55a17,17,0,0,0,2.4-.19c-.21,1.82-.27,3.09-.28,3.24l.54,0s.06-1.4.3-3.37a6.57,6.57,0,0,0,1.72-.55c-.2,1.79-.24,3.11-.24,3.26h.54s0-1.6.3-3.69a.87.87,0,0,0,.28-.62.82.82,0,0,0-.14-.44,31.52,31.52,0,0,1,.71-3.53,1,1,0,0,0,.54-.79.73.73,0,0,0-.18-.47,9.41,9.41,0,0,1,2.3-4l-.35-.4a9.53,9.53,0,0,0-2.39,4.07,6,6,0,0,0-1.48-.57A16.82,16.82,0,0,1,502,30.62l-.44-.32a18.08,18.08,0,0,0-2.39,5.06,21.6,21.6,0,0,0-4-.37V30h-.54v5a21.68,21.68,0,0,0-4,.42,17.76,17.76,0,0,0-2.41-5.11l-.43.32a17.49,17.49,0,0,1,2.31,4.92,4.35,4.35,0,0,0-1.46.65A9.78,9.78,0,0,0,486.18,32l-.36.4A9.71,9.71,0,0,1,488.21,36.71Zm.9,1.2a7.92,7.92,0,0,0,1.73.53q.2.91.36,1.8a4.2,4.2,0,0,0-1.5.69C489.56,40,489.36,38.93,489.11,37.91Zm6.05.89a22.91,22.91,0,0,0,3.18-.22c-.1.5-.2,1-.29,1.48a15.65,15.65,0,0,0-2.89-.28Zm-.54,1a15.3,15.3,0,0,0-2.89.32c-.09-.51-.19-1-.31-1.57a22.78,22.78,0,0,0,3.2.26Zm-4.4-3.73c.18.59.34,1.2.48,1.8a5.34,5.34,0,0,1-1.78-.66c0-.16-.09-.31-.13-.47A3,3,0,0,1,490.22,36.06Zm4.4-.53v2.73a21.61,21.61,0,0,1-3.33-.28c-.15-.69-.33-1.37-.53-2A20,20,0,0,1,494.62,35.53Zm4.41.35c-.21.71-.4,1.42-.56,2.13a21.91,21.91,0,0,1-3.31.26V35.53A21,21,0,0,1,499,35.88Zm2,.68c-.08.27-.16.54-.23.81a7.64,7.64,0,0,1-1.75.54c.15-.64.32-1.28.51-1.91A4.88,4.88,0,0,1,501,36.56Zm-.4,1.46c-.23.93-.41,1.86-.55,2.75a5,5,0,0,0-1.5-.59c.1-.56.21-1.12.34-1.7A8.92,8.92,0,0,0,500.64,38Zm-2.45,4.72c.08-.64.19-1.35.31-2.08a4,4,0,0,1,1.51.65c0,.27-.07.53-.1.79A5,5,0,0,1,498.19,42.74Zm-3,.32V40.27a14.7,14.7,0,0,1,2.81.27c-.14.82-.26,1.6-.35,2.32A17.11,17.11,0,0,1,495.16,43.06Zm-3-.25c-.09-.69-.2-1.44-.33-2.23a14.8,14.8,0,0,1,2.8-.3v2.77A15.19,15.19,0,0,1,492.15,42.81Zm-2.32-1,0-.26c.09-.28.61-.6,1.48-.85.12.69.22,1.35.3,2A3,3,0,0,1,489.83,41.83Z"/><path class="cls-5" d="M494.89,30.43c5.53,0,8.54,1.17,9.08,1.75-.54.58-3.55,1.74-9.08,1.74s-8.55-1.16-9.09-1.74c.54-.58,3.55-1.75,9.09-1.75m0-1.07c-5.64,0-10.21,1.26-10.21,2.82S489.25,35,494.89,35s10.2-1.27,10.2-2.82-4.57-2.82-10.2-2.82Z"/><polyline class="cls-11" points="111.88 59.06 111.96 48.72 127.59 55.87 127.5 66.52"/><path class="cls-12" d="M137.54,60.33l-.36-.4a9.74,9.74,0,0,0-2.43,4.21,4.45,4.45,0,0,0-1.46-.64,17,17,0,0,1,2.31-4.92l-.43-.32a17.82,17.82,0,0,0-2.41,5.1,21,21,0,0,0-4-.41v-5h-.54v5a20.71,20.71,0,0,0-4,.37,17.7,17.7,0,0,0-2.4-5.06l-.43.32a17,17,0,0,1,2.29,4.86,5.2,5.2,0,0,0-1.48.57,9.61,9.61,0,0,0-2.39-4.08l-.36.4a9.19,9.19,0,0,1,2.3,4.06.75.75,0,0,0-.17.46,1,1,0,0,0,.54.8,33.94,33.94,0,0,1,.71,3.53.77.77,0,0,0-.14.44.91.91,0,0,0,.28.62c.25,2.08.3,3.65.3,3.69l.54,0c0-.15,0-1.46-.24-3.26a6.6,6.6,0,0,0,1.71.56c.24,2,.31,3.33.31,3.37l.54,0c0-.15-.07-1.42-.28-3.24a16.91,16.91,0,0,0,2.4.19v3.67h.54V71.5a16.7,16.7,0,0,0,2.41-.23c-.22,1.84-.28,3.13-.29,3.28l.54,0s.07-1.43.31-3.42a5.54,5.54,0,0,0,1.73-.65c-.21,1.87-.25,3.25-.26,3.4l.54,0a41.83,41.83,0,0,1,1.21-8.54.76.76,0,0,0,.25-.54.68.68,0,0,0,0-.19A9.58,9.58,0,0,1,137.54,60.33Zm-3.89,8.55a4.06,4.06,0,0,0-1.49-.69c.11-.58.23-1.19.36-1.8a7.56,7.56,0,0,0,1.73-.53C134,66.88,133.8,67.91,133.65,68.88Zm-5.45-1.14a15.59,15.59,0,0,0-2.89.27c-.09-.48-.19-1-.3-1.48a24.8,24.8,0,0,0,3.19.23Zm.54-1a22.83,22.83,0,0,0,3.2-.25c-.12.53-.22,1-.32,1.56a15.1,15.1,0,0,0-2.88-.32Zm5.83-2.06c0,.15-.09.3-.13.46a4.92,4.92,0,0,1-1.79.66q.22-.9.48-1.8A2.9,2.9,0,0,1,134.57,64.69Zm-2-.81c-.2.68-.38,1.37-.54,2.05a21.34,21.34,0,0,1-3.32.29V63.49A19.41,19.41,0,0,1,132.6,63.88Zm-4.4-.4v2.74a21.93,21.93,0,0,1-3.31-.25c-.17-.71-.35-1.43-.56-2.14A21,21,0,0,1,128.2,63.48Zm-4.41.47c.19.63.36,1.28.51,1.91a6.63,6.63,0,0,1-1.75-.54c-.07-.27-.15-.54-.23-.8A4.59,4.59,0,0,1,123.79,64Zm.64,2.49c.13.57.24,1.14.34,1.69a5.52,5.52,0,0,0-1.51.6c-.14-.89-.31-1.83-.54-2.76A9.66,9.66,0,0,0,124.43,66.44Zm-1,3.61c0-.25-.07-.52-.11-.79a4.1,4.1,0,0,1,1.51-.65c.13.74.23,1.44.32,2.09A5,5,0,0,1,123.45,70.05Zm2.28.76c-.09-.71-.2-1.5-.34-2.32a15.65,15.65,0,0,1,2.81-.26V71A16,16,0,0,1,125.73,70.81Zm3,.2V68.23a14,14,0,0,1,2.8.31c-.13.79-.24,1.54-.33,2.23A15.19,15.19,0,0,1,128.74,71Zm3-.37c.08-.61.18-1.27.3-2,.86.26,1.38.57,1.48.85l0,.26A3,3,0,0,1,131.78,70.64Z"/><path class="cls-5" d="M128.47,58.39c5.54,0,8.55,1.16,9.08,1.74-.53.58-3.54,1.75-9.08,1.75s-8.55-1.17-9.08-1.75c.53-.58,3.54-1.74,9.08-1.74m0-1.08c-5.64,0-10.21,1.26-10.21,2.82S122.83,63,128.47,63s10.21-1.26,10.21-2.82-4.57-2.82-10.21-2.82Z"/><polygon class="cls-10" points="101.33 28.75 101.33 53.24 139.91 73.11 139.91 47.54 101.33 28.75"/><path class="cls-9" d="M119.13,51.34l-.57-.57V50H103.9l-.8.81V99.65h1.61V65.76Zm-2.51.23L104.71,63.48V51.57Z"/></g></g></g></svg>