<svg xmlns="http://www.w3.org/2000/svg" xmlns:xlink="http://www.w3.org/1999/xlink" viewBox="0 0 865.24 1049.38"><defs><style>.cls-1{fill:none;stroke:#fff;stroke-miterlimit:10;stroke-width:6px;}.cls-2{clip-path:url(#clip-path);}.cls-3{fill:#fff;}</style><clipPath id="clip-path" transform="translate(29.38)"><path class="cls-1" d="M799.5,401.25C799.5,181.3,621.2,3,401.25,3S3,181.3,3,401.25,401.25,1045,401.25,1045,799.5,621.2,799.5,401.25Z"/></clipPath></defs><g id="Ebene_2" data-name="Ebene 2"><g id="Ebene_21" data-name="Ebene 21"><g class="cls-2"><path class="cls-1" d="M799.5,401.25C799.5,181.3,621.2,3,401.25,3S3,181.3,3,401.25,401.25,1045,401.25,1045,799.5,621.2,799.5,401.25Z" transform="translate(29.38)"/><path class="cls-3" d="M835.86,714.08H-29.38V135.4H835.86Zm-859.68-5.57H830.3V141H-23.82Z" transform="translate(29.38)"/><rect class="cls-3" x="32.64" y="384.35" width="5.56" height="85.97"/><path class="cls-3" d="M20.54,439.12a11.79,11.79,0,1,1,11.79-11.79A11.8,11.8,0,0,1,20.54,439.12Zm0-18a6.23,6.23,0,1,0,6.23,6.23A6.24,6.24,0,0,0,20.54,421.1Z" transform="translate(29.38)"/><polygon class="cls-3" points="220.48 493.29 2.78 493.29 2.78 487.73 214.92 487.73 214.92 364.34 2.79 364.34 2.79 358.78 220.48 358.78 220.48 493.29"/><path class="cls-3" d="M189.23,493.29a67.43,67.43,0,0,1-8.78-.57l.72-5.51a63.55,63.55,0,0,0,8.06.52Z" transform="translate(29.38)"/><path class="cls-3" d="M163.49,488.19a67.76,67.76,0,0,1-15.13-8.74l3.38-4.41a61.78,61.78,0,0,0,13.88,8Z" transform="translate(29.38)"/><path class="cls-3" d="M135.9,467A67.21,67.21,0,0,1,127,451.64l5.14-2.11a61.48,61.48,0,0,0,8.14,14.1Z" transform="translate(29.38)"/><path class="cls-3" d="M122.58,435.1a68.59,68.59,0,0,1,0-17.8l5.52.72a61,61,0,0,0-.52,8,62.88,62.88,0,0,0,.55,8.33Z" transform="translate(29.38)"/><path class="cls-3" d="M132.47,401.82l-5.11-2.19a67.52,67.52,0,0,1,8.55-14.6l4.41,3.39A61.75,61.75,0,0,0,132.47,401.82Z" transform="translate(29.38)"/><path class="cls-3" d="M151.57,377.16l-3.4-4.4a67.37,67.37,0,0,1,15.46-8.94l2.12,5.15A61.71,61.71,0,0,0,151.57,377.16Z" transform="translate(29.38)"/><path class="cls-3" d="M181.12,364.87l-.72-5.52a68.08,68.08,0,0,1,8.83-.57v5.56A62.41,62.41,0,0,0,181.12,364.87Z" transform="translate(29.38)"/><path class="cls-3" d="M189.23,493.29v-5.56a61.7,61.7,0,1,0,0-123.39v-5.56a67.26,67.26,0,1,1,0,134.51Z" transform="translate(29.38)"/><rect class="cls-3" x="2.78" y="165.35" width="50.55" height="5.56"/><rect class="cls-3" x="2.78" y="681.16" width="50.55" height="5.56"/><path class="cls-3" d="M22.09,686.72v-5.56c140.68,0,255.13-114.45,255.13-255.13S162.77,170.91,22.09,170.91v-5.56c143.74,0,260.69,116.94,260.69,260.68S165.83,686.72,22.09,686.72Z" transform="translate(29.38)"/><path class="cls-3" d="M403.24,493.29A67.26,67.26,0,1,1,470.49,426,67.33,67.33,0,0,1,403.24,493.29Zm0-129A61.7,61.7,0,1,0,464.93,426,61.75,61.75,0,0,0,403.24,364.34Z" transform="translate(29.38)"/><rect class="cls-3" x="429.84" y="139.47" width="5.56" height="573.12"/><rect class="cls-3" x="827.04" y="381.75" width="5.56" height="85.97"/><path class="cls-3" d="M785.94,436.52a11.79,11.79,0,1,1,11.79-11.78A11.8,11.8,0,0,1,785.94,436.52Zm0-18a6.23,6.23,0,1,0,6.23,6.23A6.24,6.24,0,0,0,785.94,418.51Z" transform="translate(29.38)"/><polygon class="cls-3" points="862.45 493.29 644.76 493.29 644.76 358.78 862.46 358.78 862.46 364.34 650.32 364.34 650.32 487.73 862.45 487.73 862.45 493.29"/><path class="cls-3" d="M625.32,364.86a62.25,62.25,0,0,0-8.07-.52v-5.56a67.77,67.77,0,0,1,8.78.57Z" transform="translate(29.38)"/><path class="cls-3" d="M654.73,377a61.06,61.06,0,0,0-13.87-8l2.13-5.14a67.44,67.44,0,0,1,15.13,8.73Z" transform="translate(29.38)"/><path class="cls-3" d="M674.32,402.54a61.56,61.56,0,0,0-8.15-14.1l4.41-3.39a67.25,67.25,0,0,1,8.87,15.37Z" transform="translate(29.38)"/><path class="cls-3" d="M684,434.77l-5.52-.72a63.27,63.27,0,0,0,.51-8,62.21,62.21,0,0,0-.55-8.33l5.51-.74a68.18,68.18,0,0,1,.6,9.07A71,71,0,0,1,684,434.77Z" transform="translate(29.38)"/><path class="cls-3" d="M670.57,467l-4.41-3.39a62,62,0,0,0,7.85-13.4l5.12,2.18A68.22,68.22,0,0,1,670.57,467Z" transform="translate(29.38)"/><path class="cls-3" d="M642.85,488.24l-2.12-5.14a61.6,61.6,0,0,0,14.18-8.2l3.4,4.41A67,67,0,0,1,642.85,488.24Z" transform="translate(29.38)"/><path class="cls-3" d="M617.25,493.29v-5.56a62.52,62.52,0,0,0,8.11-.53l.73,5.51A66.85,66.85,0,0,1,617.25,493.29Z" transform="translate(29.38)"/><path class="cls-3" d="M617.25,493.29a67.26,67.26,0,1,1,0-134.51v5.56a61.7,61.7,0,1,0,0,123.39Z" transform="translate(29.38)"/><rect class="cls-3" x="811.9" y="681.16" width="50.56" height="5.56"/><rect class="cls-3" x="811.9" y="165.35" width="50.56" height="5.56"/><path class="cls-3" d="M784.39,686.72C640.65,686.72,523.7,569.78,523.7,426S640.65,165.35,784.39,165.35v5.56c-140.68,0-255.13,114.45-255.13,255.12S643.71,681.16,784.39,681.16Z" transform="translate(29.38)"/></g><path class="cls-1" d="M799.5,401.25C799.5,181.3,621.2,3,401.25,3S3,181.3,3,401.25,401.25,1045,401.25,1045,799.5,621.2,799.5,401.25Z" transform="translate(29.38)"/></g></g></svg>