<svg xmlns="http://www.w3.org/2000/svg" viewBox="0 0 631.95 354.06"><defs><style>.cls-1,.cls-2{fill:none;}.cls-1,.cls-2,.cls-4{stroke:#fff;stroke-miterlimit:10;}.cls-2{stroke-width:2px;}.cls-3,.cls-4{fill:#fff;}</style></defs><g id="Ebene_2" data-name="Ebene 2"><g id="Ebene_23" data-name="Ebene 23"><polyline class="cls-1" points="348.31 237.42 454.39 231.12 630 316.35 177.55 343.22 1.94 257.99 286.87 241.07"/><polyline class="cls-2" points="344.76 244.95 440.39 239.27 588.2 311.01 207.36 333.63 59.55 261.89 291.19 248.13"/><polyline class="cls-3" points="342.91 252.88 417.56 248.44 418.94 249.12 338.79 253.88"/><path class="cls-3" d="M298.64,255.51,94.38,267.64l1.38.67,202.9-12.05C298.65,256,298.64,255.76,298.64,255.51Z"/><polygon class="cls-3" points="539.01 307.4 215.83 326.59 214.45 325.92 537.63 306.73 539.01 307.4"/><polygon class="cls-3" points="215.7 326.64 213.87 326.75 92.18 267.74 94.2 267.67 215.7 326.64"/><polygon class="cls-3" points="541.14 307.34 539.32 307.44 417.63 248.44 419.64 248.37 541.14 307.34"/><polygon class="cls-3" points="413.2 321.72 411.29 321.84 263.07 249.94 265.09 249.88 413.2 321.72"/><polygon class="cls-4" points="1.94 257.99 1.94 268.75 175.94 353.55 630 326.58 630 316.35 177.55 343.22 1.94 257.99"/><path class="cls-3" d="M316,0a105.82,105.82,0,0,0-105.7,105.7c0,19.19,8.6,39.83,9,40.7a169.9,169.9,0,0,0,12.21,22.85l72.48,109.81c3,4.5,7.35,7.08,12,7.08s9.08-2.58,12-7.07L400.5,169.25a170,170,0,0,0,12.22-22.85c.36-.87,9-21.5,9-40.7A105.83,105.83,0,0,0,316,0Zm85.28,141.57a155.45,155.45,0,0,1-11.14,20.83L317.63,272.22c-1.43,2.17-1.88,2.17-3.31,0L241.84,162.4a156.07,156.07,0,0,1-11.14-20.83c-.1-.26-8-19.25-8-35.87a93.27,93.27,0,0,1,186.53,0C409.24,122.34,401.33,141.39,401.25,141.57Z"/><path class="cls-3" d="M316,49.75a56,56,0,1,0,56,56A56,56,0,0,0,316,49.75Zm0,99.48a43.53,43.53,0,1,1,43.53-43.52A43.57,43.57,0,0,1,316,149.23Z"/></g></g></svg>