<svg xmlns="http://www.w3.org/2000/svg" viewBox="0 0 747.27 795.75"><defs><style>.cls-1{fill:none;stroke:#fff;stroke-miterlimit:10;stroke-width:7px;}.cls-2{fill:#fff;}</style></defs><g id="Ebene_2" data-name="Ebene 2"><g id="Ebene_21" data-name="Ebene 21"><circle class="cls-1" cx="189.82" cy="189.82" r="186.32"/><line class="cls-1" x1="189.82" y1="65.45" x2="189.82" y2="314.2"/><line class="cls-1" x1="51.63" y1="189.82" x2="328.02" y2="189.82"/><path class="cls-2" d="M8522.24-2878.54l-33,57.1a9,9,0,0,1,3.17,2.23l31.21-54.06,340.84,196.79-296.14,512.93-340.84-196.78,127-220.05a11.17,11.17,0,0,1-1.17.06,11.33,11.33,0,0,1-3.07-.42l-128.07,221.82,347.52,200.64,300-519.62Z" transform="translate(-8122.49 2954.03)"/><polygon class="cls-2" points="617.24 203.29 591.44 247.98 502.05 196.38 527.86 151.68 531.2 153.61 507.32 194.96 590.03 242.71 613.9 201.36 617.24 203.29"/><polygon class="cls-2" points="643.19 217.96 597.52 297.07 456.51 215.65 502.18 136.54 505.52 138.47 461.77 214.24 596.11 291.8 639.85 216.03 643.19 217.96"/><polygon class="cls-2" points="345.11 674.63 319.31 719.33 315.97 717.4 339.84 676.05 257.14 628.29 233.26 669.65 229.92 667.72 255.73 623.03 345.11 674.63"/><polygon class="cls-2" points="390.66 655.36 344.99 734.47 341.65 732.54 385.39 656.77 251.06 579.21 207.31 654.99 203.97 653.06 249.65 573.94 390.66 655.36"/><path class="cls-2" d="M8605-2484.67a68.07,68.07,0,0,1-92.87,24.88,68.07,68.07,0,0,1-24.88-92.87,68.07,68.07,0,0,1,92.87-24.88A68.07,68.07,0,0,1,8605-2484.67Zm-114.41-66.06a64.2,64.2,0,0,0,23.47,87.6,64.2,64.2,0,0,0,87.6-23.47,64.2,64.2,0,0,0-23.47-87.6A64.2,64.2,0,0,0,8490.61-2550.73Z" transform="translate(-8122.49 2954.03)"/><path class="cls-2" d="M8406.6-2601.46a9.15,9.15,0,0,1-2.66,2.92l313.33,180.9,1.93-3.34Z" transform="translate(-8122.49 2954.03)"/><path class="cls-2" d="M8552.12-2515.22a6.9,6.9,0,0,1-9.42,2.53,6.9,6.9,0,0,1-2.53-9.42,6.9,6.9,0,0,1,9.42-2.53A6.9,6.9,0,0,1,8552.12-2515.22Zm-8.61-5a3,3,0,0,0,1.12,4.16,3,3,0,0,0,4.15-1.11,3,3,0,0,0-1.11-4.16A3,3,0,0,0,8543.51-2520.19Z" transform="translate(-8122.49 2954.03)"/></g></g></svg>