<svg xmlns="http://www.w3.org/2000/svg" viewBox="0 0 755.7 919.24"><defs><style>.cls-1{fill:#fff;}</style></defs><g id="Ebene_2" data-name="Ebene 2"><g id="Ebene_21" data-name="Ebene 21"><path class="cls-1" d="M153.68,905.59V514.69h600v390.9Zm4-386.84V901.53H749.62V518.75Z"/><rect class="cls-1" x="451.65" y="501.04" width="4.06" height="418.21"/><rect class="cls-1" x="577.11" y="516.72" width="4.06" height="386.84"/><rect class="cls-1" x="326.19" y="516.72" width="4.06" height="386.84"/><rect class="cls-1" x="453.68" width="4.06" height="418.21"/><rect class="cls-1" x="600.05" y="57.5" width="4.06" height="303.2"/><rect class="cls-1" x="307.3" y="57.5" width="4.06" height="303.2"/><rect class="cls-1" x="309.33" y="207.07" width="292.74" height="4.06"/><rect class="cls-1" x="157.73" y="358.68" width="595.94" height="4.06"/><rect class="cls-1" x="157.73" y="55.47" width="595.94" height="4.06"/><rect class="cls-1" x="157.73" y="207.07" width="10.46" height="4.06"/><path class="cls-1" d="M755.7,13.65v390.9h-600V13.65ZM751.65,400.5V17.71H159.76V400.5Z"/><rect class="cls-1" x="743.22" y="207.07" width="10.45" height="4.06"/><circle class="cls-1" cx="36.7" cy="174.43" r="36.7"/><circle class="cls-1" cx="36.7" cy="726.15" r="36.7"/></g></g></svg>