<svg xmlns="http://www.w3.org/2000/svg" xmlns:xlink="http://www.w3.org/1999/xlink" viewBox="0 0 634.51 367.52"><defs><style>.cls-1{isolation:isolate;}.cls-2{opacity:0.1;mix-blend-mode:multiply;}.cls-3{fill:#cecdcd;}.cls-4{fill:#5b5b5b;}.cls-5{fill:#fff;}.cls-6{opacity:0.2;mix-blend-mode:overlay;}.cls-7{fill:gray;}.cls-8{fill:url(#Unbenannter_Verlauf_15);}</style><linearGradient id="Unbenannter_Verlauf_15" x1="109.56" y1="137.52" x2="384.6" y2="137.52" gradientUnits="userSpaceOnUse"><stop offset="0" stop-color="#a5e60a"/><stop offset="1" stop-color="#66c800"/></linearGradient></defs><g class="cls-1"><g id="Ebene_2" data-name="Ebene 2"><g id="Ebene_23" data-name="Ebene 23"><g class="cls-2"><polygon points="634.51 330.32 182.06 357.2 6.45 271.97 458.9 245.09 634.51 330.32"/><polygon points="592.71 324.99 211.87 347.61 64.06 275.86 444.9 253.24 592.71 324.99"/><polygon points="423.45 263.09 100.27 282.29 98.89 281.61 422.07 262.42 423.45 263.09"/><polygon points="543.52 321.37 220.34 340.57 218.96 339.9 542.14 320.7 543.52 321.37"/><polygon points="220.21 340.61 218.38 340.72 96.69 281.71 98.71 281.64 220.21 340.61"/><polygon points="545.65 321.31 543.83 321.42 422.14 262.41 424.15 262.34 545.65 321.31"/><polygon points="417.71 335.7 415.8 335.81 267.58 263.92 269.6 263.85 417.71 335.7"/><polygon points="150.65 341.95 151.03 342.13 313.65 253.72 312.85 253.77 150.65 341.95"/><polygon points="146.17 339.78 146.55 339.96 304.13 254.29 303.33 254.33 146.17 339.78"/><polygon points="322.37 253.2 155.13 344.13 155.51 344.31 323.18 253.15 322.37 253.2"/><polygon points="141.69 337.6 142.06 337.79 294.61 254.85 293.81 254.9 141.69 337.6"/><polygon points="137.21 335.43 137.58 335.61 285.09 255.42 284.28 255.47 137.21 335.43"/><polygon points="208.99 259.94 208.19 259.98 101.39 318.05 101.77 318.23 208.99 259.94"/><polygon points="218.51 259.37 217.71 259.42 105.87 320.22 106.25 320.4 218.51 259.37"/><polygon points="237.56 258.24 236.75 258.29 114.84 324.57 115.22 324.75 237.56 258.24"/><polygon points="132.72 333.25 133.1 333.44 275.57 255.98 274.76 256.03 132.72 333.25"/><polygon points="228.04 258.81 227.23 258.85 110.36 322.39 110.73 322.58 228.04 258.81"/><polygon points="128.24 331.08 128.62 331.26 266.05 256.55 265.24 256.6 128.24 331.08"/><polygon points="370.79 250.33 369.98 250.38 177.53 355 177.91 355.18 370.79 250.33"/><polygon points="361.26 250.89 360.46 250.94 173.05 352.82 173.43 353.01 361.26 250.89"/><polygon points="199.47 260.5 198.67 260.55 96.91 315.87 97.29 316.06 199.47 260.5"/><polygon points="389.83 249.2 389.02 249.24 191.49 356.64 192.29 356.59 389.83 249.2"/><polygon points="351.74 251.46 350.94 251.51 168.57 350.65 168.95 350.83 351.74 251.46"/><polygon points="408.87 248.06 408.07 248.11 210.53 355.51 211.34 355.46 408.87 248.06"/><polygon points="342.22 252.02 341.41 252.07 164.09 348.48 164.47 348.66 342.22 252.02"/><polygon points="119.28 326.73 119.66 326.91 247 257.68 246.2 257.73 119.28 326.73"/><polygon points="123.76 328.9 124.14 329.09 256.52 257.11 255.72 257.16 123.76 328.9"/><polygon points="332.7 252.59 331.89 252.64 159.61 346.3 159.99 346.49 332.7 252.59"/><polygon points="142.34 263.89 141.53 263.94 70.02 302.82 70.4 303 142.34 263.89"/><polygon points="56.65 268.99 55.84 269.03 29.69 283.25 30.07 283.43 56.65 268.99"/><polygon points="37.6 270.12 36.79 270.16 20.73 278.9 21.11 279.08 37.6 270.12"/><polygon points="47.12 269.55 46.32 269.6 25.21 281.07 25.59 281.26 47.12 269.55"/><polygon points="66.17 268.42 65.36 268.47 34.17 285.42 34.55 285.61 66.17 268.42"/><polygon points="75.69 267.85 74.88 267.9 38.66 287.6 39.03 287.78 75.69 267.85"/><polygon points="9.04 271.81 8.23 271.86 7.29 272.37 7.67 272.56 9.04 271.81"/><polygon points="379.5 249.81 182.02 357.18 182.06 357.2 182.77 357.15 380.31 249.76 379.5 249.81"/><polygon points="85.21 267.29 84.4 267.34 43.14 289.77 43.52 289.96 85.21 267.29"/><polygon points="28.08 270.68 27.27 270.73 16.25 276.72 16.63 276.91 28.08 270.68"/><polygon points="18.56 271.25 17.75 271.3 11.77 274.55 12.15 274.73 18.56 271.25"/><polygon points="132.82 264.46 132.01 264.51 65.54 300.65 65.92 300.83 132.82 264.46"/><polygon points="161.38 262.76 160.58 262.81 78.99 307.17 79.37 307.36 161.38 262.76"/><polygon points="151.86 263.33 151.06 263.38 74.5 305 74.88 305.18 151.86 263.33"/><polygon points="180.43 261.63 179.62 261.68 87.95 311.52 88.33 311.7 180.43 261.63"/><polygon points="170.91 262.2 170.1 262.25 83.47 309.35 83.85 309.53 170.91 262.2"/><polygon points="94.73 266.72 93.92 266.77 47.62 291.95 48 292.13 94.73 266.72"/><polygon points="418.4 247.5 417.59 247.55 220.05 354.94 220.86 354.89 418.4 247.5"/><polygon points="113.78 265.59 112.97 265.64 56.58 296.3 56.96 296.48 113.78 265.59"/><polygon points="104.25 266.16 103.45 266.2 52.1 294.12 52.48 294.31 104.25 266.16"/><polygon points="189.95 261.07 189.14 261.12 92.43 313.7 92.81 313.88 189.95 261.07"/><polygon points="123.3 265.03 122.49 265.07 61.06 298.47 61.44 298.66 123.3 265.03"/><polygon points="399.35 248.63 398.55 248.68 201.01 356.07 201.81 356.02 399.35 248.63"/><polygon points="565.31 296.74 564.93 296.55 486.67 339.11 487.47 339.06 565.31 296.74"/><polygon points="569.79 298.91 569.41 298.73 496.19 338.54 496.99 338.49 569.79 298.91"/><polygon points="574.27 301.09 573.89 300.9 505.71 337.97 506.51 337.93 574.27 301.09"/><polygon points="578.76 303.26 578.38 303.08 515.23 337.41 516.04 337.36 578.76 303.26"/><polygon points="583.24 305.44 582.86 305.25 524.75 336.84 525.56 336.8 583.24 305.44"/><polygon points="547.39 288.04 547.01 287.85 448.58 341.37 449.38 341.32 547.39 288.04"/><polygon points="551.87 290.21 551.49 290.03 458.1 340.8 458.9 340.75 551.87 290.21"/><polygon points="560.83 294.56 560.45 294.38 477.14 339.67 477.95 339.62 560.83 294.56"/><polygon points="587.72 307.61 587.34 307.43 534.27 336.28 535.08 336.23 587.72 307.61"/><polygon points="542.91 285.86 542.53 285.68 439.06 341.93 439.86 341.88 542.91 285.86"/><polygon points="556.35 292.39 555.97 292.2 467.62 340.24 468.43 340.19 556.35 292.39"/><polygon points="619.09 322.83 618.71 322.65 600.93 332.32 601.73 332.27 619.09 322.83"/><polygon points="592.2 309.79 591.82 309.6 543.8 335.71 544.6 335.66 592.2 309.79"/><polygon points="628.05 327.19 627.67 327 619.97 331.19 620.78 331.14 628.05 327.19"/><polygon points="632.53 329.36 632.15 329.18 629.49 330.62 630.3 330.57 632.53 329.36"/><polygon points="427.92 246.93 427.11 246.98 229.57 354.38 230.38 354.33 427.92 246.93"/><polygon points="623.57 325.01 623.19 324.83 610.45 331.75 611.25 331.7 623.57 325.01"/><polygon points="596.68 311.96 596.3 311.78 553.32 335.15 554.12 335.1 596.68 311.96"/><polygon points="601.16 314.14 600.78 313.95 562.84 334.58 563.64 334.53 601.16 314.14"/><polygon points="605.64 316.31 605.26 316.13 572.36 334.01 573.17 333.97 605.64 316.31"/><polygon points="610.13 318.49 609.75 318.3 581.88 333.45 582.69 333.4 610.13 318.49"/><polygon points="614.61 320.66 614.23 320.48 591.4 332.88 592.21 332.84 614.61 320.66"/><polygon points="471.21 251.06 470.83 250.88 286.71 350.98 287.51 350.93 471.21 251.06"/><polygon points="475.69 253.24 475.31 253.06 296.23 350.42 297.03 350.37 475.69 253.24"/><polygon points="480.17 255.41 479.79 255.23 305.75 349.85 306.56 349.8 480.17 255.41"/><polygon points="484.65 257.59 484.27 257.4 315.27 349.29 316.08 349.24 484.65 257.59"/><polygon points="466.73 248.89 466.35 248.71 277.19 351.55 277.99 351.5 466.73 248.89"/><polygon points="489.13 259.76 488.75 259.58 324.79 348.72 325.6 348.67 489.13 259.76"/><polygon points="462.25 246.72 461.87 246.53 267.66 352.11 268.47 352.06 462.25 246.72"/><polygon points="437.44 246.37 436.63 246.42 239.1 353.81 239.9 353.76 437.44 246.37"/><polygon points="446.96 245.8 446.15 245.85 248.62 353.24 249.43 353.2 446.96 245.8"/><polygon points="456.48 245.24 455.68 245.28 258.14 352.68 258.95 352.63 456.48 245.24"/><polygon points="529.46 279.34 529.08 279.15 410.49 343.63 411.3 343.58 529.46 279.34"/><polygon points="516.02 272.81 515.64 272.63 381.92 345.33 382.73 345.28 516.02 272.81"/><polygon points="520.5 274.99 520.12 274.8 391.45 344.76 392.25 344.71 520.5 274.99"/><polygon points="524.98 277.16 524.6 276.98 400.97 344.19 401.77 344.15 524.98 277.16"/><polygon points="533.94 281.51 533.56 281.33 420.01 343.06 420.82 343.02 533.94 281.51"/><polygon points="538.42 283.69 538.05 283.5 429.53 342.5 430.34 342.45 538.42 283.69"/><polygon points="498.09 264.11 497.71 263.93 343.84 347.59 344.64 347.54 498.09 264.11"/><polygon points="502.58 266.29 502.2 266.11 353.36 347.02 354.17 346.98 502.58 266.29"/><polygon points="493.61 261.94 493.23 261.75 334.31 348.15 335.12 348.11 493.61 261.94"/><polygon points="507.06 268.46 506.68 268.28 362.88 346.46 363.69 346.41 507.06 268.46"/><polygon points="511.54 270.64 511.16 270.45 372.4 345.89 373.21 345.84 511.54 270.64"/><polygon points="6.45 271.97 6.45 282.72 180.45 367.52 634.51 340.56 634.51 330.32 182.06 357.2 6.45 271.97"/></g><polygon class="cls-3" points="628.07 317.43 175.61 344.3 0 259.07 452.45 232.19 628.07 317.43"/><polygon class="cls-4" points="586.26 312.09 205.42 334.71 57.61 262.97 438.45 240.34 586.26 312.09"/><polygon class="cls-5" points="417 250.19 93.82 269.39 92.44 268.72 415.62 249.52 417 250.19"/><polygon class="cls-5" points="537.07 308.47 213.89 327.67 212.51 327 535.69 307.8 537.07 308.47"/><polygon class="cls-5" points="213.76 327.71 211.93 327.82 90.24 268.81 92.26 268.75 213.76 327.71"/><polygon class="cls-5" points="539.2 308.41 537.38 308.52 415.69 249.51 417.7 249.44 539.2 308.41"/><polygon class="cls-5" points="411.26 322.8 409.35 322.91 261.13 251.02 263.15 250.95 411.26 322.8"/><g class="cls-6"><polygon points="144.2 329.05 144.58 329.24 307.2 240.82 306.4 240.87 144.2 329.05"/><polygon points="139.72 326.88 140.1 327.06 297.68 241.39 296.88 241.44 139.72 326.88"/><polygon points="315.92 240.3 148.68 331.23 149.06 331.41 316.73 240.26 315.92 240.3"/><polygon points="135.24 324.7 135.62 324.89 288.16 241.95 287.36 242 135.24 324.7"/><polygon points="130.75 322.53 131.13 322.71 278.64 242.52 277.83 242.57 130.75 322.53"/><polygon points="202.54 247.04 201.74 247.09 94.94 305.15 95.32 305.33 202.54 247.04"/><polygon points="212.07 246.47 211.26 246.52 99.42 307.32 99.8 307.51 212.07 246.47"/><polygon points="231.11 245.34 230.31 245.39 108.39 311.67 108.77 311.86 231.11 245.34"/><polygon points="126.27 320.35 126.65 320.54 269.12 243.08 268.31 243.13 126.27 320.35"/><polygon points="221.59 245.91 220.78 245.96 103.91 309.5 104.28 309.68 221.59 245.91"/><polygon points="121.79 318.18 122.17 318.36 259.6 243.65 258.79 243.7 121.79 318.18"/><polygon points="364.34 237.43 363.53 237.48 171.09 342.1 171.47 342.29 364.34 237.43"/><polygon points="354.81 237.99 354.01 238.04 166.6 339.93 166.98 340.11 354.81 237.99"/><polygon points="193.02 247.6 192.22 247.65 90.46 302.97 90.84 303.16 193.02 247.6"/><polygon points="383.38 236.3 382.57 236.34 185.04 343.74 185.84 343.69 383.38 236.3"/><polygon points="345.29 238.56 344.49 238.61 162.12 337.75 162.5 337.94 345.29 238.56"/><polygon points="402.42 235.17 401.62 235.21 204.08 342.61 204.89 342.56 402.42 235.17"/><polygon points="335.77 239.13 334.96 239.17 157.64 335.58 158.02 335.76 335.77 239.13"/><polygon points="112.83 313.83 113.21 314.01 240.55 244.78 239.75 244.83 112.83 313.83"/><polygon points="117.31 316 117.69 316.19 250.07 244.22 249.27 244.26 117.31 316"/><polygon points="326.25 239.69 325.44 239.74 153.16 333.4 153.54 333.59 326.25 239.69"/><polygon points="135.89 251 135.09 251.04 63.57 289.92 63.95 290.11 135.89 251"/><polygon points="50.2 256.09 49.39 256.13 23.24 270.35 23.62 270.53 50.2 256.09"/><polygon points="31.15 257.22 30.34 257.27 14.28 266 14.66 266.18 31.15 257.22"/><polygon points="40.67 256.65 39.87 256.7 18.76 268.17 19.14 268.36 40.67 256.65"/><polygon points="59.72 255.52 58.91 255.57 27.73 272.52 28.1 272.71 59.72 255.52"/><polygon points="69.24 254.96 68.43 255 32.21 274.7 32.59 274.88 69.24 254.96"/><polygon points="2.59 258.91 1.78 258.96 0.84 259.48 1.22 259.66 2.59 258.91"/><polygon points="373.05 236.91 175.57 344.28 175.61 344.3 176.32 344.26 373.86 236.86 373.05 236.91"/><polygon points="78.76 254.39 77.95 254.44 36.69 276.87 37.07 277.06 78.76 254.39"/><polygon points="21.63 257.78 20.82 257.83 9.8 263.82 10.18 264.01 21.63 257.78"/><polygon points="12.11 258.35 11.3 258.4 5.32 261.65 5.7 261.83 12.11 258.35"/><polygon points="126.37 251.56 125.56 251.61 59.09 287.75 59.47 287.93 126.37 251.56"/><polygon points="154.94 249.87 154.13 249.91 72.54 294.27 72.92 294.46 154.94 249.87"/><polygon points="145.41 250.43 144.61 250.48 68.06 292.1 68.44 292.28 145.41 250.43"/><polygon points="173.98 248.73 173.17 248.78 81.5 298.62 81.88 298.81 173.98 248.73"/><polygon points="164.46 249.3 163.65 249.35 77.02 296.45 77.4 296.63 164.46 249.3"/><polygon points="88.28 253.82 87.48 253.87 41.17 279.05 41.55 279.23 88.28 253.82"/><polygon points="411.95 234.6 411.14 234.65 213.6 342.04 214.41 341.99 411.95 234.6"/><polygon points="107.33 252.69 106.52 252.74 50.13 283.4 50.51 283.58 107.33 252.69"/><polygon points="97.8 253.26 97 253.31 45.65 281.22 46.03 281.41 97.8 253.26"/><polygon points="183.5 248.17 182.69 248.22 85.98 300.8 86.36 300.98 183.5 248.17"/><polygon points="116.85 252.13 116.04 252.18 54.61 285.57 54.99 285.76 116.85 252.13"/><polygon points="392.9 235.73 392.1 235.78 194.56 343.17 195.37 343.13 392.9 235.73"/><polygon points="558.86 283.84 558.48 283.65 480.21 326.21 481.02 326.16 558.86 283.84"/><polygon points="563.34 286.01 562.97 285.83 489.74 325.64 490.54 325.59 563.34 286.01"/><polygon points="567.83 288.19 567.45 288 499.26 325.07 500.06 325.03 567.83 288.19"/><polygon points="572.31 290.36 571.93 290.18 508.78 324.51 509.59 324.46 572.31 290.36"/><polygon points="576.79 292.54 576.41 292.35 518.3 323.94 519.11 323.9 576.79 292.54"/><polygon points="540.94 275.14 540.56 274.95 442.13 328.47 442.93 328.42 540.94 275.14"/><polygon points="545.42 277.31 545.04 277.13 451.65 327.9 452.45 327.86 545.42 277.31"/><polygon points="554.38 281.66 554 281.48 470.69 326.77 471.5 326.72 554.38 281.66"/><polygon points="581.27 294.71 580.89 294.53 527.83 323.38 528.63 323.33 581.27 294.71"/><polygon points="536.46 272.96 536.08 272.78 432.61 329.03 433.41 328.99 536.46 272.96"/><polygon points="549.9 279.49 549.52 279.31 461.17 327.34 461.98 327.29 549.9 279.49"/><polygon points="612.64 309.94 612.26 309.75 594.48 319.42 595.28 319.37 612.64 309.94"/><polygon points="585.75 296.89 585.37 296.7 537.35 322.81 538.15 322.76 585.75 296.89"/><polygon points="621.6 314.29 621.22 314.1 613.52 318.29 614.33 318.24 621.6 314.29"/><polygon points="626.08 316.46 625.7 316.28 623.04 317.72 623.85 317.68 626.08 316.46"/><polygon points="421.47 234.03 420.66 234.08 223.13 341.48 223.93 341.43 421.47 234.03"/><polygon points="617.12 312.11 616.74 311.93 604 318.85 604.81 318.81 617.12 312.11"/><polygon points="590.23 299.06 589.85 298.88 546.87 322.25 547.67 322.2 590.23 299.06"/><polygon points="594.71 301.24 594.33 301.05 556.39 321.68 557.2 321.63 594.71 301.24"/><polygon points="599.19 303.41 598.82 303.23 565.91 321.12 566.72 321.07 599.19 303.41"/><polygon points="603.67 305.59 603.3 305.4 575.43 320.55 576.24 320.5 603.67 305.59"/><polygon points="608.16 307.76 607.78 307.58 584.96 319.99 585.76 319.94 608.16 307.76"/><polygon points="464.76 238.17 464.38 237.98 280.26 338.08 281.06 338.04 464.76 238.17"/><polygon points="469.24 240.34 468.86 240.16 289.78 337.52 290.58 337.47 469.24 240.34"/><polygon points="473.72 242.52 473.34 242.33 299.3 336.95 300.11 336.9 473.72 242.52"/><polygon points="478.2 244.69 477.82 244.51 308.82 336.39 309.63 336.34 478.2 244.69"/><polygon points="460.28 235.99 459.9 235.81 270.74 338.65 271.54 338.6 460.28 235.99"/><polygon points="482.68 246.87 482.3 246.68 318.34 335.82 319.15 335.77 482.68 246.87"/><polygon points="455.8 233.82 455.42 233.63 261.21 339.21 262.02 339.17 455.8 233.82"/><polygon points="430.99 233.47 430.18 233.52 232.65 340.91 233.45 340.86 430.99 233.47"/><polygon points="440.51 232.9 439.7 232.95 242.17 340.35 242.98 340.3 440.51 232.9"/><polygon points="450.03 232.34 449.23 232.39 251.69 339.78 252.5 339.73 450.03 232.34"/><polygon points="523.01 266.44 522.63 266.25 404.04 330.73 404.85 330.68 523.01 266.44"/><polygon points="509.57 259.91 509.19 259.73 375.47 332.43 376.28 332.38 509.57 259.91"/><polygon points="514.05 262.09 513.67 261.91 385 331.86 385.8 331.81 514.05 262.09"/><polygon points="518.53 264.26 518.15 264.08 394.52 331.3 395.32 331.25 518.53 264.26"/><polygon points="527.49 268.61 527.12 268.43 413.56 330.17 414.37 330.12 527.49 268.61"/><polygon points="531.98 270.79 531.6 270.61 423.08 329.6 423.89 329.55 531.98 270.79"/><polygon points="491.64 251.22 491.26 251.03 337.39 334.69 338.19 334.64 491.64 251.22"/><polygon points="496.13 253.39 495.75 253.21 346.91 334.12 347.72 334.08 496.13 253.39"/><polygon points="487.16 249.04 486.78 248.86 327.87 335.25 328.67 335.21 487.16 249.04"/><polygon points="500.61 255.56 500.23 255.38 356.43 333.56 357.24 333.51 500.61 255.56"/><polygon points="505.09 257.74 504.71 257.56 365.95 332.99 366.76 332.94 505.09 257.74"/></g><polygon class="cls-7" points="0 259.07 0 269.82 174 354.63 628.07 327.66 628.07 317.43 175.61 344.3 0 259.07"/><path class="cls-8" d="M247.08,0A137.52,137.52,0,1,0,384.6,137.52,137.52,137.52,0,0,0,247.08,0ZM253,143.42v85.9H241.17v-85.9H145.08v-11.8h96.09V45.72H253v85.9h96.1v11.8Z"/></g></g></g></svg>