<svg xmlns="http://www.w3.org/2000/svg" xmlns:xlink="http://www.w3.org/1999/xlink" viewBox="0 0 634.51 365.84"><defs><style>.cls-1{isolation:isolate;}.cls-2{opacity:0.1;mix-blend-mode:multiply;}.cls-3{fill:#cecdcd;}.cls-4{fill:#5b5b5b;}.cls-5{fill:#fff;}.cls-6{opacity:0.2;mix-blend-mode:overlay;}.cls-7{fill:gray;}.cls-8{fill:url(#Unbenannter_Verlauf_21);}.cls-9{fill:url(#Unbenannter_Verlauf_21-2);}</style><linearGradient id="Unbenannter_Verlauf_21" x1="208.33" y1="143.07" x2="419.74" y2="143.07" gradientUnits="userSpaceOnUse"><stop offset="0" stop-color="#38c3d2"/><stop offset="1" stop-color="#0095c8"/></linearGradient><linearGradient id="Unbenannter_Verlauf_21-2" x1="258.07" y1="105.71" x2="369.99" y2="105.71" xlink:href="#Unbenannter_Verlauf_21"/></defs><g class="cls-1"><g id="Ebene_2" data-name="Ebene 2"><g id="Ebene_23" data-name="Ebene 23"><g class="cls-2"><polygon points="634.51 328.63 182.06 355.51 6.45 270.28 458.9 243.4 634.51 328.63"/><polygon points="592.71 323.3 211.87 345.92 64.06 274.18 444.9 251.56 592.71 323.3"/><polygon points="423.45 261.4 100.27 280.6 98.89 279.93 422.07 260.73 423.45 261.4"/><polygon points="543.52 319.68 220.34 338.88 218.96 338.21 542.14 319.01 543.52 319.68"/><polygon points="220.21 338.92 218.38 339.03 96.69 280.02 98.71 279.96 220.21 338.92"/><polygon points="545.65 319.62 543.83 319.73 422.14 260.72 424.15 260.65 545.65 319.62"/><polygon points="417.71 334.01 415.8 334.12 267.58 262.23 269.6 262.16 417.71 334.01"/><polygon points="150.65 340.26 151.03 340.45 313.65 252.03 312.85 252.08 150.65 340.26"/><polygon points="146.17 338.09 146.55 338.27 304.13 252.6 303.33 252.65 146.17 338.09"/><polygon points="322.37 251.51 155.13 342.44 155.51 342.62 323.18 251.47 322.37 251.51"/><polygon points="141.69 335.91 142.06 336.1 294.61 253.16 293.81 253.21 141.69 335.91"/><polygon points="137.21 333.74 137.58 333.92 285.09 253.73 284.28 253.78 137.21 333.74"/><polygon points="208.99 258.25 208.19 258.3 101.39 316.36 101.77 316.54 208.99 258.25"/><polygon points="218.51 257.68 217.71 257.73 105.87 318.53 106.25 318.72 218.51 257.68"/><polygon points="237.56 256.55 236.75 256.6 114.84 322.88 115.22 323.07 237.56 256.55"/><polygon points="132.72 331.56 133.1 331.75 275.57 254.29 274.76 254.34 132.72 331.56"/><polygon points="228.04 257.12 227.23 257.17 110.36 320.71 110.73 320.89 228.04 257.12"/><polygon points="128.24 329.39 128.62 329.57 266.05 254.86 265.24 254.91 128.24 329.39"/><polygon points="370.79 248.64 369.98 248.69 177.53 353.31 177.91 353.5 370.79 248.64"/><polygon points="361.26 249.2 360.46 249.25 173.05 351.14 173.43 351.32 361.26 249.2"/><polygon points="199.47 258.81 198.67 258.86 96.91 314.18 97.29 314.37 199.47 258.81"/><polygon points="389.83 247.51 389.02 247.56 191.49 354.95 192.29 354.9 389.83 247.51"/><polygon points="351.74 249.77 350.94 249.82 168.57 348.96 168.95 349.15 351.74 249.77"/><polygon points="408.87 246.38 408.07 246.42 210.53 353.82 211.34 353.77 408.87 246.38"/><polygon points="342.22 250.34 341.41 250.38 164.09 346.79 164.47 346.97 342.22 250.34"/><polygon points="119.28 325.04 119.66 325.22 247 255.99 246.2 256.04 119.28 325.04"/><polygon points="123.76 327.21 124.14 327.4 256.52 255.43 255.72 255.47 123.76 327.21"/><polygon points="332.7 250.9 331.89 250.95 159.61 344.61 159.99 344.8 332.7 250.9"/><polygon points="142.34 262.21 141.53 262.25 70.02 301.13 70.4 301.32 142.34 262.21"/><polygon points="56.65 267.3 55.84 267.34 29.69 281.56 30.07 281.74 56.65 267.3"/><polygon points="37.6 268.43 36.79 268.48 20.73 277.21 21.11 277.39 37.6 268.43"/><polygon points="47.12 267.86 46.32 267.91 25.21 279.38 25.59 279.57 47.12 267.86"/><polygon points="66.17 266.73 65.36 266.78 34.17 283.73 34.55 283.92 66.17 266.73"/><polygon points="75.69 266.17 74.88 266.21 38.66 285.91 39.03 286.09 75.69 266.17"/><polygon points="9.04 270.12 8.23 270.17 7.29 270.68 7.67 270.87 9.04 270.12"/><polygon points="379.5 248.12 182.02 355.49 182.06 355.51 182.77 355.47 380.31 248.07 379.5 248.12"/><polygon points="85.21 265.6 84.4 265.65 43.14 288.08 43.52 288.27 85.21 265.6"/><polygon points="28.08 268.99 27.27 269.04 16.25 275.03 16.63 275.22 28.08 268.99"/><polygon points="18.56 269.56 17.75 269.61 11.77 272.86 12.15 273.04 18.56 269.56"/><polygon points="132.82 262.77 132.01 262.82 65.54 298.96 65.92 299.14 132.82 262.77"/><polygon points="161.38 261.07 160.58 261.12 78.99 305.48 79.37 305.67 161.38 261.07"/><polygon points="151.86 261.64 151.06 261.69 74.5 303.31 74.88 303.49 151.86 261.64"/><polygon points="180.43 259.94 179.62 259.99 87.95 309.83 88.33 310.02 180.43 259.94"/><polygon points="170.91 260.51 170.1 260.56 83.47 307.66 83.85 307.84 170.91 260.51"/><polygon points="94.73 265.03 93.92 265.08 47.62 290.26 48 290.44 94.73 265.03"/><polygon points="418.4 245.81 417.59 245.86 220.05 353.25 220.86 353.2 418.4 245.81"/><polygon points="113.78 263.9 112.97 263.95 56.58 294.61 56.96 294.79 113.78 263.9"/><polygon points="104.25 264.47 103.45 264.52 52.1 292.43 52.48 292.62 104.25 264.47"/><polygon points="189.95 259.38 189.14 259.43 92.43 312.01 92.81 312.19 189.95 259.38"/><polygon points="123.3 263.34 122.49 263.39 61.06 296.78 61.44 296.97 123.3 263.34"/><polygon points="399.35 246.94 398.55 246.99 201.01 354.38 201.81 354.33 399.35 246.94"/><polygon points="565.31 295.05 564.93 294.86 486.67 337.42 487.47 337.37 565.31 295.05"/><polygon points="569.79 297.22 569.41 297.04 496.19 336.85 496.99 336.8 569.79 297.22"/><polygon points="574.27 299.4 573.89 299.21 505.71 336.29 506.51 336.24 574.27 299.4"/><polygon points="578.76 301.57 578.38 301.39 515.23 335.72 516.04 335.67 578.76 301.57"/><polygon points="583.24 303.75 582.86 303.56 524.75 335.15 525.56 335.11 583.24 303.75"/><polygon points="547.39 286.35 547.01 286.16 448.58 339.68 449.38 339.63 547.39 286.35"/><polygon points="551.87 288.52 551.49 288.34 458.1 339.11 458.9 339.06 551.87 288.52"/><polygon points="560.83 292.87 560.45 292.69 477.14 337.98 477.95 337.93 560.83 292.87"/><polygon points="587.72 305.92 587.34 305.74 534.27 334.59 535.08 334.54 587.72 305.92"/><polygon points="542.91 284.17 542.53 283.99 439.06 340.24 439.86 340.2 542.91 284.17"/><polygon points="556.35 290.7 555.97 290.51 467.62 338.55 468.43 338.5 556.35 290.7"/><polygon points="619.09 321.15 618.71 320.96 600.93 330.63 601.73 330.58 619.09 321.15"/><polygon points="592.2 308.1 591.82 307.91 543.8 334.02 544.6 333.98 592.2 308.1"/><polygon points="628.05 325.5 627.67 325.31 619.97 329.5 620.78 329.45 628.05 325.5"/><polygon points="632.53 327.67 632.15 327.49 629.49 328.93 630.3 328.88 632.53 327.67"/><polygon points="427.92 245.25 427.11 245.29 229.57 352.69 230.38 352.64 427.92 245.25"/><polygon points="623.57 323.32 623.19 323.14 610.45 330.06 611.25 330.02 623.57 323.32"/><polygon points="596.68 310.27 596.3 310.09 553.32 333.46 554.12 333.41 596.68 310.27"/><polygon points="601.16 312.45 600.78 312.26 562.84 332.89 563.64 332.84 601.16 312.45"/><polygon points="605.64 314.62 605.26 314.44 572.36 332.33 573.17 332.28 605.64 314.62"/><polygon points="610.13 316.8 609.75 316.61 581.88 331.76 582.69 331.71 610.13 316.8"/><polygon points="614.61 318.97 614.23 318.79 591.4 331.19 592.21 331.15 614.61 318.97"/><polygon points="471.21 249.38 470.83 249.19 286.71 349.29 287.51 349.25 471.21 249.38"/><polygon points="475.69 251.55 475.31 251.37 296.23 348.73 297.03 348.68 475.69 251.55"/><polygon points="480.17 253.73 479.79 253.54 305.75 348.16 306.56 348.11 480.17 253.73"/><polygon points="484.65 255.9 484.27 255.72 315.27 347.6 316.08 347.55 484.65 255.9"/><polygon points="466.73 247.2 466.35 247.02 277.19 349.86 277.99 349.81 466.73 247.2"/><polygon points="489.13 258.08 488.75 257.89 324.79 347.03 325.6 346.98 489.13 258.08"/><polygon points="462.25 245.03 461.87 244.84 267.66 350.42 268.47 350.38 462.25 245.03"/><polygon points="437.44 244.68 436.63 244.73 239.1 352.12 239.9 352.07 437.44 244.68"/><polygon points="446.96 244.11 446.15 244.16 248.62 351.56 249.43 351.51 446.96 244.11"/><polygon points="456.48 243.55 455.68 243.6 258.14 350.99 258.95 350.94 456.48 243.55"/><polygon points="529.46 277.65 529.08 277.46 410.49 341.94 411.3 341.89 529.46 277.65"/><polygon points="516.02 271.12 515.64 270.94 381.92 343.64 382.73 343.59 516.02 271.12"/><polygon points="520.5 273.3 520.12 273.12 391.45 343.07 392.25 343.02 520.5 273.3"/><polygon points="524.98 275.47 524.6 275.29 400.97 342.51 401.77 342.46 524.98 275.47"/><polygon points="533.94 279.82 533.56 279.64 420.01 341.38 420.82 341.33 533.94 279.82"/><polygon points="538.42 282 538.05 281.81 429.53 340.81 430.34 340.76 538.42 282"/><polygon points="498.09 262.43 497.71 262.24 343.84 345.9 344.64 345.85 498.09 262.43"/><polygon points="502.58 264.6 502.2 264.42 353.36 345.33 354.17 345.29 502.58 264.6"/><polygon points="493.61 260.25 493.23 260.07 334.31 346.46 335.12 346.42 493.61 260.25"/><polygon points="507.06 266.77 506.68 266.59 362.88 344.77 363.69 344.72 507.06 266.77"/><polygon points="511.54 268.95 511.16 268.77 372.4 344.2 373.21 344.15 511.54 268.95"/><polygon points="6.45 270.28 6.45 281.03 180.45 365.84 634.51 338.87 634.51 328.63 182.06 355.51 6.45 270.28"/></g><polygon class="cls-3" points="628.07 315.74 175.61 342.61 0 257.38 452.45 230.51 628.07 315.74"/><polygon class="cls-4" points="586.26 310.4 205.42 333.02 57.61 261.28 438.45 238.66 586.26 310.4"/><polygon class="cls-5" points="417 248.5 93.82 267.7 92.44 267.03 415.62 247.83 417 248.5"/><polygon class="cls-5" points="537.07 306.78 213.89 325.98 212.51 325.31 535.69 306.11 537.07 306.78"/><polygon class="cls-5" points="213.76 326.02 211.93 326.13 90.24 267.13 92.26 267.06 213.76 326.02"/><polygon class="cls-5" points="539.2 306.72 537.38 306.83 415.69 247.82 417.7 247.76 539.2 306.72"/><polygon class="cls-5" points="411.26 321.11 409.35 321.22 261.13 249.33 263.15 249.26 411.26 321.11"/><g class="cls-6"><polygon points="144.2 327.36 144.58 327.55 307.2 239.13 306.4 239.18 144.2 327.36"/><polygon points="139.72 325.19 140.1 325.37 297.68 239.7 296.88 239.75 139.72 325.19"/><polygon points="315.92 238.62 148.68 329.54 149.06 329.72 316.73 238.57 315.92 238.62"/><polygon points="135.24 323.01 135.62 323.2 288.16 240.26 287.36 240.31 135.24 323.01"/><polygon points="130.75 320.84 131.13 321.02 278.64 240.83 277.83 240.88 130.75 320.84"/><polygon points="202.54 245.35 201.74 245.4 94.94 303.46 95.32 303.64 202.54 245.35"/><polygon points="212.07 244.78 211.26 244.83 99.42 305.63 99.8 305.82 212.07 244.78"/><polygon points="231.11 243.65 230.31 243.7 108.39 309.98 108.77 310.17 231.11 243.65"/><polygon points="126.27 318.66 126.65 318.85 269.12 241.4 268.31 241.44 126.27 318.66"/><polygon points="221.59 244.22 220.78 244.27 103.91 307.81 104.28 307.99 221.59 244.22"/><polygon points="121.79 316.49 122.17 316.67 259.6 241.96 258.79 242.01 121.79 316.49"/><polygon points="364.34 235.74 363.53 235.79 171.09 340.41 171.47 340.6 364.34 235.74"/><polygon points="354.81 236.31 354.01 236.35 166.6 338.24 166.98 338.42 354.81 236.31"/><polygon points="193.02 245.91 192.22 245.96 90.46 301.28 90.84 301.47 193.02 245.91"/><polygon points="383.38 234.61 382.57 234.66 185.04 342.05 185.84 342 383.38 234.61"/><polygon points="345.29 236.87 344.49 236.92 162.12 336.06 162.5 336.25 345.29 236.87"/><polygon points="402.42 233.48 401.62 233.53 204.08 340.92 204.89 340.87 402.42 233.48"/><polygon points="335.77 237.44 334.96 237.48 157.64 333.89 158.02 334.07 335.77 237.44"/><polygon points="112.83 312.14 113.21 312.32 240.55 243.09 239.75 243.14 112.83 312.14"/><polygon points="117.31 314.31 117.69 314.5 250.07 242.53 249.27 242.57 117.31 314.31"/><polygon points="326.25 238 325.44 238.05 153.16 331.71 153.54 331.9 326.25 238"/><polygon points="135.89 249.31 135.09 249.36 63.57 288.23 63.95 288.42 135.89 249.31"/><polygon points="50.2 254.4 49.39 254.45 23.24 268.66 23.62 268.85 50.2 254.4"/><polygon points="31.15 255.53 30.34 255.58 14.28 264.31 14.66 264.49 31.15 255.53"/><polygon points="40.67 254.96 39.87 255.01 18.76 266.49 19.14 266.67 40.67 254.96"/><polygon points="59.72 253.83 58.91 253.88 27.73 270.83 28.1 271.02 59.72 253.83"/><polygon points="69.24 253.27 68.43 253.31 32.21 273.01 32.59 273.19 69.24 253.27"/><polygon points="2.59 257.23 1.78 257.27 0.84 257.79 1.22 257.97 2.59 257.23"/><polygon points="373.05 235.22 175.57 342.59 175.61 342.61 176.32 342.57 373.86 235.17 373.05 235.22"/><polygon points="78.76 252.7 77.95 252.75 36.69 275.19 37.07 275.37 78.76 252.7"/><polygon points="21.63 256.1 20.82 256.14 9.8 262.14 10.18 262.32 21.63 256.1"/><polygon points="12.11 256.66 11.3 256.71 5.32 259.96 5.7 260.14 12.11 256.66"/><polygon points="126.37 249.87 125.56 249.92 59.09 286.06 59.47 286.24 126.37 249.87"/><polygon points="154.94 248.18 154.13 248.22 72.54 292.58 72.92 292.77 154.94 248.18"/><polygon points="145.41 248.74 144.61 248.79 68.06 290.41 68.44 290.59 145.41 248.74"/><polygon points="173.98 247.05 173.17 247.09 81.5 296.93 81.88 297.12 173.98 247.05"/><polygon points="164.46 247.61 163.65 247.66 77.02 294.76 77.4 294.94 164.46 247.61"/><polygon points="88.28 252.14 87.48 252.18 41.17 277.36 41.55 277.54 88.28 252.14"/><polygon points="411.95 232.91 411.14 232.96 213.6 340.35 214.41 340.31 411.95 232.91"/><polygon points="107.33 251 106.52 251.05 50.13 281.71 50.51 281.89 107.33 251"/><polygon points="97.8 251.57 97 251.62 45.65 279.53 46.03 279.72 97.8 251.57"/><polygon points="183.5 246.48 182.69 246.53 85.98 299.11 86.36 299.29 183.5 246.48"/><polygon points="116.85 250.44 116.04 250.49 54.61 283.88 54.99 284.07 116.85 250.44"/><polygon points="392.9 234.04 392.1 234.09 194.56 341.48 195.37 341.44 392.9 234.04"/><polygon points="558.86 282.15 558.48 281.97 480.21 324.52 481.02 324.47 558.86 282.15"/><polygon points="563.34 284.32 562.97 284.14 489.74 323.95 490.54 323.9 563.34 284.32"/><polygon points="567.83 286.5 567.45 286.31 499.26 323.39 500.06 323.34 567.83 286.5"/><polygon points="572.31 288.67 571.93 288.49 508.78 322.82 509.59 322.77 572.31 288.67"/><polygon points="576.79 290.85 576.41 290.67 518.3 322.25 519.11 322.21 576.79 290.85"/><polygon points="540.94 273.45 540.56 273.27 442.13 326.78 442.93 326.73 540.94 273.45"/><polygon points="545.42 275.63 545.04 275.44 451.65 326.21 452.45 326.17 545.42 275.63"/><polygon points="554.38 279.98 554 279.79 470.69 325.08 471.5 325.04 554.38 279.98"/><polygon points="581.27 293.02 580.89 292.84 527.83 321.69 528.63 321.64 581.27 293.02"/><polygon points="536.46 271.27 536.08 271.09 432.61 327.35 433.41 327.3 536.46 271.27"/><polygon points="549.9 277.8 549.52 277.62 461.17 325.65 461.98 325.6 549.9 277.8"/><polygon points="612.64 308.25 612.26 308.06 594.48 317.73 595.28 317.68 612.64 308.25"/><polygon points="585.75 295.2 585.37 295.01 537.35 321.12 538.15 321.08 585.75 295.2"/><polygon points="621.6 312.6 621.22 312.41 613.52 316.6 614.33 316.55 621.6 312.6"/><polygon points="626.08 314.77 625.7 314.59 623.04 316.03 623.85 315.99 626.08 314.77"/><polygon points="421.47 232.35 420.66 232.39 223.13 339.79 223.93 339.74 421.47 232.35"/><polygon points="617.12 310.42 616.74 310.24 604 317.17 604.81 317.12 617.12 310.42"/><polygon points="590.23 297.37 589.85 297.19 546.87 320.56 547.67 320.51 590.23 297.37"/><polygon points="594.71 299.55 594.33 299.36 556.39 319.99 557.2 319.94 594.71 299.55"/><polygon points="599.19 301.72 598.82 301.54 565.91 319.43 566.72 319.38 599.19 301.72"/><polygon points="603.67 303.9 603.3 303.71 575.43 318.86 576.24 318.81 603.67 303.9"/><polygon points="608.16 306.07 607.78 305.89 584.96 318.3 585.76 318.25 608.16 306.07"/><polygon points="464.76 236.48 464.38 236.29 280.26 336.39 281.06 336.35 464.76 236.48"/><polygon points="469.24 238.65 468.86 238.47 289.78 335.83 290.58 335.78 469.24 238.65"/><polygon points="473.72 240.83 473.34 240.64 299.3 335.26 300.11 335.21 473.72 240.83"/><polygon points="478.2 243 477.82 242.82 308.82 334.7 309.63 334.65 478.2 243"/><polygon points="460.28 234.3 459.9 234.12 270.74 336.96 271.54 336.91 460.28 234.3"/><polygon points="482.68 245.18 482.3 244.99 318.34 334.13 319.15 334.08 482.68 245.18"/><polygon points="455.8 232.13 455.42 231.94 261.21 337.52 262.02 337.48 455.8 232.13"/><polygon points="430.99 231.78 430.18 231.83 232.65 339.22 233.45 339.17 430.99 231.78"/><polygon points="440.51 231.22 439.7 231.26 242.17 338.66 242.98 338.61 440.51 231.22"/><polygon points="450.03 230.65 449.23 230.7 251.69 338.09 252.5 338.04 450.03 230.65"/><polygon points="523.01 264.75 522.63 264.57 404.04 329.04 404.85 328.99 523.01 264.75"/><polygon points="509.57 258.23 509.19 258.04 375.47 330.74 376.28 330.69 509.57 258.23"/><polygon points="514.05 260.4 513.67 260.22 385 330.17 385.8 330.13 514.05 260.4"/><polygon points="518.53 262.58 518.15 262.39 394.52 329.61 395.32 329.56 518.53 262.58"/><polygon points="527.49 266.93 527.12 266.74 413.56 328.48 414.37 328.43 527.49 266.93"/><polygon points="531.98 269.1 531.6 268.92 423.08 327.91 423.89 327.86 531.98 269.1"/><polygon points="491.64 249.53 491.26 249.34 337.39 333 338.19 332.95 491.64 249.53"/><polygon points="496.13 251.7 495.75 251.52 346.91 332.44 347.72 332.39 496.13 251.7"/><polygon points="487.16 247.35 486.78 247.17 327.87 333.57 328.67 333.52 487.16 247.35"/><polygon points="500.61 253.88 500.23 253.69 356.43 331.87 357.24 331.82 500.61 253.88"/><polygon points="505.09 256.05 504.71 255.87 365.95 331.3 366.76 331.26 505.09 256.05"/></g><polygon class="cls-7" points="0 257.38 0 268.13 174 352.94 628.07 325.97 628.07 315.74 175.61 342.61 0 257.38"/><path class="cls-8" d="M314,0a105.82,105.82,0,0,0-105.7,105.7c0,19.19,8.61,39.83,9,40.7a171,171,0,0,0,12.21,22.85L302,279.06c3,4.5,7.35,7.08,12,7.08s9.08-2.58,12.05-7.07l72.48-109.82a170,170,0,0,0,12.22-22.85c.36-.87,9-21.5,9-40.7A105.83,105.83,0,0,0,314,0Zm85.28,141.57a155.45,155.45,0,0,1-11.14,20.83L315.69,272.22c-1.43,2.17-1.88,2.17-3.31,0L239.9,162.4a156.07,156.07,0,0,1-11.14-20.83c-.1-.26-8-19.25-8-35.87a93.27,93.27,0,0,1,186.53,0C407.3,122.34,399.39,141.39,399.31,141.57Z"/><path class="cls-9" d="M314,49.75a56,56,0,1,0,56,56A56,56,0,0,0,314,49.75Zm0,99.48a43.53,43.53,0,1,1,43.53-43.52A43.57,43.57,0,0,1,314,149.23Z"/></g></g></g></svg>