<svg xmlns="http://www.w3.org/2000/svg" viewBox="0 0 54.6 8.6"><defs><style>.cls-1{fill:#fff;}</style></defs><g id="Ebene_2" data-name="Ebene 2"><g id="Ebene_28" data-name="Ebene 28"><path class="cls-1" d="M4.72,1.58H2V3.5H4.29c.33,0,.49.14.49.4v.8c0,.26-.16.4-.49.4H2V8.2c0,.27-.17.4-.51.4H.5c-.33,0-.5-.13-.5-.4V1.51A1.32,1.32,0,0,1,.56.45,1.8,1.8,0,0,1,.87.25,1.16,1.16,0,0,1,1.21.11L1.56,0H4.72q.51,0,.51.39V1.2C5.23,1.45,5.06,1.58,4.72,1.58Z"/><path class="cls-1" d="M10.9,8.6H8.54l-.33,0-.37-.1a1,1,0,0,1-.27-.1l-.4-.26A1.37,1.37,0,0,1,6.57,7V1.58A1.38,1.38,0,0,1,7.18.48,1.46,1.46,0,0,1,7.5.27,1.6,1.6,0,0,1,7.85.12,2,2,0,0,1,8.21,0l.34,0H10.9l.37,0a2,2,0,0,1,.38.1l.27.1.38.26a1.38,1.38,0,0,1,.63,1.11V7a1.35,1.35,0,0,1-.63,1.1,1.21,1.21,0,0,1-.31.21,1.6,1.6,0,0,1-.35.15l-.37.09A2.13,2.13,0,0,1,10.9,8.6ZM10.9,7V1.58H8.59V7Z"/><path class="cls-1" d="M18.55,8.6H16.2l-.33,0-.38-.1a1.3,1.3,0,0,1-.27-.1l-.4-.26A1.38,1.38,0,0,1,14.23,7V1.58a1.35,1.35,0,0,1,.61-1.1,1.21,1.21,0,0,1,.31-.21A1.6,1.6,0,0,1,15.5.12a1.86,1.86,0,0,1,.37-.1l.34,0h2.34l.38,0a2.06,2.06,0,0,1,.37.1,1.44,1.44,0,0,1,.27.1L20,.48a1.4,1.4,0,0,1,.62,1.11V7A1.37,1.37,0,0,1,20,8.12a1.26,1.26,0,0,1-.32.21,1.6,1.6,0,0,1-.35.15l-.36.09A2.34,2.34,0,0,1,18.55,8.6Zm0-1.59V1.58H16.24V7Z"/><path class="cls-1" d="M27.09,1.58h-1.5V8.2c0,.27-.16.4-.5.4h-1c-.34,0-.5-.13-.5-.4V1.58h-1.5c-.34,0-.51-.13-.51-.38V.39q0-.39.51-.39h5q.51,0,.51.39V1.2C27.6,1.45,27.43,1.58,27.09,1.58Z"/><path class="cls-1" d="M32.33,8.6h-3.6c-.32,0-.49-.13-.49-.4V.39c0-.26.17-.39.49-.39h3.64l.35,0a1.61,1.61,0,0,1,.36.1,1.44,1.44,0,0,1,.27.1l.4.26a1.35,1.35,0,0,1,.61,1.1V3a2.45,2.45,0,0,1,0,.27,2.77,2.77,0,0,1-.1.26,1.71,1.71,0,0,1-.13.23,1.12,1.12,0,0,1-.18.2,4.68,4.68,0,0,0-.34.33c.07.08.2.19.36.34a1.63,1.63,0,0,1,.17.2,1.71,1.71,0,0,1,.13.23,1.34,1.34,0,0,1,.09.26,2,2,0,0,1,0,.26V7a1.38,1.38,0,0,1-.61,1.11,1.87,1.87,0,0,1-.32.2,1.37,1.37,0,0,1-.35.15l-.36.1-.33,0ZM30.26,3.5h2.07V1.58H30.26Zm0,3.51h2.07V5.09H30.26Z"/><path class="cls-1" d="M40.35,8.27,40,6.68H37.83c-.09.36-.22.89-.4,1.59,0,.21-.22.32-.49.32H35.79l-.09,0-.11-.05-.08-.07a.17.17,0,0,1-.06-.06.56.56,0,0,1-.05-.08.31.31,0,0,1,0-.1.28.28,0,0,1,0-.09q.68-2.59,2-7.8c0-.21.21-.32.49-.32h2c.28,0,.44.11.49.32q.66,2.6,2,7.8s0,.06,0,.08h0s0,.07,0,.1l-.05.08-.06.06a.27.27,0,0,1-.08.07l-.1.05-.09,0H40.85C40.57,8.6,40.4,8.49,40.35,8.27ZM39.54,5.1c-.14-.58-.36-1.44-.65-2.58-.14.57-.36,1.43-.65,2.58Z"/><path class="cls-1" d="M47.92,8.6H45.27l-.29,0a2.74,2.74,0,0,1-.37-.08l-.25-.11A2.65,2.65,0,0,1,44,8.16a1.32,1.32,0,0,1-.56-1.07V.39c0-.26.16-.39.5-.39h1c.34,0,.5.13.5.39V7h2.49c.33,0,.49.13.49.4V8.2C48.41,8.47,48.25,8.6,47.92,8.6Z"/><path class="cls-1" d="M54.11,8.6H51.46l-.3,0a3,3,0,0,1-.36-.08,1.83,1.83,0,0,1-.26-.11,3.61,3.61,0,0,1-.38-.23,1.34,1.34,0,0,1-.57-1.07V.39q0-.39.51-.39h1c.33,0,.5.13.5.39V7h2.49c.32,0,.49.13.49.4V8.2C54.6,8.47,54.43,8.6,54.11,8.6Z"/></g></g></svg>