<svg xmlns="http://www.w3.org/2000/svg" viewBox="0 0 634.51 135.33"><defs><style>.cls-1{isolation:isolate;}.cls-2{opacity:0.1;mix-blend-mode:multiply;}.cls-3{fill:#cecdcd;}.cls-4{fill:#5b5b5b;}.cls-5{fill:#fff;}.cls-6{opacity:0.2;mix-blend-mode:overlay;}.cls-7{fill:gray;}</style></defs><g class="cls-1"><g id="Ebene_2" data-name="Ebene 2"><g id="Ebene_23" data-name="Ebene 23"><g class="cls-2"><polygon points="634.51 98.13 182.06 125 6.45 39.77 458.9 12.9 634.51 98.13"/><polygon points="592.71 92.79 211.87 115.41 64.06 43.67 444.9 21.05 592.71 92.79"/><polygon points="423.45 30.89 100.27 50.09 98.89 49.42 422.07 30.22 423.45 30.89"/><polygon points="543.52 89.18 220.34 108.37 218.96 107.7 542.14 88.51 543.52 89.18"/><polygon points="220.21 108.42 218.38 108.53 96.69 49.52 98.71 49.45 220.21 108.42"/><polygon points="545.65 89.12 543.83 89.22 422.14 30.22 424.15 30.15 545.65 89.12"/><polygon points="417.71 103.5 415.8 103.61 267.58 31.72 269.6 31.65 417.71 103.5"/><polygon points="150.65 109.76 151.03 109.94 313.65 21.53 312.85 21.57 150.65 109.76"/><polygon points="146.17 107.58 146.55 107.77 304.13 22.09 303.33 22.14 146.17 107.58"/><polygon points="322.37 21.01 155.13 111.93 155.51 112.12 323.18 20.96 322.37 21.01"/><polygon points="141.69 105.41 142.06 105.59 294.61 22.66 293.81 22.7 141.69 105.41"/><polygon points="137.21 103.23 137.58 103.42 285.09 23.22 284.28 23.27 137.21 103.23"/><polygon points="208.99 27.74 208.19 27.79 101.39 85.85 101.77 86.03 208.99 27.74"/><polygon points="218.51 27.18 217.71 27.22 105.87 88.03 106.25 88.21 218.51 27.18"/><polygon points="237.56 26.05 236.75 26.09 114.84 92.38 115.22 92.56 237.56 26.05"/><polygon points="132.72 101.06 133.1 101.24 275.57 23.79 274.76 23.84 132.72 101.06"/><polygon points="228.04 26.61 227.23 26.66 110.36 90.2 110.73 90.39 228.04 26.61"/><polygon points="128.24 98.88 128.62 99.07 266.05 24.35 265.24 24.4 128.24 98.88"/><polygon points="370.79 18.13 369.98 18.18 177.53 122.81 177.91 122.99 370.79 18.13"/><polygon points="361.26 18.7 360.46 18.75 173.05 120.63 173.43 120.81 361.26 18.7"/><polygon points="199.47 28.31 198.67 28.36 96.91 83.68 97.29 83.86 199.47 28.31"/><polygon points="389.83 17 389.02 17.05 191.49 124.44 192.29 124.39 389.83 17"/><polygon points="351.74 19.26 350.94 19.31 168.57 118.46 168.95 118.64 351.74 19.26"/><polygon points="408.87 15.87 408.07 15.92 210.53 123.31 211.34 123.26 408.87 15.87"/><polygon points="342.22 19.83 341.41 19.88 164.09 116.28 164.47 116.47 342.22 19.83"/><polygon points="119.28 94.53 119.66 94.72 247 25.48 246.2 25.53 119.28 94.53"/><polygon points="123.76 96.71 124.14 96.89 256.52 24.92 255.72 24.97 123.76 96.71"/><polygon points="332.7 20.39 331.89 20.44 159.61 114.11 159.99 114.29 332.7 20.39"/><polygon points="142.34 31.7 141.53 31.75 70.02 70.63 70.4 70.81 142.34 31.7"/><polygon points="56.65 36.79 55.84 36.84 29.69 51.05 30.07 51.24 56.65 36.79"/><polygon points="37.6 37.92 36.79 37.97 20.73 46.7 21.11 46.89 37.6 37.92"/><polygon points="47.12 37.36 46.32 37.4 25.21 48.88 25.59 49.06 47.12 37.36"/><polygon points="66.17 36.23 65.36 36.27 34.17 53.23 34.55 53.41 66.17 36.23"/><polygon points="75.69 35.66 74.88 35.71 38.66 55.4 39.03 55.59 75.69 35.66"/><polygon points="9.04 39.62 8.23 39.67 7.29 40.18 7.67 40.36 9.04 39.62"/><polygon points="379.5 17.61 182.02 124.98 182.06 125 182.77 124.96 380.31 17.57 379.5 17.61"/><polygon points="85.21 35.09 84.4 35.14 43.14 57.58 43.52 57.76 85.21 35.09"/><polygon points="28.08 38.49 27.27 38.54 16.25 44.53 16.63 44.71 28.08 38.49"/><polygon points="18.56 39.05 17.75 39.1 11.77 42.35 12.15 42.54 18.56 39.05"/><polygon points="132.82 32.27 132.01 32.31 65.54 68.45 65.92 68.64 132.82 32.27"/><polygon points="161.38 30.57 160.58 30.62 78.99 74.98 79.37 75.16 161.38 30.57"/><polygon points="151.86 31.14 151.06 31.18 74.5 72.8 74.88 72.99 151.86 31.14"/><polygon points="180.43 29.44 179.62 29.49 87.95 79.33 88.33 79.51 180.43 29.44"/><polygon points="170.91 30 170.1 30.05 83.47 77.15 83.85 77.34 170.91 30"/><polygon points="94.73 34.53 93.92 34.58 47.62 59.75 48 59.94 94.73 34.53"/><polygon points="418.4 15.3 417.59 15.35 220.05 122.75 220.86 122.7 418.4 15.3"/><polygon points="113.78 33.4 112.97 33.45 56.58 64.1 56.96 64.29 113.78 33.4"/><polygon points="104.25 33.96 103.45 34.01 52.1 61.93 52.48 62.11 104.25 33.96"/><polygon points="189.95 28.87 189.14 28.92 92.43 81.5 92.81 81.69 189.95 28.87"/><polygon points="123.3 32.83 122.49 32.88 61.06 66.28 61.44 66.46 123.3 32.83"/><polygon points="399.35 16.44 398.55 16.48 201.01 123.88 201.81 123.83 399.35 16.44"/><polygon points="565.31 64.54 564.93 64.36 486.67 106.91 487.47 106.86 565.31 64.54"/><polygon points="569.79 66.72 569.41 66.53 496.19 106.34 496.99 106.3 569.79 66.72"/><polygon points="574.27 68.89 573.89 68.71 505.71 105.78 506.51 105.73 574.27 68.89"/><polygon points="578.76 71.07 578.38 70.88 515.23 105.21 516.04 105.17 578.76 71.07"/><polygon points="583.24 73.24 582.86 73.06 524.75 104.65 525.56 104.6 583.24 73.24"/><polygon points="547.39 55.84 547.01 55.66 448.58 109.17 449.38 109.13 547.39 55.84"/><polygon points="551.87 58.02 551.49 57.83 458.1 108.61 458.9 108.56 551.87 58.02"/><polygon points="560.83 62.37 560.45 62.18 477.14 107.48 477.95 107.43 560.83 62.37"/><polygon points="587.72 75.42 587.34 75.23 534.27 104.08 535.08 104.03 587.72 75.42"/><polygon points="542.91 53.67 542.53 53.48 439.06 109.74 439.86 109.69 542.91 53.67"/><polygon points="556.35 60.19 555.97 60.01 467.62 108.04 468.43 107.99 556.35 60.19"/><polygon points="619.09 90.64 618.71 90.46 600.93 100.12 601.73 100.08 619.09 90.64"/><polygon points="592.2 77.59 591.82 77.41 543.8 103.52 544.6 103.47 592.2 77.59"/><polygon points="628.05 94.99 627.67 94.81 619.97 98.99 620.78 98.94 628.05 94.99"/><polygon points="632.53 97.17 632.15 96.98 629.49 98.43 630.3 98.38 632.53 97.17"/><polygon points="427.92 14.74 427.11 14.79 229.57 122.18 230.38 122.13 427.92 14.74"/><polygon points="623.57 92.82 623.19 92.63 610.45 99.56 611.25 99.51 623.57 92.82"/><polygon points="596.68 79.77 596.3 79.58 553.32 102.95 554.12 102.9 596.68 79.77"/><polygon points="601.16 81.94 600.78 81.76 562.84 102.39 563.64 102.34 601.16 81.94"/><polygon points="605.64 84.12 605.26 83.93 572.36 101.82 573.17 101.77 605.64 84.12"/><polygon points="610.13 86.29 609.75 86.11 581.88 101.25 582.69 101.21 610.13 86.29"/><polygon points="614.61 88.47 614.23 88.28 591.4 100.69 592.21 100.64 614.61 88.47"/><polygon points="471.21 18.87 470.83 18.69 286.71 118.79 287.51 118.74 471.21 18.87"/><polygon points="475.69 21.05 475.31 20.86 296.23 118.22 297.03 118.17 475.69 21.05"/><polygon points="480.17 23.22 479.79 23.04 305.75 117.66 306.56 117.61 480.17 23.22"/><polygon points="484.65 25.39 484.27 25.21 315.27 117.09 316.08 117.04 484.65 25.39"/><polygon points="466.73 16.7 466.35 16.51 277.19 119.35 277.99 119.31 466.73 16.7"/><polygon points="489.13 27.57 488.75 27.39 324.79 116.53 325.6 116.48 489.13 27.57"/><polygon points="462.25 14.52 461.87 14.34 267.66 119.92 268.47 119.87 462.25 14.52"/><polygon points="437.44 14.17 436.63 14.22 239.1 121.61 239.9 121.57 437.44 14.17"/><polygon points="446.96 13.61 446.15 13.66 248.62 121.05 249.43 121 446.96 13.61"/><polygon points="456.48 13.04 455.68 13.09 258.14 120.48 258.95 120.44 456.48 13.04"/><polygon points="529.46 47.14 529.08 46.96 410.49 111.44 411.3 111.39 529.46 47.14"/><polygon points="516.02 40.62 515.64 40.44 381.92 113.13 382.73 113.08 516.02 40.62"/><polygon points="520.5 42.79 520.12 42.61 391.45 112.57 392.25 112.52 520.5 42.79"/><polygon points="524.98 44.97 524.6 44.78 400.97 112 401.77 111.95 524.98 44.97"/><polygon points="533.94 49.32 533.56 49.13 420.01 110.87 420.82 110.82 533.94 49.32"/><polygon points="538.42 51.49 538.05 51.31 429.53 110.3 430.34 110.26 538.42 51.49"/><polygon points="498.09 31.92 497.71 31.73 343.84 115.39 344.64 115.35 498.09 31.92"/><polygon points="502.58 34.09 502.2 33.91 353.36 114.83 354.17 114.78 502.58 34.09"/><polygon points="493.61 29.75 493.23 29.56 334.31 115.96 335.12 115.91 493.61 29.75"/><polygon points="507.06 36.27 506.68 36.09 362.88 114.26 363.69 114.22 507.06 36.27"/><polygon points="511.54 38.44 511.16 38.26 372.4 113.7 373.21 113.65 511.54 38.44"/><polygon points="6.45 39.77 6.45 50.53 180.45 135.33 634.51 108.36 634.51 98.13 182.06 125 6.45 39.77"/></g><polygon class="cls-3" points="628.07 85.23 175.61 112.1 0 26.87 452.45 0 628.07 85.23"/><polygon class="cls-4" points="586.26 79.89 205.42 102.51 57.61 30.77 438.45 8.15 586.26 79.89"/><polygon class="cls-5" points="417 18 93.82 37.19 92.44 36.52 415.62 17.33 417 18"/><polygon class="cls-5" points="537.07 76.28 213.89 95.47 212.51 94.8 535.69 75.61 537.07 76.28"/><polygon class="cls-5" points="213.76 95.52 211.93 95.63 90.24 36.62 92.26 36.55 213.76 95.52"/><polygon class="cls-5" points="539.2 76.22 537.38 76.33 415.69 17.32 417.7 17.25 539.2 76.22"/><polygon class="cls-5" points="411.26 90.6 409.35 90.72 261.13 18.82 263.15 18.75 411.26 90.6"/><g class="cls-6"><polygon points="144.2 96.86 144.58 97.04 307.2 8.63 306.4 8.68 144.2 96.86"/><polygon points="139.72 94.68 140.1 94.87 297.68 9.19 296.88 9.24 139.72 94.68"/><polygon points="315.92 8.11 148.68 99.03 149.06 99.22 316.73 8.06 315.92 8.11"/><polygon points="135.24 92.51 135.62 92.69 288.16 9.76 287.36 9.81 135.24 92.51"/><polygon points="130.75 90.33 131.13 90.52 278.64 10.32 277.83 10.37 130.75 90.33"/><polygon points="202.54 14.84 201.74 14.89 94.94 72.95 95.32 73.14 202.54 14.84"/><polygon points="212.07 14.28 211.26 14.33 99.42 75.13 99.8 75.31 212.07 14.28"/><polygon points="231.11 13.15 230.31 13.2 108.39 79.48 108.77 79.66 231.11 13.15"/><polygon points="126.27 88.16 126.65 88.34 269.12 10.89 268.31 10.94 126.27 88.16"/><polygon points="221.59 13.71 220.78 13.76 103.91 77.3 104.28 77.49 221.59 13.71"/><polygon points="121.79 85.98 122.17 86.17 259.6 11.46 258.79 11.5 121.79 85.98"/><polygon points="364.34 5.23 363.53 5.28 171.09 109.91 171.47 110.09 364.34 5.23"/><polygon points="354.81 5.8 354.01 5.85 166.6 107.73 166.98 107.92 354.81 5.8"/><polygon points="193.02 15.41 192.22 15.46 90.46 70.78 90.84 70.96 193.02 15.41"/><polygon points="383.38 4.1 382.57 4.15 185.04 111.54 185.84 111.5 383.38 4.1"/><polygon points="345.29 6.37 344.49 6.41 162.12 105.56 162.5 105.74 345.29 6.37"/><polygon points="402.42 2.97 401.62 3.02 204.08 110.41 204.89 110.36 402.42 2.97"/><polygon points="335.77 6.93 334.96 6.98 157.64 103.38 158.02 103.57 335.77 6.93"/><polygon points="112.83 81.63 113.21 81.82 240.55 12.59 239.75 12.63 112.83 81.63"/><polygon points="117.31 83.81 117.69 83.99 250.07 12.02 249.27 12.07 117.31 83.81"/><polygon points="326.25 7.5 325.44 7.54 153.16 101.21 153.54 101.39 326.25 7.5"/><polygon points="135.89 18.8 135.09 18.85 63.57 57.73 63.95 57.91 135.89 18.8"/><polygon points="50.2 23.89 49.39 23.94 23.24 38.16 23.62 38.34 50.2 23.89"/><polygon points="31.15 25.02 30.34 25.07 14.28 33.8 14.66 33.99 31.15 25.02"/><polygon points="40.67 24.46 39.87 24.51 18.76 35.98 19.14 36.16 40.67 24.46"/><polygon points="59.72 23.33 58.91 23.38 27.73 40.33 28.1 40.51 59.72 23.33"/><polygon points="69.24 22.76 68.43 22.81 32.21 42.5 32.59 42.69 69.24 22.76"/><polygon points="2.59 26.72 1.78 26.77 0.84 27.28 1.22 27.46 2.59 26.72"/><polygon points="373.05 4.72 175.57 112.08 175.61 112.1 176.32 112.06 373.86 4.67 373.05 4.72"/><polygon points="78.76 22.2 77.95 22.24 36.69 44.68 37.07 44.86 78.76 22.2"/><polygon points="21.63 25.59 20.82 25.64 9.8 31.63 10.18 31.81 21.63 25.59"/><polygon points="12.11 26.16 11.3 26.2 5.32 29.45 5.7 29.64 12.11 26.16"/><polygon points="126.37 19.37 125.56 19.42 59.09 55.55 59.47 55.74 126.37 19.37"/><polygon points="154.94 17.67 154.13 17.72 72.54 62.08 72.92 62.26 154.94 17.67"/><polygon points="145.41 18.24 144.61 18.29 68.06 59.9 68.44 60.09 145.41 18.24"/><polygon points="173.98 16.54 173.17 16.59 81.5 66.43 81.88 66.61 173.98 16.54"/><polygon points="164.46 17.11 163.65 17.15 77.02 64.25 77.4 64.44 164.46 17.11"/><polygon points="88.28 21.63 87.48 21.68 41.17 46.85 41.55 47.04 88.28 21.63"/><polygon points="411.95 2.41 411.14 2.45 213.6 109.85 214.41 109.8 411.95 2.41"/><polygon points="107.33 20.5 106.52 20.55 50.13 51.2 50.51 51.39 107.33 20.5"/><polygon points="97.8 21.07 97 21.11 45.65 49.03 46.03 49.21 97.8 21.07"/><polygon points="183.5 15.97 182.69 16.02 85.98 68.6 86.36 68.79 183.5 15.97"/><polygon points="116.85 19.93 116.04 19.98 54.61 53.38 54.99 53.56 116.85 19.93"/><polygon points="392.9 3.54 392.1 3.58 194.56 110.98 195.37 110.93 392.9 3.54"/><polygon points="558.86 51.64 558.48 51.46 480.21 94.01 481.02 93.96 558.86 51.64"/><polygon points="563.34 53.82 562.97 53.63 489.74 93.45 490.54 93.4 563.34 53.82"/><polygon points="567.83 55.99 567.45 55.81 499.26 92.88 500.06 92.83 567.83 55.99"/><polygon points="572.31 58.17 571.93 57.98 508.78 92.31 509.59 92.27 572.31 58.17"/><polygon points="576.79 60.34 576.41 60.16 518.3 91.75 519.11 91.7 576.79 60.34"/><polygon points="540.94 42.94 540.56 42.76 442.13 96.27 442.93 96.23 540.94 42.94"/><polygon points="545.42 45.12 545.04 44.94 451.65 95.71 452.45 95.66 545.42 45.12"/><polygon points="554.38 49.47 554 49.28 470.69 94.58 471.5 94.53 554.38 49.47"/><polygon points="581.27 62.52 580.89 62.33 527.83 91.18 528.63 91.14 581.27 62.52"/><polygon points="536.46 40.77 536.08 40.59 432.61 96.84 433.41 96.79 536.46 40.77"/><polygon points="549.9 47.29 549.52 47.11 461.17 95.14 461.98 95.09 549.9 47.29"/><polygon points="612.64 77.74 612.26 77.56 594.48 87.22 595.28 87.18 612.64 77.74"/><polygon points="585.75 64.69 585.37 64.51 537.35 90.62 538.15 90.57 585.75 64.69"/><polygon points="621.6 82.09 621.22 81.91 613.52 86.09 614.33 86.05 621.6 82.09"/><polygon points="626.08 84.27 625.7 84.08 623.04 85.53 623.85 85.48 626.08 84.27"/><polygon points="421.47 1.84 420.66 1.89 223.13 109.28 223.93 109.23 421.47 1.84"/><polygon points="617.12 79.92 616.74 79.73 604 86.66 604.81 86.61 617.12 79.92"/><polygon points="590.23 66.87 589.85 66.68 546.87 90.05 547.67 90 590.23 66.87"/><polygon points="594.71 69.04 594.33 68.86 556.39 89.49 557.2 89.44 594.71 69.04"/><polygon points="599.19 71.22 598.82 71.03 565.91 88.92 566.72 88.87 599.19 71.22"/><polygon points="603.67 73.39 603.3 73.21 575.43 88.36 576.24 88.31 603.67 73.39"/><polygon points="608.16 75.57 607.78 75.38 584.96 87.79 585.76 87.74 608.16 75.57"/><polygon points="464.76 5.97 464.38 5.79 280.26 105.89 281.06 105.84 464.76 5.97"/><polygon points="469.24 8.15 468.86 7.96 289.78 105.32 290.58 105.28 469.24 8.15"/><polygon points="473.72 10.32 473.34 10.14 299.3 104.76 300.11 104.71 473.72 10.32"/><polygon points="478.2 12.5 477.82 12.31 308.82 104.19 309.63 104.14 478.2 12.5"/><polygon points="460.28 3.8 459.9 3.61 270.74 106.45 271.54 106.41 460.28 3.8"/><polygon points="482.68 14.67 482.3 14.49 318.34 103.63 319.15 103.58 482.68 14.67"/><polygon points="455.8 1.62 455.42 1.44 261.21 107.02 262.02 106.97 455.8 1.62"/><polygon points="430.99 1.27 430.18 1.32 232.65 108.72 233.45 108.67 430.99 1.27"/><polygon points="440.51 0.71 439.7 0.76 242.17 108.15 242.98 108.1 440.51 0.71"/><polygon points="450.03 0.14 449.23 0.19 251.69 107.58 252.5 107.54 450.03 0.14"/><polygon points="523.01 34.24 522.63 34.06 404.04 98.54 404.85 98.49 523.01 34.24"/><polygon points="509.57 27.72 509.19 27.54 375.47 100.23 376.28 100.19 509.57 27.72"/><polygon points="514.05 29.89 513.67 29.71 385 99.67 385.8 99.62 514.05 29.89"/><polygon points="518.53 32.07 518.15 31.89 394.52 99.1 395.32 99.05 518.53 32.07"/><polygon points="527.49 36.42 527.12 36.24 413.56 97.97 414.37 97.92 527.49 36.42"/><polygon points="531.98 38.59 531.6 38.41 423.08 97.41 423.89 97.36 531.98 38.59"/><polygon points="491.64 19.02 491.26 18.84 337.39 102.5 338.19 102.45 491.64 19.02"/><polygon points="496.13 21.2 495.75 21.01 346.91 101.93 347.72 101.88 496.13 21.2"/><polygon points="487.16 16.85 486.78 16.66 327.87 103.06 328.67 103.01 487.16 16.85"/><polygon points="500.61 23.37 500.23 23.19 356.43 101.36 357.24 101.32 500.61 23.37"/><polygon points="505.09 25.55 504.71 25.36 365.95 100.8 366.76 100.75 505.09 25.55"/></g><polygon class="cls-7" points="0 26.87 0 37.63 174 122.43 628.07 95.46 628.07 85.23 175.61 112.1 0 26.87"/></g></g></g></svg>