<svg xmlns="http://www.w3.org/2000/svg" viewBox="0 0 50 10.66"><defs><style>.cls-1{isolation:isolate;}.cls-2{opacity:0.1;mix-blend-mode:multiply;}.cls-3{fill:#cecdcd;}.cls-4{fill:#5b5b5b;}.cls-5{fill:#fff;}.cls-6{opacity:0.2;mix-blend-mode:overlay;}.cls-7{fill:gray;}</style></defs><g class="cls-1"><g id="Ebene_2" data-name="Ebene 2"><g id="Ebene_23" data-name="Ebene 23"><g class="cls-2"><polygon points="50 7.73 14.35 9.85 0.51 3.13 36.16 1.02 50 7.73"/><polygon points="46.71 7.31 16.7 9.09 5.05 3.44 35.06 1.66 46.71 7.31"/><polygon points="33.37 2.44 7.9 3.95 7.79 3.89 33.26 2.38 33.37 2.44"/><polygon points="42.83 7.03 17.36 8.54 17.25 8.49 42.72 6.97 42.83 7.03"/><polygon points="17.35 8.54 17.21 8.55 7.62 3.9 7.78 3.9 17.35 8.54"/><polygon points="43 7.02 42.85 7.03 33.27 2.38 33.42 2.38 43 7.02"/><polygon points="32.92 8.16 32.77 8.16 21.09 2.5 21.24 2.49 32.92 8.16"/><polygon points="11.87 8.65 11.9 8.66 24.72 1.7 24.65 1.7 11.87 8.65"/><polygon points="11.52 8.48 11.55 8.49 23.97 1.74 23.9 1.75 11.52 8.48"/><polygon points="25.4 1.66 12.22 8.82 12.25 8.84 25.47 1.65 25.4 1.66"/><polygon points="11.16 8.31 11.2 8.32 23.21 1.78 23.15 1.79 11.16 8.31"/><polygon points="10.81 8.13 10.84 8.15 22.46 1.83 22.4 1.83 10.81 8.13"/><polygon points="16.47 2.19 16.41 2.19 7.99 6.76 8.02 6.78 16.47 2.19"/><polygon points="17.22 2.14 17.16 2.15 8.34 6.94 8.37 6.95 17.22 2.14"/><polygon points="18.72 2.05 18.66 2.06 9.05 7.28 9.08 7.29 18.72 2.05"/><polygon points="10.46 7.96 10.49 7.98 21.71 1.88 21.65 1.88 10.46 7.96"/><polygon points="17.97 2.1 17.91 2.1 8.7 7.11 8.73 7.12 17.97 2.1"/><polygon points="10.11 7.79 10.13 7.81 20.96 1.92 20.9 1.92 10.11 7.79"/><polygon points="29.22 1.43 29.15 1.43 13.99 9.68 14.02 9.69 29.22 1.43"/><polygon points="28.47 1.47 28.4 1.48 13.64 9.51 13.67 9.52 28.47 1.47"/><polygon points="15.72 2.23 15.65 2.23 7.64 6.59 7.67 6.61 15.72 2.23"/><polygon points="30.72 1.34 30.66 1.34 15.09 9.81 15.15 9.8 30.72 1.34"/><polygon points="27.72 1.52 27.65 1.52 13.28 9.33 13.31 9.35 27.72 1.52"/><polygon points="32.22 1.25 32.16 1.25 16.59 9.72 16.65 9.71 32.22 1.25"/><polygon points="26.97 1.56 26.9 1.57 12.93 9.16 12.96 9.18 26.97 1.56"/><polygon points="9.4 7.45 9.43 7.46 19.46 2.01 19.4 2.01 9.4 7.45"/><polygon points="9.75 7.62 9.78 7.63 20.21 1.96 20.15 1.97 9.75 7.62"/><polygon points="26.22 1.61 26.15 1.61 12.58 8.99 12.61 9.01 26.22 1.61"/><polygon points="11.22 2.5 11.15 2.5 5.52 5.57 5.55 5.58 11.22 2.5"/><polygon points="4.46 2.9 4.4 2.9 2.34 4.02 2.37 4.04 4.46 2.9"/><polygon points="2.96 2.99 2.9 2.99 1.63 3.68 1.66 3.69 2.96 2.99"/><polygon points="3.71 2.94 3.65 2.95 1.99 3.85 2.02 3.87 3.71 2.94"/><polygon points="5.21 2.85 5.15 2.86 2.69 4.19 2.72 4.21 5.21 2.85"/><polygon points="5.96 2.81 5.9 2.81 3.05 4.37 3.08 4.38 5.96 2.81"/><polygon points="0.71 3.12 0.65 3.13 0.57 3.17 0.6 3.18 0.71 3.12"/><polygon points="29.91 1.39 14.34 9.85 14.35 9.85 14.4 9.85 29.97 1.38 29.91 1.39"/><polygon points="6.71 2.77 6.65 2.77 3.4 4.54 3.43 4.55 6.71 2.77"/><polygon points="2.21 3.03 2.15 3.04 1.28 3.51 1.31 3.52 2.21 3.03"/><polygon points="1.46 3.08 1.4 3.08 0.93 3.34 0.96 3.35 1.46 3.08"/><polygon points="10.47 2.54 10.4 2.55 5.17 5.39 5.2 5.41 10.47 2.54"/><polygon points="12.72 2.41 12.65 2.41 6.22 5.91 6.25 5.92 12.72 2.41"/><polygon points="11.97 2.45 11.9 2.46 5.87 5.74 5.9 5.75 11.97 2.45"/><polygon points="14.22 2.32 14.15 2.32 6.93 6.25 6.96 6.26 14.22 2.32"/><polygon points="13.47 2.36 13.4 2.37 6.58 6.08 6.61 6.09 13.47 2.36"/><polygon points="7.46 2.72 7.4 2.73 3.75 4.71 3.78 4.72 7.46 2.72"/><polygon points="32.97 1.21 32.91 1.21 17.34 9.67 17.4 9.67 32.97 1.21"/><polygon points="8.97 2.63 8.9 2.64 4.46 5.05 4.49 5.07 8.97 2.63"/><polygon points="8.21 2.68 8.15 2.68 4.11 4.88 4.13 4.89 8.21 2.68"/><polygon points="14.97 2.27 14.9 2.28 7.28 6.42 7.31 6.44 14.97 2.27"/><polygon points="9.72 2.59 9.65 2.59 4.81 5.22 4.84 5.24 9.72 2.59"/><polygon points="31.47 1.29 31.41 1.3 15.84 9.76 15.9 9.76 31.47 1.29"/><polygon points="44.55 5.09 44.52 5.07 38.35 8.43 38.41 8.42 44.55 5.09"/><polygon points="44.9 5.26 44.87 5.24 39.1 8.38 39.16 8.38 44.9 5.26"/><polygon points="45.25 5.43 45.22 5.41 39.85 8.34 39.91 8.33 45.25 5.43"/><polygon points="45.61 5.6 45.58 5.59 40.6 8.29 40.66 8.29 45.61 5.6"/><polygon points="45.96 5.77 45.93 5.76 41.35 8.25 41.41 8.24 45.96 5.77"/><polygon points="43.13 4.4 43.1 4.39 35.35 8.6 35.41 8.6 43.13 4.4"/><polygon points="43.49 4.57 43.46 4.56 36.1 8.56 36.16 8.55 43.49 4.57"/><polygon points="44.19 4.92 44.16 4.9 37.6 8.47 37.66 8.46 44.19 4.92"/><polygon points="46.31 5.94 46.28 5.93 42.1 8.2 42.16 8.2 46.31 5.94"/><polygon points="42.78 4.23 42.75 4.21 34.6 8.65 34.66 8.64 42.78 4.23"/><polygon points="43.84 4.74 43.81 4.73 36.85 8.51 36.91 8.51 43.84 4.74"/><polygon points="48.78 7.14 48.75 7.13 47.35 7.89 47.42 7.89 48.78 7.14"/><polygon points="46.67 6.11 46.64 6.1 42.85 8.16 42.91 8.15 46.67 6.11"/><polygon points="49.49 7.49 49.46 7.47 48.85 7.8 48.92 7.8 49.49 7.49"/><polygon points="49.84 7.66 49.81 7.64 49.6 7.76 49.67 7.75 49.84 7.66"/><polygon points="33.72 1.16 33.66 1.17 18.09 9.63 18.15 9.62 33.72 1.16"/><polygon points="49.14 7.31 49.11 7.3 48.1 7.84 48.17 7.84 49.14 7.31"/><polygon points="47.02 6.29 46.99 6.27 43.6 8.11 43.66 8.11 47.02 6.29"/><polygon points="47.37 6.46 47.34 6.44 44.35 8.07 44.41 8.06 47.37 6.46"/><polygon points="47.73 6.63 47.7 6.61 45.1 8.02 45.17 8.02 47.73 6.63"/><polygon points="48.08 6.8 48.05 6.79 45.85 7.98 45.92 7.97 48.08 6.8"/><polygon points="48.43 6.97 48.4 6.96 46.6 7.93 46.67 7.93 48.43 6.97"/><polygon points="37.13 1.49 37.1 1.47 22.59 9.36 22.66 9.36 37.13 1.49"/><polygon points="37.48 1.66 37.45 1.64 23.34 9.32 23.41 9.31 37.48 1.66"/><polygon points="37.84 1.83 37.81 1.81 24.09 9.27 24.16 9.27 37.84 1.83"/><polygon points="38.19 2 38.16 1.99 24.84 9.23 24.91 9.22 38.19 2"/><polygon points="36.78 1.32 36.75 1.3 21.84 9.4 21.91 9.4 36.78 1.32"/><polygon points="38.54 2.17 38.51 2.16 25.59 9.18 25.66 9.18 38.54 2.17"/><polygon points="36.42 1.14 36.4 1.13 21.09 9.45 21.16 9.45 36.42 1.14"/><polygon points="34.47 1.12 34.41 1.12 18.84 9.58 18.9 9.58 34.47 1.12"/><polygon points="35.22 1.07 35.16 1.08 19.59 9.54 19.66 9.54 35.22 1.07"/><polygon points="35.97 1.03 35.91 1.03 20.34 9.49 20.41 9.49 35.97 1.03"/><polygon points="41.72 3.71 41.69 3.7 32.35 8.78 32.41 8.78 41.72 3.71"/><polygon points="40.66 3.2 40.63 3.19 30.1 8.91 30.16 8.91 40.66 3.2"/><polygon points="41.02 3.37 40.99 3.36 30.85 8.87 30.91 8.87 41.02 3.37"/><polygon points="41.37 3.54 41.34 3.53 31.6 8.83 31.66 8.82 41.37 3.54"/><polygon points="42.08 3.89 42.05 3.87 33.1 8.74 33.16 8.73 42.08 3.89"/><polygon points="42.43 4.06 42.4 4.04 33.85 8.69 33.91 8.69 42.43 4.06"/><polygon points="39.25 2.52 39.22 2.5 27.09 9.09 27.16 9.09 39.25 2.52"/><polygon points="39.6 2.69 39.57 2.67 27.84 9.05 27.91 9.04 39.6 2.69"/><polygon points="38.9 2.34 38.87 2.33 26.34 9.14 26.41 9.13 38.9 2.34"/><polygon points="39.96 2.86 39.93 2.84 28.59 9 28.66 9 39.96 2.86"/><polygon points="40.31 3.03 40.28 3.02 29.34 8.96 29.41 8.96 40.31 3.03"/><polygon points="0.51 3.13 0.51 3.98 14.22 10.66 50 8.54 50 7.73 14.35 9.85 0.51 3.13"/></g><polygon class="cls-3" points="49.49 6.72 13.84 8.83 0 2.12 35.65 0 49.49 6.72"/><polygon class="cls-4" points="46.2 6.3 16.19 8.08 4.54 2.42 34.55 0.64 46.2 6.3"/><polygon class="cls-5" points="32.86 1.42 7.39 2.93 7.28 2.88 32.75 1.36 32.86 1.42"/><polygon class="cls-5" points="42.32 6.01 16.86 7.52 16.75 7.47 42.21 5.96 42.32 6.01"/><polygon class="cls-5" points="16.84 7.53 16.7 7.54 7.11 2.89 7.27 2.88 16.84 7.53"/><polygon class="cls-5" points="42.49 6.01 42.35 6.01 32.76 1.36 32.91 1.36 42.49 6.01"/><polygon class="cls-5" points="32.41 7.14 32.26 7.15 20.58 1.48 20.74 1.48 32.41 7.14"/><g class="cls-6"><polygon points="11.36 7.63 11.39 7.65 24.21 0.68 24.14 0.68 11.36 7.63"/><polygon points="11.01 7.46 11.04 7.48 23.46 0.72 23.39 0.73 11.01 7.46"/><polygon points="24.89 0.64 11.72 7.8 11.75 7.82 24.96 0.64 24.89 0.64"/><polygon points="10.66 7.29 10.69 7.3 22.71 0.77 22.64 0.77 10.66 7.29"/><polygon points="10.3 7.12 10.33 7.13 21.96 0.81 21.89 0.82 10.3 7.12"/><polygon points="15.96 1.17 15.9 1.17 7.48 5.75 7.51 5.76 15.96 1.17"/><polygon points="16.71 1.13 16.65 1.13 7.83 5.92 7.87 5.93 16.71 1.13"/><polygon points="18.21 1.04 18.15 1.04 8.54 6.26 8.57 6.28 18.21 1.04"/><polygon points="9.95 6.95 9.98 6.96 21.21 0.86 21.14 0.86 9.95 6.95"/><polygon points="17.46 1.08 17.4 1.08 8.19 6.09 8.22 6.11 17.46 1.08"/><polygon points="9.6 6.78 9.63 6.79 20.46 0.9 20.39 0.91 9.6 6.78"/><polygon points="28.71 0.41 28.65 0.42 13.48 8.66 13.51 8.68 28.71 0.41"/><polygon points="27.96 0.46 27.9 0.46 13.13 8.49 13.16 8.5 27.96 0.46"/><polygon points="15.21 1.21 15.15 1.22 7.13 5.58 7.16 5.59 15.21 1.21"/><polygon points="30.21 0.32 30.15 0.33 14.58 8.79 14.64 8.79 30.21 0.32"/><polygon points="27.21 0.5 27.15 0.51 12.78 8.32 12.8 8.33 27.21 0.5"/><polygon points="31.71 0.23 31.65 0.24 16.08 8.7 16.14 8.7 31.71 0.23"/><polygon points="26.46 0.55 26.39 0.55 12.42 8.15 12.45 8.16 26.46 0.55"/><polygon points="8.89 6.43 8.92 6.45 18.96 0.99 18.89 1 8.89 6.43"/><polygon points="9.24 6.6 9.27 6.62 19.71 0.95 19.64 0.95 9.24 6.6"/><polygon points="25.71 0.59 25.64 0.59 12.07 7.97 12.1 7.99 25.71 0.59"/><polygon points="10.71 1.48 10.64 1.49 5.01 4.55 5.04 4.56 10.71 1.48"/><polygon points="3.96 1.88 3.89 1.89 1.83 3.01 1.86 3.02 3.96 1.88"/><polygon points="2.46 1.97 2.39 1.98 1.13 2.66 1.16 2.68 2.46 1.97"/><polygon points="3.21 1.93 3.14 1.93 1.48 2.83 1.51 2.85 3.21 1.93"/><polygon points="4.71 1.84 4.64 1.84 2.19 3.18 2.21 3.19 4.71 1.84"/><polygon points="5.46 1.79 5.39 1.8 2.54 3.35 2.57 3.36 5.46 1.79"/><polygon points="0.2 2.11 0.14 2.11 0.07 2.15 0.1 2.16 0.2 2.11"/><polygon points="29.4 0.37 13.84 8.83 13.84 8.83 13.89 8.83 29.46 0.37 29.4 0.37"/><polygon points="6.21 1.75 6.14 1.75 2.89 3.52 2.92 3.54 6.21 1.75"/><polygon points="1.7 2.02 1.64 2.02 0.77 2.49 0.8 2.51 1.7 2.02"/><polygon points="0.95 2.06 0.89 2.06 0.42 2.32 0.45 2.34 0.95 2.06"/><polygon points="9.96 1.53 9.89 1.53 4.66 4.38 4.69 4.39 9.96 1.53"/><polygon points="12.21 1.39 12.14 1.4 5.72 4.89 5.75 4.91 12.21 1.39"/><polygon points="11.46 1.44 11.39 1.44 5.36 4.72 5.39 4.74 11.46 1.44"/><polygon points="13.71 1.3 13.65 1.31 6.42 5.24 6.45 5.25 13.71 1.3"/><polygon points="12.96 1.35 12.9 1.35 6.07 5.06 6.1 5.08 12.96 1.35"/><polygon points="6.96 1.7 6.89 1.71 3.24 3.69 3.27 3.71 6.96 1.7"/><polygon points="32.46 0.19 32.4 0.19 16.83 8.66 16.9 8.65 32.46 0.19"/><polygon points="8.46 1.61 8.39 1.62 3.95 4.04 3.98 4.05 8.46 1.61"/><polygon points="7.71 1.66 7.64 1.66 3.6 3.86 3.63 3.88 7.71 1.66"/><polygon points="14.46 1.26 14.4 1.26 6.78 5.41 6.8 5.42 14.46 1.26"/><polygon points="9.21 1.57 9.14 1.57 4.3 4.21 4.33 4.22 9.21 1.57"/><polygon points="30.96 0.28 30.9 0.28 15.33 8.74 15.39 8.74 30.96 0.28"/><polygon points="44.04 4.07 44.01 4.05 37.84 7.41 37.91 7.4 44.04 4.07"/><polygon points="44.39 4.24 44.36 4.23 38.59 7.36 38.66 7.36 44.39 4.24"/><polygon points="44.74 4.41 44.72 4.4 39.34 7.32 39.41 7.32 44.74 4.41"/><polygon points="45.1 4.58 45.07 4.57 40.09 7.27 40.16 7.27 45.1 4.58"/><polygon points="45.45 4.75 45.42 4.74 40.84 7.23 40.91 7.23 45.45 4.75"/><polygon points="42.63 3.38 42.6 3.37 34.84 7.59 34.9 7.58 42.63 3.38"/><polygon points="42.98 3.56 42.95 3.54 35.59 7.54 35.65 7.54 42.98 3.56"/><polygon points="43.69 3.9 43.66 3.88 37.09 7.45 37.15 7.45 43.69 3.9"/><polygon points="45.8 4.93 45.77 4.91 41.59 7.18 41.66 7.18 45.8 4.93"/><polygon points="42.27 3.21 42.24 3.2 34.09 7.63 34.15 7.63 42.27 3.21"/><polygon points="43.33 3.73 43.3 3.71 36.34 7.5 36.4 7.49 43.33 3.73"/><polygon points="48.28 6.13 48.25 6.11 46.84 6.87 46.91 6.87 48.28 6.13"/><polygon points="46.16 5.1 46.13 5.08 42.34 7.14 42.41 7.14 46.16 5.1"/><polygon points="48.98 6.47 48.95 6.45 48.35 6.78 48.41 6.78 48.98 6.47"/><polygon points="49.34 6.64 49.31 6.63 49.1 6.74 49.16 6.74 49.34 6.64"/><polygon points="33.21 0.14 33.15 0.15 17.58 8.61 17.65 8.61 33.21 0.14"/><polygon points="48.63 6.3 48.6 6.28 47.59 6.83 47.66 6.83 48.63 6.3"/><polygon points="46.51 5.27 46.48 5.25 43.09 7.1 43.16 7.09 46.51 5.27"/><polygon points="46.86 5.44 46.83 5.43 43.84 7.05 43.91 7.05 46.86 5.44"/><polygon points="47.22 5.61 47.19 5.6 44.59 7.01 44.66 7 47.22 5.61"/><polygon points="47.57 5.78 47.54 5.77 45.34 6.96 45.41 6.96 47.57 5.78"/><polygon points="47.92 5.96 47.89 5.94 46.09 6.92 46.16 6.91 47.92 5.96"/><polygon points="36.62 0.47 36.59 0.46 22.08 8.34 22.15 8.34 36.62 0.47"/><polygon points="36.98 0.64 36.95 0.63 22.84 8.3 22.9 8.3 36.98 0.64"/><polygon points="37.33 0.81 37.3 0.8 23.59 8.26 23.65 8.25 37.33 0.81"/><polygon points="37.68 0.98 37.65 0.97 24.34 8.21 24.4 8.21 37.68 0.98"/><polygon points="36.27 0.3 36.24 0.28 21.33 8.39 21.4 8.38 36.27 0.3"/><polygon points="38.04 1.16 38.01 1.14 25.09 8.17 25.15 8.16 38.04 1.16"/><polygon points="35.92 0.13 35.89 0.11 20.58 8.43 20.65 8.43 35.92 0.13"/><polygon points="33.96 0.1 33.9 0.1 18.33 8.57 18.4 8.56 33.96 0.1"/><polygon points="34.71 0.06 34.65 0.06 19.08 8.52 19.15 8.52 34.71 0.06"/><polygon points="35.46 0.01 35.4 0.01 19.83 8.48 19.9 8.47 35.46 0.01"/><polygon points="41.21 2.7 41.18 2.68 31.84 7.76 31.9 7.76 41.21 2.7"/><polygon points="40.15 2.18 40.12 2.17 29.59 7.9 29.65 7.89 40.15 2.18"/><polygon points="40.51 2.36 40.48 2.34 30.34 7.85 30.4 7.85 40.51 2.36"/><polygon points="40.86 2.53 40.83 2.51 31.09 7.81 31.15 7.81 40.86 2.53"/><polygon points="41.57 2.87 41.54 2.85 32.59 7.72 32.65 7.72 41.57 2.87"/><polygon points="41.92 3.04 41.89 3.03 33.34 7.68 33.4 7.67 41.92 3.04"/><polygon points="38.74 1.5 38.71 1.48 26.59 8.08 26.65 8.07 38.74 1.5"/><polygon points="39.09 1.67 39.06 1.66 27.34 8.03 27.4 8.03 39.09 1.67"/><polygon points="38.39 1.33 38.36 1.31 25.84 8.12 25.9 8.12 38.39 1.33"/><polygon points="39.45 1.84 39.42 1.83 28.09 7.99 28.15 7.98 39.45 1.84"/><polygon points="39.8 2.01 39.77 2 28.84 7.94 28.9 7.94 39.8 2.01"/></g><polygon class="cls-7" points="0 2.12 0 2.96 13.71 9.65 49.49 7.52 49.49 6.72 13.84 8.83 0 2.12"/></g></g></g></svg>