<svg xmlns="http://www.w3.org/2000/svg" viewBox="0 0 40.35 10.05"><defs><style>.cls-1{fill:#fff;}</style></defs><g id="Ebene_2" data-name="Ebene 2"><g id="Ebene_28" data-name="Ebene 28"><path class="cls-1" d="M5,10H2.3a2.38,2.38,0,0,1-.39,0L1.48,9.9l-.32-.12L.7,9.47A1.58,1.58,0,0,1,0,8.19V1.85A1.59,1.59,0,0,1,.71.56,2.19,2.19,0,0,1,1.08.31,1.53,1.53,0,0,1,1.49.14,1.87,1.87,0,0,1,1.91,0a2.6,2.6,0,0,1,.4,0H5a2.94,2.94,0,0,1,.44,0,2,2,0,0,1,.44.11,1.1,1.1,0,0,1,.31.12l.46.3a1.62,1.62,0,0,1,.72,1.3V8.19a1.58,1.58,0,0,1-.72,1.28,1.61,1.61,0,0,1-.37.25l-.41.18a2.36,2.36,0,0,1-.43.09A2,2,0,0,1,5,10ZM5,8.18V1.85H2.35V8.18Z"/><path class="cls-1" d="M15.5,1.85H13.75V9.57c0,.31-.19.47-.58.47H12c-.4,0-.59-.16-.59-.47V1.85H9.64c-.39,0-.59-.15-.59-.46V.45c0-.3.2-.45.59-.45H15.5c.4,0,.59.15.59.45v.94C16.09,1.7,15.9,1.85,15.5,1.85Z"/><path class="cls-1" d="M23.65,10h-1.2c-.38,0-.57-.16-.57-.47V6H19.2V9.57c0,.31-.2.47-.58.47h-1.2c-.38,0-.58-.16-.58-.47V.45c0-.3.2-.45.58-.45h1.2c.38,0,.58.15.58.45V4.09h2.68V.45c0-.3.19-.45.58-.45h1.19c.39,0,.58.15.58.45V9.57C24.23,9.88,24,10,23.65,10Z"/><path class="cls-1" d="M31.1,10.05H27.7a1.87,1.87,0,0,1-.34,0A2.71,2.71,0,0,1,27,9.93a1.86,1.86,0,0,1-.32-.13c-.05,0-.2-.12-.43-.27a1.54,1.54,0,0,1-.66-1.24V.48c0-.31.2-.47.59-.47h4.92c.39,0,.59.16.59.47v.93c0,.31-.2.46-.59.46H27.89V4.1h2.64c.39,0,.59.16.59.47v.94c0,.3-.2.45-.59.45H27.89V8.2H31.1c.4,0,.59.16.59.47V9.6C31.69,9.9,31.5,10.05,31.1,10.05Z"/><path class="cls-1" d="M39.76,10H38.42l-.1,0-.16,0a.4.4,0,0,1-.12-.1.5.5,0,0,1-.1-.14L36.08,6h-.7V9.57c0,.31-.19.47-.59.47H33.61c-.4,0-.59-.16-.59-.47V.45c0-.3.19-.45.59-.45h4.18a2.83,2.83,0,0,1,.41,0,1.63,1.63,0,0,1,.42.11A1.16,1.16,0,0,1,39,.26l.45.3a1.61,1.61,0,0,1,.73,1.3V4.07a1.55,1.55,0,0,1,0,.31,1.19,1.19,0,0,1-.1.28,1.26,1.26,0,0,1-.13.26,1.45,1.45,0,0,1-.21.22,1.7,1.7,0,0,1-.24.23l-.28.19-.3.15a1.85,1.85,0,0,1-.31.11l1.76,3.59a.15.15,0,0,1,0,.11.11.11,0,0,1,0,.06v0a.23.23,0,0,1-.05.11.33.33,0,0,1-.06.1l-.1.1L40,10l-.13,0Zm-2-5.95V1.85h-2.4V4.09Z"/></g></g></svg>