<svg xmlns="http://www.w3.org/2000/svg" viewBox="0 0 125.3 125.3"><defs><style>.cls-1{fill:#fff;}</style></defs><g id="Ebene_2" data-name="Ebene 2"><g id="Ebene_12" data-name="Ebene 12"><path class="cls-1" d="M75.37,125.3H0V74.89H75.37ZM.48,124.81H74.89V75.37H.48Z"/><polygon class="cls-1" points="75.13 106.58 68.65 106.58 68.65 93.61 75.13 93.61 75.13 94.09 69.13 94.09 69.13 106.09 75.13 106.09 75.13 106.58"/><polygon class="cls-1" points="75.17 110.32 63.69 110.32 63.69 89.87 75.17 89.87 75.17 90.35 64.17 90.35 64.17 109.84 75.17 109.84 75.17 110.32"/><polygon class="cls-1" points="6.76 106.58 0.28 106.58 0.28 106.09 6.28 106.09 6.28 94.09 0.28 94.09 0.28 93.61 6.76 93.61 6.76 106.58"/><polygon class="cls-1" points="11.72 110.32 0.24 110.32 0.24 109.84 11.23 109.84 11.23 90.35 0.24 90.35 0.24 89.87 11.72 89.87 11.72 110.32"/><path class="cls-1" d="M37.72,108.63a8.54,8.54,0,1,1,8.54-8.54A8.55,8.55,0,0,1,37.72,108.63Zm0-16.59a8.06,8.06,0,1,0,8.06,8A8.06,8.06,0,0,0,37.72,92Z"/><rect class="cls-1" x="37.48" y="75.13" width="0.48" height="49.93"/><path class="cls-1" d="M37.72,101a.87.87,0,1,1,.87-.87A.87.87,0,0,1,37.72,101Zm0-1.25a.38.38,0,0,0-.38.38.39.39,0,0,0,.38.39.4.4,0,0,0,.39-.39A.39.39,0,0,0,37.72,99.71Z"/><path class="cls-1" d="M125.3,125.3H74.89V49.93H125.3Zm-49.93-.49h49.44V50.41H75.37Z"/><path class="cls-1" d="M123.43,123.43H76.76V51.8h46.67Zm-46.19-.49h45.7V52.28H77.25Z"/><rect class="cls-1" x="75.13" y="87.37" width="49.93" height="0.48"/><rect class="cls-1" x="77" y="72.39" width="46.18" height="0.48"/><rect class="cls-1" x="77" y="102.35" width="46.18" height="0.48"/><path class="cls-1" d="M50.41,75.37H0V0H50.41ZM.48,74.89H49.93V.48H.48Z"/><rect class="cls-1" x="0.24" y="37.44" width="49.93" height="0.48"/><rect class="cls-1" x="7.11" y="54.92" width="36.2" height="0.48"/><rect class="cls-1" x="7.11" y="19.97" width="36.2" height="0.48"/><rect class="cls-1" x="24.96" y="20.21" width="0.48" height="34.95"/><rect class="cls-1" x="6.86" y="2.11" width="0.48" height="71.14"/><rect class="cls-1" x="43.06" y="2.11" width="0.48" height="71.14"/><rect class="cls-1" x="24.96" y="2.11" width="0.48" height="1.25"/><path class="cls-1" d="M48.54,73.5H1.87V1.87H48.54ZM2.36,73H48.05V2.36H2.36Z"/><rect class="cls-1" x="24.96" y="72.01" width="0.48" height="1.25"/><path class="cls-1" d="M125.3,50.41H49.93V0H125.3Zm-74.89-.48h74.4V.48H50.41Z"/><rect class="cls-1" x="52.77" y="21.69" width="0.48" height="7.49"/><path class="cls-1" d="M54.27,26.46a1,1,0,1,1,1-1A1,1,0,0,1,54.27,26.46Zm0-1.57a.54.54,0,1,0,.55.54A.54.54,0,0,0,54.27,24.89Z"/><polygon class="cls-1" points="69.13 31.18 50.17 31.18 50.17 30.69 68.65 30.69 68.65 19.94 50.17 19.94 50.17 19.46 69.13 19.46 69.13 31.18"/><path class="cls-1" d="M69,31.18a6.64,6.64,0,0,1-.77-.05l.07-.48a5.48,5.48,0,0,0,.7,0Z"/><path class="cls-1" d="M66.73,30.73A5.59,5.59,0,0,1,65.41,30l.29-.38a5.19,5.19,0,0,0,1.21.69Z"/><path class="cls-1" d="M64.32,28.89a6.14,6.14,0,0,1-.77-1.34l.45-.19a5.19,5.19,0,0,0,.71,1.23Z"/><path class="cls-1" d="M63.16,26.11a7,7,0,0,1,0-.79,6.19,6.19,0,0,1,0-.76l.48.06a5.36,5.36,0,0,0,0,.7,5.68,5.68,0,0,0,0,.72Z"/><path class="cls-1" d="M64,23.21,63.58,23a5.55,5.55,0,0,1,.74-1.27l.39.29A5.3,5.3,0,0,0,64,23.21Z"/><path class="cls-1" d="M65.69,21.06l-.3-.38a6.08,6.08,0,0,1,1.35-.78l.18.45A5.39,5.39,0,0,0,65.69,21.06Z"/><path class="cls-1" d="M68.26,20l-.06-.48a6.49,6.49,0,0,1,.77-.05v.48A5.52,5.52,0,0,0,68.26,20Z"/><path class="cls-1" d="M69,31.18v-.49a5.38,5.38,0,0,0,0-10.75v-.48a5.86,5.86,0,0,1,0,11.72Z"/><rect class="cls-1" x="50.17" y="2.61" width="4.4" height="0.48"/><rect class="cls-1" x="50.17" y="47.54" width="4.4" height="0.48"/><path class="cls-1" d="M54.41,48v-.49a22.23,22.23,0,0,0,0-44.45V2.61a22.71,22.71,0,1,1,0,45.42Z"/><path class="cls-1" d="M87.61,31.18a5.86,5.86,0,1,1,5.86-5.86A5.87,5.87,0,0,1,87.61,31.18Zm0-11.24A5.38,5.38,0,1,0,93,25.32,5.38,5.38,0,0,0,87.61,19.94Z"/><rect class="cls-1" x="87.37" y="0.36" width="0.48" height="49.93"/><rect class="cls-1" x="121.97" y="21.46" width="0.48" height="7.49"/><path class="cls-1" d="M121,26.23a1,1,0,1,1,1-1A1,1,0,0,1,121,26.23Zm0-1.57a.55.55,0,1,0,.54.54A.54.54,0,0,0,121,24.66Z"/><polygon class="cls-1" points="125.06 31.18 106.09 31.18 106.09 19.46 125.06 19.46 125.06 19.94 106.58 19.94 106.58 30.69 125.06 30.69 125.06 31.18"/><path class="cls-1" d="M107,20a5.52,5.52,0,0,0-.71,0v-.48a6.49,6.49,0,0,1,.77.05Z"/><path class="cls-1" d="M109.52,21.05a5.22,5.22,0,0,0-1.21-.7l.19-.45a5.89,5.89,0,0,1,1.31.76Z"/><path class="cls-1" d="M111.23,23.27a5.39,5.39,0,0,0-.71-1.23l.38-.29a5.42,5.42,0,0,1,.77,1.34Z"/><path class="cls-1" d="M112.06,26.08l-.48-.06a5.49,5.49,0,0,0,0-.7,6,6,0,0,0,0-.73l.48-.06a5.16,5.16,0,0,1,0,.79A4.85,4.85,0,0,1,112.06,26.08Z"/><path class="cls-1" d="M110.9,28.89l-.38-.3a5.87,5.87,0,0,0,.68-1.16l.44.19A5.77,5.77,0,0,1,110.9,28.89Z"/><path class="cls-1" d="M108.49,30.74l-.19-.45a5.46,5.46,0,0,0,1.24-.71l.29.38A5.79,5.79,0,0,1,108.49,30.74Z"/><path class="cls-1" d="M106.25,31.18v-.49a5.53,5.53,0,0,0,.71,0l.06.48A6.49,6.49,0,0,1,106.25,31.18Z"/><path class="cls-1" d="M106.25,31.18a5.86,5.86,0,0,1,0-11.72v.48a5.38,5.38,0,0,0,0,10.75Z"/><rect class="cls-1" x="120.65" y="47.54" width="4.4" height="0.48"/><rect class="cls-1" x="120.65" y="2.61" width="4.4" height="0.48"/><path class="cls-1" d="M120.81,48a22.71,22.71,0,0,1,0-45.42v.48a22.23,22.23,0,0,0,0,44.45Z"/></g></g></svg>