<svg xmlns="http://www.w3.org/2000/svg" viewBox="0 0 50 50"><defs><style>.cls-1{fill:#a5e60a;}.cls-2{fill:#66c800;}.cls-3{fill:#38c3d2;}.cls-4{fill:#0095c8;}.cls-5{fill:#f63;}.cls-6{fill:#f30;}.cls-7{fill:#ff0;}.cls-8{fill:#ffd800;}</style></defs><g id="Ebene_2" data-name="Ebene 2"><g id="Ebene_12" data-name="Ebene 12"><rect class="cls-1" y="30" width="30" height="20" transform="translate(30 80) rotate(180)"/><polygon class="cls-2" points="29.61 42.69 26.92 42.69 26.92 37.31 29.61 37.31 29.61 37.69 27.31 37.69 27.31 42.31 29.61 42.31 29.61 42.69"/><polygon class="cls-2" points="29.63 44.19 24.93 44.19 24.93 35.81 29.63 35.81 29.63 36.19 25.32 36.19 25.32 43.81 29.63 43.81 29.63 44.19"/><polygon class="cls-2" points="3.1 42.69 0.4 42.69 0.4 42.31 2.71 42.31 2.71 37.69 0.4 37.69 0.4 37.31 3.1 37.31 3.1 42.69"/><polygon class="cls-2" points="5.08 44.19 0.39 44.19 0.39 43.81 4.69 43.81 4.69 36.19 0.39 36.19 0.39 35.81 5.08 35.81 5.08 44.19"/><path class="cls-2" d="M15,43.52A3.52,3.52,0,1,1,18.53,40,3.52,3.52,0,0,1,15,43.52Zm0-6.65A3.13,3.13,0,1,0,18.14,40,3.13,3.13,0,0,0,15,36.87Z"/><rect class="cls-2" x="14.82" y="30" width="0.39" height="20"/><circle class="cls-2" cx="15.01" cy="40" r="0.25"/><path class="cls-2" d="M29.82,49.82H.18V30.18H29.82ZM.56,49.43H29.44V30.57H.56Z"/><rect class="cls-3" x="30" y="20" width="20" height="30"/><path class="cls-4" d="M49.44,49.44H30.56V20.56H49.44Zm-18.5-.38H49.06V20.94H30.94Z"/><rect class="cls-4" x="30" y="34.81" width="20" height="0.39"/><rect class="cls-4" x="30.75" y="28.81" width="18.5" height="0.39"/><rect class="cls-4" x="30.75" y="40.81" width="18.5" height="0.39"/><rect class="cls-5" width="20" height="30"/><rect class="cls-6" y="14.81" width="20" height="0.39"/><rect class="cls-6" x="2.75" y="21.81" width="14.5" height="0.39"/><rect class="cls-6" x="2.75" y="7.81" width="14.5" height="0.39"/><rect class="cls-6" x="9.81" y="8" width="0.39" height="14"/><rect class="cls-6" x="2.56" y="0.75" width="0.39" height="28.5"/><rect class="cls-6" x="17.06" y="0.75" width="0.39" height="28.5"/><rect class="cls-6" x="9.81" y="0.75" width="0.39" height="0.5"/><path class="cls-6" d="M19.44,29.44H.56V.56H19.44ZM.94,29.06H19.06V.94H.94Z"/><rect class="cls-6" x="9.81" y="28.75" width="0.39" height="0.5"/><rect class="cls-7" x="20" width="30" height="20"/><path class="cls-8" d="M35,12.49a2.45,2.45,0,1,1,2.44-2.44A2.44,2.44,0,0,1,35,12.49ZM35,8a2.06,2.06,0,1,0,2.06,2.06A2.06,2.06,0,0,0,35,8Z"/><rect class="cls-8" x="34.81" y="0.05" width="0.39" height="20"/><rect class="cls-8" x="48.67" y="8.5" width="0.39" height="3"/><path class="cls-8" d="M48.35,10.41a.41.41,0,1,1,.42-.41A.41.41,0,0,1,48.35,10.41Zm0-.63a.22.22,0,1,0,.22.22A.22.22,0,0,0,48.35,9.78Z"/><polygon class="cls-8" points="50 12.49 42.31 12.49 42.31 7.6 50 7.6 50 7.99 42.69 7.99 42.69 12.1 50 12.1 50 12.49"/><path class="cls-8" d="M42.47,12.49a2.45,2.45,0,1,1,0-4.89V8a2.06,2.06,0,1,0,0,4.11Z"/><rect class="cls-8" x="48.24" y="18.85" width="1.76" height="0.39"/><rect class="cls-8" x="48.24" y="0.85" width="1.76" height="0.39"/><path class="cls-8" d="M48.3,19.24A9.2,9.2,0,0,1,48.3.85v.39a8.81,8.81,0,1,0,0,17.61Z"/><path class="cls-8" d="M42.74,8l-.27,0V7.6l.32,0Z"/><path class="cls-8" d="M43.72,8.41a1.75,1.75,0,0,0-.46-.26l.14-.36A2.29,2.29,0,0,1,44,8.1Z"/><path class="cls-8" d="M44.37,9.26a2.2,2.2,0,0,0-.27-.47l.31-.23a2.54,2.54,0,0,1,.32.55Z"/><path class="cls-8" d="M44.89,10.36l-.38,0a2.35,2.35,0,0,0,0-.26,2.53,2.53,0,0,0,0-.28l.38,0a3.25,3.25,0,0,1,0,.33A1.62,1.62,0,0,1,44.89,10.36Z"/><path class="cls-8" d="M44.41,11.54l-.31-.24a2.51,2.51,0,0,0,.26-.45l.36.15A2.9,2.9,0,0,1,44.41,11.54Z"/><path class="cls-8" d="M43.4,12.31,43.25,12a1.72,1.72,0,0,0,.47-.28L44,12A2.84,2.84,0,0,1,43.4,12.31Z"/><path class="cls-8" d="M42.47,12.49V12.1a1.23,1.23,0,0,0,.27,0l0,.39Z"/><rect class="cls-8" x="20.95" y="8.59" width="0.39" height="3"/><path class="cls-8" d="M21.65,10.5a.41.41,0,1,1,.41-.41A.41.41,0,0,1,21.65,10.5Zm0-.63a.22.22,0,1,0,.21.22A.22.22,0,0,0,21.65,9.87Z"/><polygon class="cls-8" points="27.69 12.49 20 12.49 20 12.1 27.31 12.1 27.31 7.99 20 7.99 20 7.6 27.69 7.6 27.69 12.49"/><path class="cls-8" d="M27.53,12.49l-.32,0,.05-.39a1.23,1.23,0,0,0,.27,0Z"/><path class="cls-8" d="M26.6,12.3a2.29,2.29,0,0,1-.55-.31l.23-.31a2,2,0,0,0,.47.27Z"/><path class="cls-8" d="M25.59,11.53a2.33,2.33,0,0,1-.32-.55l.36-.15a2.2,2.2,0,0,0,.27.47Z"/><path class="cls-8" d="M25.11,10.37c0-.1,0-.21,0-.32a1.67,1.67,0,0,1,0-.32l.38,0a3.65,3.65,0,0,0,0,.54Z"/><path class="cls-8" d="M25.64,9.24l-.36-.15a2.54,2.54,0,0,1,.31-.53l.31.23A2.51,2.51,0,0,0,25.64,9.24Z"/><path class="cls-8" d="M26.28,8.42,26,8.11a2.84,2.84,0,0,1,.56-.33l.15.36A1.72,1.72,0,0,0,26.28,8.42Z"/><path class="cls-8" d="M27.26,8l-.05-.39.32,0V8Z"/><path class="cls-8" d="M27.53,12.49V12.1a2.06,2.06,0,1,0,0-4.11V7.6a2.45,2.45,0,1,1,0,4.89Z"/><rect class="cls-8" x="20" y="0.85" width="1.76" height="0.39"/><rect class="cls-8" x="20" y="18.85" width="1.76" height="0.39"/><path class="cls-8" d="M21.7,19.24v-.39a8.81,8.81,0,1,0,0-17.61V.85a9.2,9.2,0,0,1,0,18.39Z"/><path class="cls-8" d="M49.82,19.87H20.18V.13H49.82Zm-29.26-.38H49.44V.51H20.56Z"/></g></g></svg>