<svg xmlns="http://www.w3.org/2000/svg" viewBox="0 0 43.76 10.05"><defs><style>.cls-1{fill:#fff;}</style></defs><g id="Ebene_2" data-name="Ebene 2"><g id="Ebene_28" data-name="Ebene 28"><path class="cls-1" d="M6.45,1.85H4.7V9.57c0,.31-.19.47-.58.47H2.93c-.4,0-.59-.16-.59-.47V1.85H.59C.2,1.85,0,1.7,0,1.39V.45C0,.15.2,0,.59,0H6.45C6.84,0,7,.15,7,.45v.94C7,1.7,6.84,1.85,6.45,1.85Z"/><path class="cls-1" d="M13.36,10.05H10a1.87,1.87,0,0,1-.34,0,3,3,0,0,1-.41-.09,1.69,1.69,0,0,1-.31-.13,4.78,4.78,0,0,1-.44-.27,1.54,1.54,0,0,1-.66-1.24V.48C7.79.17,8,0,8.38,0H13.3c.39,0,.59.16.59.47v.93c0,.31-.2.46-.59.46H10.14V4.1h2.64c.39,0,.59.16.59.47v.94c0,.3-.2.45-.59.45H10.14V8.2h3.22c.39,0,.59.16.59.47V9.6C14,9.9,13.75,10.05,13.36,10.05Z"/><path class="cls-1" d="M20,9.73l-2.42-5v4.8c0,.31-.19.47-.58.47H15.86c-.39,0-.59-.16-.59-.47V.45c0-.3.2-.45.59-.45h1.69l.17.07.12.09a.64.64,0,0,1,.1.13c.54,1.1,1.36,2.76,2.43,5V.45c0-.3.21-.45.59-.45h1.17c.4,0,.59.15.59.45V9.56q0,.45-.57.45H20.6A.52.52,0,0,1,20,9.73Z"/><path class="cls-1" d="M28.88,9.73q-.81-1.65-2.42-5v4.8c0,.31-.2.47-.59.47H24.69c-.39,0-.59-.16-.59-.47V.45c0-.3.2-.45.59-.45h1.7l.16.07.12.09a.64.64,0,0,1,.1.13q.82,1.65,2.43,5V.45c0-.3.21-.45.59-.45H31c.39,0,.58.15.58.45V9.56q0,.45-.57.45H29.44A.51.51,0,0,1,28.88,9.73Z"/><path class="cls-1" d="M34.71,10H33.52c-.39,0-.58-.16-.58-.47V.45c0-.3.19-.45.58-.45h1.19c.39,0,.59.15.59.45V9.57C35.3,9.88,35.1,10,34.71,10Z"/><path class="cls-1" d="M41.4,10H39a2.3,2.3,0,0,1-.45,0,2.26,2.26,0,0,1-.42-.09l-.32-.14a3.23,3.23,0,0,1-.46-.29,1.59,1.59,0,0,1-.71-1.29V7.82q0-.45.57-.45h1.21q.57,0,.57.45v.36H41.4V5.93H39l-.45,0a2.38,2.38,0,0,1-.42-.11,1.86,1.86,0,0,1-.32-.13,3.76,3.76,0,0,1-.46-.3,1.59,1.59,0,0,1-.71-1.28V1.85A1.62,1.62,0,0,1,37.38.56a2.19,2.19,0,0,1,.37-.25,1.86,1.86,0,0,1,.41-.17A1.74,1.74,0,0,1,38.58,0,2.73,2.73,0,0,1,39,0H41.4a3.4,3.4,0,0,1,.45,0,1.63,1.63,0,0,1,.42.11,1.35,1.35,0,0,1,.32.12l.46.3a1.59,1.59,0,0,1,.71,1.29v.3c0,.31-.19.46-.58.46H42c-.4,0-.59-.15-.59-.46v-.3H39V4.09H41.4a3.4,3.4,0,0,1,.45,0,3.2,3.2,0,0,1,.42.1l.32.14a4,4,0,0,1,.46.29,1.59,1.59,0,0,1,.71,1.28V8.19a1.6,1.6,0,0,1-.71,1.3l-.37.24a2.19,2.19,0,0,1-.41.17l-.42.11-.38,0Z"/></g></g></svg>