<svg xmlns="http://www.w3.org/2000/svg" viewBox="0 0 79.45 10.05"><defs><style>.cls-1{fill:#fff;}</style></defs><g id="Ebene_2" data-name="Ebene 2"><g id="Ebene_28" data-name="Ebene 28"><path class="cls-1" d="M3.92,5.78c.33-1.17.6-2.11.8-2.81S5.16,1.4,5.46.36Q5.55,0,6,0H7.37l.12,0A.24.24,0,0,1,7.6.1a.33.33,0,0,1,.1.06l.07.09,0,.09a.23.23,0,0,1,0,.11.22.22,0,0,1,0,.11q-.87,3-2.59,9.12-.09.36-.57.36H3.17c-.32,0-.5-.12-.56-.36Q1.76,6.64,0,.56A.41.41,0,0,1,0,.45.45.45,0,0,1,0,.34l0-.09A.38.38,0,0,1,.14.16.28.28,0,0,1,.23.1.24.24,0,0,1,.34,0L.46,0H1.8a.53.53,0,0,1,.58.36c.16.58.41,1.45.74,2.61C3.31,3.67,3.58,4.61,3.92,5.78Z"/><path class="cls-1" d="M13.84,10H11.09a2.17,2.17,0,0,1-.38,0l-.44-.11L10,9.78l-.46-.31a1.58,1.58,0,0,1-.7-1.28V1.85A1.61,1.61,0,0,1,9.5.56,2.19,2.19,0,0,1,9.87.31a1.68,1.68,0,0,1,.41-.17A1.82,1.82,0,0,1,10.71,0a2.38,2.38,0,0,1,.39,0h2.74a2.9,2.9,0,0,1,.43,0,1.89,1.89,0,0,1,.44.11A1.35,1.35,0,0,1,15,.26l.45.3a1.62,1.62,0,0,1,.72,1.3V8.19a1.58,1.58,0,0,1-.72,1.28,1.42,1.42,0,0,1-.37.25l-.41.18a2.36,2.36,0,0,1-.43.09A2,2,0,0,1,13.84,10Zm0-1.86V1.85h-2.7V8.18Z"/><path class="cls-1" d="M23,10H19.89a1.87,1.87,0,0,1-.34,0,2.13,2.13,0,0,1-.42-.1,1.14,1.14,0,0,1-.3-.12,4.1,4.1,0,0,1-.45-.27,1.56,1.56,0,0,1-.66-1.25V.45c0-.3.2-.45.59-.45H19.5c.39,0,.58.15.58.45V8.18H23c.39,0,.58.15.58.46v.93C23.56,9.88,23.37,10,23,10Z"/><path class="cls-1" d="M30.2,10H27.11a1.87,1.87,0,0,1-.34,0,2.13,2.13,0,0,1-.42-.1A1.43,1.43,0,0,1,26,9.79l-.45-.27a1.58,1.58,0,0,1-.65-1.25V.45c0-.3.19-.45.59-.45h1.18c.4,0,.59.15.59.45V8.18h2.9c.38,0,.58.15.58.46v.93C30.78,9.88,30.58,10,30.2,10Z"/><path class="cls-1" d="M37.72,10.05h-3.4A2,2,0,0,1,34,10l-.41-.09a1.69,1.69,0,0,1-.31-.13s-.2-.12-.44-.27a1.56,1.56,0,0,1-.65-1.24V.48c0-.31.19-.47.58-.47h4.93c.39,0,.58.16.58.47v.93c0,.31-.19.46-.58.46H34.51V4.1h2.64c.39,0,.58.16.58.47v.94c0,.3-.19.45-.58.45H34.51V8.2h3.21c.39,0,.59.16.59.47V9.6C38.31,9.9,38.11,10.05,37.72,10.05Z"/><path class="cls-1" d="M44.62,6.33V9.57c0,.31-.19.47-.58.47H42.82c-.39,0-.59-.16-.59-.47V6.32q-.84-1.91-2.55-5.7l0-.11V.38l0-.11.06-.08.11-.08A.41.41,0,0,1,40,0l.14,0h1.31A.52.52,0,0,1,42,.31l1.48,3.42c.31-.75.8-1.89,1.44-3.42A.53.53,0,0,1,45.43,0h1.4L47,0a.3.3,0,0,1,.11.07l.11.08a.36.36,0,0,1,.07.1.27.27,0,0,1,0,.11.14.14,0,0,1,0,.06.08.08,0,0,1,0,0,.52.52,0,0,1,0,.11C46.65,1.88,45.78,3.79,44.62,6.33Z"/><path class="cls-1" d="M53.47,10h-4.2c-.38,0-.57-.16-.57-.47V.45q0-.45.57-.45h4.24a2.73,2.73,0,0,1,.41,0,1.82,1.82,0,0,1,.43.11,1.25,1.25,0,0,1,.31.12l.46.3a1.59,1.59,0,0,1,.72,1.29V3.5a1.55,1.55,0,0,1,0,.31,1.63,1.63,0,0,1-.11.31q-.08.15-.15.27a1.58,1.58,0,0,1-.22.23l-.4.38c.09.1.24.23.43.4a2.2,2.2,0,0,1,.2.23,1.25,1.25,0,0,1,.15.28,1.18,1.18,0,0,1,.1.3,1.39,1.39,0,0,1,0,.3V8.19a1.64,1.64,0,0,1-.72,1.3,3.06,3.06,0,0,1-.36.23,3,3,0,0,1-.41.18l-.43.11a2.43,2.43,0,0,1-.38,0ZM51.05,4.09h2.42V1.85H51.05Zm0,4.09h2.42V5.93H51.05Z"/><path class="cls-1" d="M62.82,9.65c-.1-.41-.25-1-.46-1.86H59.88c-.1.42-.25,1-.46,1.86-.07.25-.26.37-.58.37H57.5l-.11,0-.12-.05-.09-.08a.23.23,0,0,1-.07-.07l-.06-.1a.37.37,0,0,1,0-.11.45.45,0,0,1,0-.11q.78-3,2.33-9.1c0-.25.24-.37.56-.37H62.3c.32,0,.51.12.58.37.51,2,1.28,5.06,2.31,9.1a.38.38,0,0,1,0,.1h0a.37.37,0,0,1,0,.11l-.06.1a.23.23,0,0,1-.07.07.34.34,0,0,1-.09.08.28.28,0,0,1-.11.05l-.11,0-.11,0H63.41A.53.53,0,0,1,62.82,9.65ZM61.88,6l-.75-3c-.18.66-.43,1.67-.77,3Z"/><path class="cls-1" d="M71.65,10H68.56a2,2,0,0,1-.34,0,2.32,2.32,0,0,1-.42-.1,1.14,1.14,0,0,1-.3-.12,4.1,4.1,0,0,1-.45-.27,1.56,1.56,0,0,1-.66-1.25V.45c0-.3.2-.45.59-.45h1.19c.39,0,.59.15.59.45V8.18h2.89c.39,0,.58.15.58.46v.93C72.23,9.88,72,10,71.65,10Z"/><path class="cls-1" d="M78.87,10H75.78a2,2,0,0,1-.34,0,2.13,2.13,0,0,1-.42-.1,1.14,1.14,0,0,1-.3-.12,4.1,4.1,0,0,1-.45-.27,1.56,1.56,0,0,1-.66-1.25V.45c0-.3.2-.45.59-.45h1.19c.39,0,.58.15.58.45V8.18h2.9c.39,0,.58.15.58.46v.93C79.45,9.88,79.26,10,78.87,10Z"/></g></g></svg>