<svg xmlns="http://www.w3.org/2000/svg" viewBox="0 0 634.51 155.87"><defs><style>.cls-1{isolation:isolate;}.cls-2{opacity:0.1;mix-blend-mode:multiply;}.cls-11,.cls-12,.cls-13,.cls-14,.cls-3,.cls-4,.cls-5{fill:none;}.cls-3,.cls-4,.cls-5{stroke:#000;}.cls-11,.cls-14,.cls-3,.cls-5{stroke-miterlimit:10;}.cls-11,.cls-12,.cls-13,.cls-3,.cls-4{stroke-width:0.25px;}.cls-12,.cls-13,.cls-4{stroke-linejoin:round;}.cls-14,.cls-5{stroke-width:0.5px;}.cls-6{fill:#cecdcd;}.cls-7{fill:#0095c8;}.cls-8{fill:#fff;}.cls-9{opacity:0.2;mix-blend-mode:overlay;}.cls-10{fill:gray;}.cls-11{stroke:#b3b3b2;}.cls-12{stroke:#5e5f5f;}.cls-13{stroke:#4f4f4f;}.cls-14{stroke:#4e4d4d;}.cls-15{fill:#989898;}</style></defs><g class="cls-1"><g id="Ebene_2" data-name="Ebene 2"><g id="Ebene_23" data-name="Ebene 23"><g class="cls-2"><polygon points="634.51 118.67 182.06 145.54 6.45 60.31 458.9 33.44 634.51 118.67"/><polygon points="592.71 113.33 211.87 135.95 64.06 64.21 444.9 41.59 592.71 113.33"/><polygon points="423.45 51.44 100.27 70.63 98.89 69.96 422.07 50.77 423.45 51.44"/><polygon points="543.52 109.72 220.34 128.91 218.96 128.24 542.14 109.05 543.52 109.72"/><polygon points="220.21 128.96 218.38 129.07 96.69 70.06 98.71 69.99 220.21 128.96"/><polygon points="545.65 109.66 543.83 109.77 422.14 50.76 424.15 50.69 545.65 109.66"/><polygon points="450.14 114.98 448.6 115.25 327.74 56.63 329.75 56.56 450.14 114.98"/><polygon points="338.98 121.7 337.16 121.81 216.22 63.14 218.07 63.03 338.98 121.7"/><polygon points="417.71 124.04 415.8 124.16 267.58 52.26 269.6 52.2 417.71 124.04"/><polygon points="150.65 130.3 151.03 130.48 313.65 42.07 312.85 42.12 150.65 130.3"/><polygon points="146.17 128.12 146.55 128.31 304.13 42.63 303.33 42.68 146.17 128.12"/><polygon points="322.37 41.55 155.13 132.47 155.51 132.66 323.18 41.5 322.37 41.55"/><polygon points="141.69 125.95 142.06 126.13 294.61 43.2 293.81 43.25 141.69 125.95"/><polygon points="137.21 123.77 137.58 123.96 285.09 43.76 284.28 43.81 137.21 123.77"/><polygon points="208.99 48.28 208.19 48.33 101.39 106.39 101.77 106.58 208.99 48.28"/><polygon points="218.51 47.72 217.71 47.77 105.87 108.57 106.25 108.75 218.51 47.72"/><polygon points="237.56 46.59 236.75 46.63 114.84 112.92 115.22 113.1 237.56 46.59"/><polygon points="132.72 121.6 133.1 121.78 275.57 44.33 274.76 44.38 132.72 121.6"/><polygon points="228.04 47.15 227.23 47.2 110.36 110.74 110.73 110.93 228.04 47.15"/><polygon points="128.24 119.42 128.62 119.61 266.05 44.9 265.24 44.94 128.24 119.42"/><polygon points="370.79 38.67 369.98 38.72 177.53 143.35 177.91 143.53 370.79 38.67"/><polygon points="361.26 39.24 360.46 39.29 173.05 141.17 173.43 141.36 361.26 39.24"/><polygon points="199.47 48.85 198.67 48.9 96.91 104.22 97.29 104.4 199.47 48.85"/><polygon points="389.83 37.54 389.02 37.59 191.49 144.99 192.29 144.94 389.83 37.54"/><polygon points="351.74 39.8 350.94 39.85 168.57 139 168.95 139.18 351.74 39.8"/><polygon points="408.87 36.41 408.07 36.46 210.53 143.85 211.34 143.81 408.87 36.41"/><polygon points="342.22 40.37 341.41 40.42 164.09 136.82 164.47 137.01 342.22 40.37"/><polygon points="119.28 115.07 119.66 115.26 247 46.03 246.2 46.07 119.28 115.07"/><polygon points="123.76 117.25 124.14 117.43 256.52 45.46 255.72 45.51 123.76 117.25"/><polygon points="332.7 40.94 331.89 40.98 159.61 134.65 159.99 134.83 332.7 40.94"/><polygon points="142.34 52.24 141.53 52.29 70.02 91.17 70.4 91.35 142.34 52.24"/><polygon points="56.65 57.33 55.84 57.38 29.69 71.59 30.07 71.78 56.65 57.33"/><polygon points="37.6 58.46 36.79 58.51 20.73 67.25 21.11 67.43 37.6 58.46"/><polygon points="47.12 57.9 46.32 57.95 25.21 69.42 25.59 69.6 47.12 57.9"/><polygon points="66.17 56.77 65.36 56.81 34.17 73.77 34.55 73.95 66.17 56.77"/><polygon points="75.69 56.2 74.88 56.25 38.66 75.94 39.03 76.13 75.69 56.2"/><polygon points="9.04 60.16 8.23 60.21 7.29 60.72 7.67 60.91 9.04 60.16"/><polygon points="379.5 38.16 182.02 145.52 182.06 145.54 182.77 145.5 380.31 38.11 379.5 38.16"/><polygon points="85.21 55.64 84.4 55.68 43.14 78.12 43.52 78.3 85.21 55.64"/><polygon points="28.08 59.03 27.27 59.08 16.25 65.07 16.63 65.25 28.08 59.03"/><polygon points="18.56 59.59 17.75 59.64 11.77 62.9 12.15 63.08 18.56 59.59"/><polygon points="132.82 52.81 132.01 52.86 65.54 88.99 65.92 89.18 132.82 52.81"/><polygon points="161.38 51.11 160.58 51.16 78.99 95.52 79.37 95.7 161.38 51.11"/><polygon points="151.86 51.68 151.06 51.73 74.5 93.34 74.88 93.53 151.86 51.68"/><polygon points="180.43 49.98 179.62 50.03 87.95 99.87 88.33 100.05 180.43 49.98"/><polygon points="170.91 50.55 170.1 50.59 83.47 97.69 83.85 97.88 170.91 50.55"/><polygon points="94.73 55.07 93.92 55.12 47.62 80.3 48 80.48 94.73 55.07"/><polygon points="418.4 35.85 417.59 35.89 220.05 143.29 220.86 143.24 418.4 35.85"/><polygon points="113.78 53.94 112.97 53.99 56.58 84.64 56.96 84.83 113.78 53.94"/><polygon points="104.25 54.51 103.45 54.55 52.1 82.47 52.48 82.65 104.25 54.51"/><polygon points="189.95 49.41 189.14 49.46 92.43 102.04 92.81 102.23 189.95 49.41"/><polygon points="123.3 53.37 122.49 53.42 61.06 86.82 61.44 87 123.3 53.37"/><polygon points="399.35 36.98 398.55 37.02 201.01 144.42 201.81 144.37 399.35 36.98"/><polygon points="565.31 85.08 564.93 84.9 486.67 127.45 487.47 127.41 565.31 85.08"/><polygon points="569.79 87.26 569.41 87.08 496.19 126.89 496.99 126.84 569.79 87.26"/><polygon points="574.27 89.43 573.89 89.25 505.71 126.32 506.51 126.27 574.27 89.43"/><polygon points="578.76 91.61 578.38 91.42 515.23 125.76 516.04 125.71 578.76 91.61"/><polygon points="583.24 93.78 582.86 93.6 524.75 125.19 525.56 125.14 583.24 93.78"/><polygon points="547.39 76.39 547.01 76.2 448.58 129.72 449.38 129.67 547.39 76.39"/><polygon points="551.87 78.56 551.49 78.38 458.1 129.15 458.9 129.1 551.87 78.56"/><polygon points="560.83 82.91 560.45 82.73 477.14 128.02 477.95 127.97 560.83 82.91"/><polygon points="587.72 95.96 587.34 95.78 534.27 124.63 535.08 124.58 587.72 95.96"/><polygon points="542.91 74.21 542.53 74.03 439.06 130.28 439.86 130.23 542.91 74.21"/><polygon points="556.35 80.73 555.97 80.55 467.62 128.58 468.43 128.54 556.35 80.73"/><polygon points="619.09 111.18 618.71 111 600.93 120.67 601.73 120.62 619.09 111.18"/><polygon points="592.2 98.13 591.82 97.95 543.8 124.06 544.6 124.01 592.2 98.13"/><polygon points="628.05 115.53 627.67 115.35 619.97 119.53 620.78 119.49 628.05 115.53"/><polygon points="632.53 117.71 632.15 117.52 629.49 118.97 630.3 118.92 632.53 117.71"/><polygon points="427.92 35.28 427.11 35.33 229.57 142.72 230.38 142.68 427.92 35.28"/><polygon points="623.57 113.36 623.19 113.17 610.45 120.1 611.25 120.05 623.57 113.36"/><polygon points="596.68 100.31 596.3 100.13 553.32 123.49 554.12 123.45 596.68 100.31"/><polygon points="601.16 102.48 600.78 102.3 562.84 122.93 563.64 122.88 601.16 102.48"/><polygon points="605.64 104.66 605.26 104.47 572.36 122.36 573.17 122.31 605.64 104.66"/><polygon points="610.13 106.83 609.75 106.65 581.88 121.8 582.69 121.75 610.13 106.83"/><polygon points="614.61 109.01 614.23 108.82 591.4 121.23 592.21 121.18 614.61 109.01"/><polygon points="471.21 39.41 470.83 39.23 286.71 139.33 287.51 139.28 471.21 39.41"/><polygon points="475.69 41.59 475.31 41.4 296.23 138.76 297.03 138.72 475.69 41.59"/><polygon points="480.17 43.76 479.79 43.58 305.75 138.2 306.56 138.15 480.17 43.76"/><polygon points="484.65 45.94 484.27 45.75 315.27 137.63 316.08 137.59 484.65 45.94"/><polygon points="466.73 37.24 466.35 37.05 277.19 139.9 277.99 139.85 466.73 37.24"/><polygon points="489.13 48.11 488.75 47.93 324.79 137.07 325.6 137.02 489.13 48.11"/><polygon points="462.25 35.06 461.87 34.88 267.66 140.46 268.47 140.41 462.25 35.06"/><polygon points="437.44 34.72 436.63 34.76 239.1 142.16 239.9 142.11 437.44 34.72"/><polygon points="446.96 34.15 446.15 34.2 248.62 141.59 249.43 141.54 446.96 34.15"/><polygon points="456.48 33.58 455.68 33.63 258.14 141.03 258.95 140.98 456.48 33.58"/><polygon points="529.46 67.69 529.08 67.5 410.49 131.98 411.3 131.93 529.46 67.69"/><polygon points="516.02 61.16 515.64 60.98 381.92 133.67 382.73 133.63 516.02 61.16"/><polygon points="520.5 63.34 520.12 63.15 391.45 133.11 392.25 133.06 520.5 63.34"/><polygon points="524.98 65.51 524.6 65.33 400.97 132.54 401.77 132.5 524.98 65.51"/><polygon points="533.94 69.86 533.56 69.68 420.01 131.41 420.82 131.36 533.94 69.86"/><polygon points="538.42 72.03 538.05 71.85 429.53 130.85 430.34 130.8 538.42 72.03"/><polygon points="498.09 52.46 497.71 52.28 343.84 135.94 344.64 135.89 498.09 52.46"/><polygon points="502.58 54.64 502.2 54.45 353.36 135.37 354.17 135.32 502.58 54.64"/><polygon points="493.61 50.29 493.23 50.1 334.31 136.5 335.12 136.45 493.61 50.29"/><polygon points="507.06 56.81 506.68 56.63 362.88 134.81 363.69 134.76 507.06 56.81"/><polygon points="511.54 58.99 511.16 58.8 372.4 134.24 373.21 134.19 511.54 58.99"/><polygon points="6.45 60.31 6.45 71.07 180.45 155.87 634.51 128.9 634.51 118.67 182.06 145.54 6.45 60.31"/><line class="cls-3" x1="267.29" y1="41.21" x2="283.01" y2="42.21"/><line class="cls-3" x1="267.29" y1="15.67" x2="282.72" y2="29.06"/><line class="cls-3" x1="397.79" y1="102.75" x2="415.76" y2="115.24"/><line class="cls-3" x1="396.05" y1="86.77" x2="413.62" y2="88.26"/><line class="cls-4" x1="282.3" y1="31.26" x2="396.99" y2="89.73"/><line class="cls-4" x1="282.35" y1="33.13" x2="397.03" y2="91.59"/><line class="cls-4" x1="282.39" y1="34.99" x2="397.07" y2="93.46"/><line class="cls-4" x1="282.43" y1="36.86" x2="397.11" y2="95.33"/><line class="cls-4" x1="282.47" y1="38.73" x2="397.15" y2="97.2"/><line class="cls-4" x1="282.51" y1="40.59" x2="397.19" y2="99.06"/><line class="cls-4" x1="394.71" y1="85.88" x2="395.04" y2="101.2"/><line class="cls-4" x1="392.03" y1="84.45" x2="392.37" y2="99.77"/><line class="cls-4" x1="389.36" y1="83.02" x2="389.7" y2="98.34"/><line class="cls-4" x1="386.69" y1="81.58" x2="387.02" y2="96.91"/><line class="cls-4" x1="384.02" y1="80.15" x2="384.35" y2="95.48"/><line class="cls-4" x1="381.35" y1="78.72" x2="381.68" y2="94.04"/><line class="cls-4" x1="378.68" y1="77.29" x2="379.01" y2="92.61"/><line class="cls-4" x1="376" y1="75.86" x2="376.34" y2="91.18"/><line class="cls-4" x1="373.33" y1="74.43" x2="373.66" y2="89.75"/><line class="cls-4" x1="370.67" y1="73.59" x2="370.99" y2="88.32"/><line class="cls-4" x1="368" y1="72.33" x2="368.32" y2="86.89"/><line class="cls-4" x1="365.33" y1="70.98" x2="365.65" y2="85.46"/><line class="cls-4" x1="362.66" y1="69.62" x2="362.98" y2="84.02"/><line class="cls-4" x1="359.99" y1="68.06" x2="360.31" y2="82.59"/><line class="cls-4" x1="357.32" y1="66.58" x2="357.63" y2="81.16"/><line class="cls-4" x1="354.65" y1="65.56" x2="354.96" y2="79.73"/><line class="cls-4" x1="351.98" y1="63.9" x2="352.29" y2="78.3"/><line class="cls-4" x1="349.31" y1="62.74" x2="349.62" y2="76.87"/><line class="cls-4" x1="346.64" y1="61.21" x2="346.95" y2="75.43"/><line class="cls-4" x1="343.97" y1="60.04" x2="344.27" y2="74"/><line class="cls-4" x1="341.3" y1="58.78" x2="341.6" y2="72.57"/><line class="cls-4" x1="338.63" y1="57.3" x2="338.94" y2="71.66"/><line class="cls-4" x1="335.96" y1="56.05" x2="336.27" y2="70.42"/><line class="cls-4" x1="333.29" y1="54.72" x2="333.6" y2="68.85"/><line class="cls-4" x1="330.62" y1="53.17" x2="330.93" y2="67.38"/><line class="cls-4" x1="327.95" y1="52.01" x2="328.24" y2="65.41"/><line class="cls-4" x1="325.28" y1="50.53" x2="325.57" y2="63.98"/><line class="cls-4" x1="322.61" y1="49.09" x2="322.9" y2="62.55"/><line class="cls-4" x1="319.94" y1="47.73" x2="320.24" y2="61.69"/><line class="cls-4" x1="317.27" y1="46.59" x2="317.57" y2="60.45"/><line class="cls-4" x1="314.6" y1="45.24" x2="314.9" y2="59"/><line class="cls-4" x1="311.93" y1="43.66" x2="312.23" y2="57.56"/><line class="cls-4" x1="309.26" y1="42.53" x2="309.56" y2="56.19"/><line class="cls-4" x1="306.59" y1="41.17" x2="306.89" y2="54.78"/><line class="cls-4" x1="303.92" y1="39.82" x2="304.22" y2="53.49"/><line class="cls-4" x1="301.25" y1="38.46" x2="301.54" y2="51.97"/><line class="cls-4" x1="298.58" y1="37.11" x2="298.88" y2="50.7"/><line class="cls-4" x1="295.91" y1="35.75" x2="296.2" y2="49.16"/><line class="cls-4" x1="293.24" y1="34.4" x2="293.53" y2="47.75"/><line class="cls-4" x1="290.57" y1="33.04" x2="290.86" y2="46.34"/><line class="cls-4" x1="287.9" y1="31.5" x2="288.19" y2="44.93"/><line class="cls-4" x1="285.23" y1="30.33" x2="285.52" y2="43.67"/><polygon class="cls-4" points="283.01 42.21 397.73 102.62 397.4 87.25 282.72 29.06 283.01 42.21"/><line class="cls-5" x1="415.18" y1="87.65" x2="415.18" y2="124.37"/><line class="cls-5" x1="267.29" y1="15.67" x2="267.29" y2="52.39"/><ellipse cx="415.18" cy="86.77" rx="2.06" ry="2.06" transform="translate(60.11 318.78) rotate(-44.97)"/><ellipse cx="267.29" cy="14.96" rx="2.06" ry="2.06" transform="translate(67.61 193.27) rotate(-44.97)"/></g><polygon class="cls-6" points="628.07 105.77 175.61 132.65 0 47.42 452.45 20.54 628.07 105.77"/><polygon class="cls-7" points="586.26 100.43 205.42 123.05 57.61 51.31 438.45 28.69 586.26 100.43"/><polygon class="cls-8" points="417 38.54 93.82 57.73 92.44 57.06 415.62 37.87 417 38.54"/><polygon class="cls-8" points="537.07 96.82 213.89 116.02 212.51 115.35 535.69 96.15 537.07 96.82"/><polygon class="cls-8" points="213.76 116.06 211.93 116.17 90.24 57.16 92.26 57.09 213.76 116.06"/><polygon class="cls-8" points="539.2 96.76 537.38 96.87 415.69 37.86 417.7 37.79 539.2 96.76"/><polygon class="cls-8" points="443.69 102.08 442.15 102.35 321.29 43.73 323.31 43.66 443.69 102.08"/><polygon class="cls-8" points="332.53 108.8 330.71 108.91 209.77 50.24 211.62 50.13 332.53 108.8"/><polygon class="cls-8" points="411.26 111.14 409.35 111.26 261.13 39.37 263.15 39.3 411.26 111.14"/><g class="cls-9"><polygon points="144.2 117.4 144.58 117.58 307.2 29.17 306.4 29.22 144.2 117.4"/><polygon points="139.72 115.22 140.1 115.41 297.68 29.73 296.88 29.78 139.72 115.22"/><polygon points="315.92 28.65 148.68 119.58 149.06 119.76 316.73 28.6 315.92 28.65"/><polygon points="135.24 113.05 135.62 113.23 288.16 30.3 287.36 30.35 135.24 113.05"/><polygon points="130.75 110.88 131.13 111.06 278.64 30.87 277.83 30.91 130.75 110.88"/><polygon points="202.54 35.38 201.74 35.43 94.94 93.49 95.32 93.68 202.54 35.38"/><polygon points="212.07 34.82 211.26 34.87 99.42 95.67 99.8 95.85 212.07 34.82"/><polygon points="231.11 33.69 230.31 33.74 108.39 100.02 108.77 100.2 231.11 33.69"/><polygon points="126.27 108.7 126.65 108.88 269.12 31.43 268.31 31.48 126.27 108.7"/><polygon points="221.59 34.25 220.78 34.3 103.91 97.84 104.28 98.03 221.59 34.25"/><polygon points="121.79 106.53 122.17 106.71 259.6 32 258.79 32.05 121.79 106.53"/><polygon points="364.34 25.78 363.53 25.82 171.09 130.45 171.47 130.63 364.34 25.78"/><polygon points="354.81 26.34 354.01 26.39 166.6 128.27 166.98 128.46 354.81 26.34"/><polygon points="193.02 35.95 192.22 36 90.46 91.32 90.84 91.5 193.02 35.95"/><polygon points="383.38 24.64 382.57 24.69 185.04 132.09 185.84 132.04 383.38 24.64"/><polygon points="345.29 26.91 344.49 26.95 162.12 126.1 162.5 126.28 345.29 26.91"/><polygon points="402.42 23.51 401.62 23.56 204.08 130.96 204.89 130.91 402.42 23.51"/><polygon points="335.77 27.47 334.96 27.52 157.64 123.92 158.02 124.11 335.77 27.47"/><polygon points="112.83 102.18 113.21 102.36 240.55 33.13 239.75 33.18 112.83 102.18"/><polygon points="117.31 104.35 117.69 104.53 250.07 32.56 249.27 32.61 117.31 104.35"/><polygon points="326.25 28.04 325.44 28.09 153.16 121.75 153.54 121.93 326.25 28.04"/><polygon points="135.89 39.34 135.09 39.39 63.57 78.27 63.95 78.45 135.89 39.34"/><polygon points="50.2 44.43 49.39 44.48 23.24 58.7 23.62 58.88 50.2 44.43"/><polygon points="31.15 45.56 30.34 45.61 14.28 54.35 14.66 54.53 31.15 45.56"/><polygon points="40.67 45 39.87 45.05 18.76 56.52 19.14 56.71 40.67 45"/><polygon points="59.72 43.87 58.91 43.92 27.73 60.87 28.1 61.05 59.72 43.87"/><polygon points="69.24 43.3 68.43 43.35 32.21 63.05 32.59 63.23 69.24 43.3"/><polygon points="2.59 47.26 1.78 47.31 0.84 47.82 1.22 48.01 2.59 47.26"/><polygon points="373.05 25.26 175.57 132.62 175.61 132.65 176.32 132.6 373.86 25.21 373.05 25.26"/><polygon points="78.76 42.74 77.95 42.78 36.69 65.22 37.07 65.41 78.76 42.74"/><polygon points="21.63 46.13 20.82 46.18 9.8 52.17 10.18 52.36 21.63 46.13"/><polygon points="12.11 46.7 11.3 46.74 5.32 50 5.7 50.18 12.11 46.7"/><polygon points="126.37 39.91 125.56 39.96 59.09 76.09 59.47 76.28 126.37 39.91"/><polygon points="154.94 38.21 154.13 38.26 72.54 82.62 72.92 82.8 154.94 38.21"/><polygon points="145.41 38.78 144.61 38.83 68.06 80.44 68.44 80.63 145.41 38.78"/><polygon points="173.98 37.08 173.17 37.13 81.5 86.97 81.88 87.15 173.98 37.08"/><polygon points="164.46 37.65 163.65 37.7 77.02 84.8 77.4 84.98 164.46 37.65"/><polygon points="88.28 42.17 87.48 42.22 41.17 67.4 41.55 67.58 88.28 42.17"/><polygon points="411.95 22.95 411.14 23 213.6 130.39 214.41 130.34 411.95 22.95"/><polygon points="107.33 41.04 106.52 41.09 50.13 71.75 50.51 71.93 107.33 41.04"/><polygon points="97.8 41.61 97 41.65 45.65 69.57 46.03 69.75 97.8 41.61"/><polygon points="183.5 36.52 182.69 36.56 85.98 89.14 86.36 89.33 183.5 36.52"/><polygon points="116.85 40.48 116.04 40.52 54.61 73.92 54.99 74.11 116.85 40.48"/><polygon points="392.9 24.08 392.1 24.13 194.56 131.52 195.37 131.47 392.9 24.08"/><polygon points="558.86 72.19 558.48 72 480.21 114.55 481.02 114.51 558.86 72.19"/><polygon points="563.34 74.36 562.97 74.18 489.74 113.99 490.54 113.94 563.34 74.36"/><polygon points="567.83 76.54 567.45 76.35 499.26 113.42 500.06 113.38 567.83 76.54"/><polygon points="572.31 78.71 571.93 78.53 508.78 112.86 509.59 112.81 572.31 78.71"/><polygon points="576.79 80.89 576.41 80.7 518.3 112.29 519.11 112.24 576.79 80.89"/><polygon points="540.94 63.49 540.56 63.3 442.13 116.82 442.93 116.77 540.94 63.49"/><polygon points="545.42 65.66 545.04 65.48 451.65 116.25 452.45 116.2 545.42 65.66"/><polygon points="554.38 70.01 554 69.83 470.69 115.12 471.5 115.07 554.38 70.01"/><polygon points="581.27 83.06 580.89 82.88 527.83 111.73 528.63 111.68 581.27 83.06"/><polygon points="536.46 61.31 536.08 61.13 432.61 117.38 433.41 117.33 536.46 61.31"/><polygon points="549.9 67.84 549.52 67.65 461.17 115.69 461.98 115.64 549.9 67.84"/><polygon points="612.64 98.28 612.26 98.1 594.48 107.77 595.28 107.72 612.64 98.28"/><polygon points="585.75 85.23 585.37 85.05 537.35 111.16 538.15 111.11 585.75 85.23"/><polygon points="621.6 102.63 621.22 102.45 613.52 106.64 614.33 106.59 621.6 102.63"/><polygon points="626.08 104.81 625.7 104.63 623.04 106.07 623.85 106.02 626.08 104.81"/><polygon points="421.47 22.38 420.66 22.43 223.13 129.82 223.93 129.78 421.47 22.38"/><polygon points="617.12 100.46 616.74 100.28 604 107.2 604.81 107.15 617.12 100.46"/><polygon points="590.23 87.41 589.85 87.23 546.87 110.59 547.67 110.55 590.23 87.41"/><polygon points="594.71 89.58 594.33 89.4 556.39 110.03 557.2 109.98 594.71 89.58"/><polygon points="599.19 91.76 598.82 91.58 565.91 109.46 566.72 109.42 599.19 91.76"/><polygon points="603.67 93.94 603.3 93.75 575.43 108.9 576.24 108.85 603.67 93.94"/><polygon points="608.16 96.11 607.78 95.92 584.96 108.33 585.76 108.28 608.16 96.11"/><polygon points="464.76 26.51 464.38 26.33 280.26 126.43 281.06 126.38 464.76 26.51"/><polygon points="469.24 28.69 468.86 28.5 289.78 125.86 290.58 125.82 469.24 28.69"/><polygon points="473.72 30.86 473.34 30.68 299.3 125.3 300.11 125.25 473.72 30.86"/><polygon points="478.2 33.04 477.82 32.85 308.82 124.73 309.63 124.69 478.2 33.04"/><polygon points="460.28 24.34 459.9 24.16 270.74 127 271.54 126.95 460.28 24.34"/><polygon points="482.68 35.21 482.3 35.03 318.34 124.17 319.15 124.12 482.68 35.21"/><polygon points="455.8 22.16 455.42 21.98 261.21 127.56 262.02 127.51 455.8 22.16"/><polygon points="430.99 21.82 430.18 21.86 232.65 129.26 233.45 129.21 430.99 21.82"/><polygon points="440.51 21.25 439.7 21.3 242.17 128.69 242.98 128.65 440.51 21.25"/><polygon points="450.03 20.69 449.23 20.73 251.69 128.13 252.5 128.08 450.03 20.69"/><polygon points="523.01 54.79 522.63 54.6 404.04 119.08 404.85 119.03 523.01 54.79"/><polygon points="509.57 48.26 509.19 48.08 375.47 120.78 376.28 120.73 509.57 48.26"/><polygon points="514.05 50.44 513.67 50.25 385 120.21 385.8 120.16 514.05 50.44"/><polygon points="518.53 52.61 518.15 52.43 394.52 119.64 395.32 119.6 518.53 52.61"/><polygon points="527.49 56.96 527.12 56.78 413.56 118.51 414.37 118.47 527.49 56.96"/><polygon points="531.98 59.14 531.6 58.95 423.08 117.95 423.89 117.9 531.98 59.14"/><polygon points="491.64 39.56 491.26 39.38 337.39 123.04 338.19 122.99 491.64 39.56"/><polygon points="496.13 41.74 495.75 41.55 346.91 122.47 347.72 122.42 496.13 41.74"/><polygon points="487.16 37.39 486.78 37.2 327.87 123.6 328.67 123.56 487.16 37.39"/><polygon points="500.61 43.91 500.23 43.73 356.43 121.91 357.24 121.86 500.61 43.91"/><polygon points="505.09 46.09 504.71 45.9 365.95 121.34 366.76 121.29 505.09 46.09"/></g><polygon class="cls-10" points="0 47.42 0 58.17 174 142.97 628.07 116 628.07 105.77 175.61 132.65 0 47.42"/><line class="cls-11" x1="260.84" y1="28.32" x2="276.56" y2="29.31"/><line class="cls-11" x1="260.84" y1="2.77" x2="276.27" y2="16.16"/><line class="cls-11" x1="391.34" y1="89.86" x2="409.31" y2="102.34"/><line class="cls-11" x1="389.6" y1="73.87" x2="407.17" y2="75.36"/><line class="cls-12" x1="275.86" y1="18.36" x2="390.54" y2="76.83"/><line class="cls-12" x1="275.9" y1="20.23" x2="390.58" y2="78.7"/><line class="cls-12" x1="275.94" y1="22.1" x2="390.62" y2="80.56"/><line class="cls-12" x1="275.98" y1="23.96" x2="390.66" y2="82.43"/><line class="cls-12" x1="276.02" y1="25.83" x2="390.7" y2="84.3"/><line class="cls-12" x1="276.06" y1="27.7" x2="390.74" y2="86.16"/><line class="cls-12" x1="388.26" y1="72.98" x2="388.59" y2="88.3"/><line class="cls-12" x1="385.59" y1="71.55" x2="385.92" y2="86.87"/><line class="cls-12" x1="382.91" y1="70.12" x2="383.25" y2="85.44"/><line class="cls-12" x1="380.24" y1="68.69" x2="380.58" y2="84.01"/><line class="cls-12" x1="377.57" y1="67.25" x2="377.9" y2="82.58"/><line class="cls-12" x1="374.9" y1="65.82" x2="375.23" y2="81.15"/><line class="cls-12" x1="372.23" y1="64.39" x2="372.56" y2="79.71"/><line class="cls-12" x1="369.55" y1="62.96" x2="369.89" y2="78.28"/><line class="cls-12" x1="366.88" y1="61.53" x2="367.22" y2="76.85"/><line class="cls-12" x1="364.22" y1="60.69" x2="364.54" y2="75.42"/><line class="cls-12" x1="361.56" y1="59.43" x2="361.87" y2="73.99"/><line class="cls-12" x1="358.89" y1="58.08" x2="359.2" y2="72.56"/><line class="cls-12" x1="356.22" y1="56.72" x2="356.53" y2="71.13"/><line class="cls-12" x1="353.54" y1="55.16" x2="353.86" y2="69.69"/><line class="cls-12" x1="350.87" y1="53.68" x2="351.18" y2="68.26"/><line class="cls-12" x1="348.2" y1="52.66" x2="348.51" y2="66.83"/><line class="cls-12" x1="345.53" y1="51" x2="345.84" y2="65.4"/><line class="cls-12" x1="342.86" y1="49.84" x2="343.17" y2="63.97"/><line class="cls-12" x1="340.19" y1="48.31" x2="340.5" y2="62.54"/><line class="cls-12" x1="337.52" y1="47.14" x2="337.83" y2="61.1"/><line class="cls-12" x1="334.85" y1="45.89" x2="335.15" y2="59.67"/><line class="cls-12" x1="332.18" y1="44.4" x2="332.49" y2="58.76"/><line class="cls-12" x1="329.51" y1="43.15" x2="329.83" y2="57.52"/><line class="cls-12" x1="326.84" y1="41.82" x2="327.15" y2="55.95"/><line class="cls-12" x1="324.17" y1="40.28" x2="324.48" y2="54.48"/><line class="cls-12" x1="321.5" y1="39.11" x2="321.79" y2="52.52"/><line class="cls-12" x1="318.83" y1="37.63" x2="319.12" y2="51.08"/><line class="cls-12" x1="316.16" y1="36.2" x2="316.45" y2="49.65"/><line class="cls-12" x1="313.49" y1="34.83" x2="313.79" y2="48.79"/><line class="cls-12" x1="310.82" y1="33.69" x2="311.12" y2="47.55"/><line class="cls-12" x1="308.15" y1="32.34" x2="308.45" y2="46.1"/><line class="cls-12" x1="305.48" y1="30.76" x2="305.78" y2="44.67"/><line class="cls-12" x1="302.81" y1="29.63" x2="303.11" y2="43.29"/><line class="cls-12" x1="300.14" y1="28.27" x2="300.44" y2="41.88"/><line class="cls-12" x1="297.47" y1="26.92" x2="297.77" y2="40.59"/><line class="cls-12" x1="294.8" y1="25.56" x2="295.1" y2="39.07"/><line class="cls-12" x1="292.13" y1="24.21" x2="292.43" y2="37.8"/><line class="cls-12" x1="289.46" y1="22.85" x2="289.75" y2="36.26"/><line class="cls-12" x1="286.79" y1="21.5" x2="287.08" y2="34.85"/><line class="cls-12" x1="284.12" y1="20.14" x2="284.41" y2="33.44"/><line class="cls-12" x1="281.45" y1="18.6" x2="281.74" y2="32.04"/><line class="cls-12" x1="278.78" y1="17.44" x2="279.07" y2="30.77"/><polygon class="cls-13" points="276.56 29.31 391.28 89.72 390.95 74.35 276.27 16.16 276.56 29.31"/><line class="cls-14" x1="408.73" y1="74.75" x2="408.73" y2="111.47"/><line class="cls-14" x1="260.84" y1="2.77" x2="260.84" y2="39.49"/><ellipse class="cls-15" cx="408.73" cy="73.87" rx="2.06" ry="2.06" transform="translate(67.34 310.45) rotate(-44.97)"/><ellipse class="cls-15" cx="260.84" cy="2.06" rx="2.06" ry="2.06" transform="translate(74.84 184.94) rotate(-44.97)"/></g></g></g></svg>